SplineFontDB: 3.0
FontName: Parastoo
FullName: Parastoo
FamilyName: Parastoo
Weight: Regular
Copyright: Copyright (c) 2003 by Bitstream, Inc. All Rights Reserved.\nDejaVu changes are in public domain\nCopyright (c) 2015 by Saber Rastikerdar. All Rights Reserved.
Version: 0.7.2
ItalicAngle: 0
UnderlinePosition: -100
UnderlineWidth: 100
Ascent: 1536
Descent: 512
InvalidEm: 0
LayerCount: 2
Layer: 0 1 "Back" 1
Layer: 1 1 "Fore" 0
XUID: [1021 502 1027637223 7335572]
UniqueID: 4193122
UseUniqueID: 1
FSType: 0
OS2Version: 1
OS2_WeightWidthSlopeOnly: 0
OS2_UseTypoMetrics: 1
CreationTime: 1431850356
ModificationTime: 1451457298
PfmFamily: 17
TTFWeight: 400
TTFWidth: 5
LineGap: 0
VLineGap: 0
Panose: 2 11 6 3 3 8 4 2 2 4
OS2TypoAscent: 2000
OS2TypoAOffset: 0
OS2TypoDescent: -1000
OS2TypoDOffset: 0
OS2TypoLinegap: 0
OS2WinAscent: 2000
OS2WinAOffset: 0
OS2WinDescent: 1000
OS2WinDOffset: 0
HheadAscent: 2000
HheadAOffset: 0
HheadDescent: -1000
HheadDOffset: 0
OS2SubXSize: 1331
OS2SubYSize: 1433
OS2SubXOff: 0
OS2SubYOff: 286
OS2SupXSize: 1331
OS2SupYSize: 1433
OS2SupXOff: 0
OS2SupYOff: 983
OS2StrikeYSize: 102
OS2StrikeYPos: 530
OS2Vendor: 'PfEd'
OS2CodePages: 600001ff.dfff0000
Lookup: 1 0 0 "'case' Case-Sensitive Forms in Latin lookup 0" { "'case' Case-Sensitive Forms in Latin lookup 0 subtable"  } ['case' ('DFLT' <'dflt' > 'latn' <'CAT ' 'ESP ' 'GAL ' 'dflt' > ) ]
Lookup: 6 1 0 "'ccmp' Glyph Composition/Decomposition lookup 2" { "'ccmp' Glyph Composition/Decomposition lookup 2 subtable"  } ['ccmp' ('arab' <'KUR ' 'SND ' 'URD ' 'dflt' > 'hebr' <'dflt' > 'nko ' <'dflt' > ) ]
Lookup: 6 0 0 "'ccmp' Glyph Composition/Decomposition lookup 3" { "'ccmp' Glyph Composition/Decomposition lookup 3 subtable"  } ['ccmp' ('cyrl' <'MKD ' 'SRB ' 'dflt' > 'grek' <'dflt' > 'latn' <'ISM ' 'KSM ' 'LSM ' 'MOL ' 'NSM ' 'ROM ' 'SKS ' 'SSM ' 'dflt' > ) ]

StartChar: afii57388
Encoding: 1548 1548 2
Width: 679
VWidth: 2156
GlyphClass: 2
Flags: W
LayerCount: 2
Fore
SplineSet
368.623 253.717 m 1,0,-1
 398.88 253.717 l 2,1,2
 481.655 253.717 481.655 253.717 481.655 153.489 c 2,3,-1
 481.655 99.2354 l 2,4,5
 481.655 2 481.655 2 399.761 2 c 2,6,-1
 324.98 2 l 2,7,8
 281.733 1.54365 281.733 1.54365 260.356 24.6842 c 128,-1,9
 238.979 47.8248 238.979 47.8248 238.979 95.2773 c 2,10,-1
 238.979 214.389 l 1,11,12
 258.578 426.365 258.578 426.365 457.182 595.803 c 1,13,-1
 514.959 566.943 l 1,14,15
 370.48 406.938 370.48 406.938 368.647 255.999 c 2,16,-1
 368.623 253.717 l 1,0,-1
EndSplineSet
EndChar

StartChar: uni0615
Encoding: 1557 1557 3
Width: 0
VWidth: 2186
GlyphClass: 4
Flags: W
AnchorPoint: "Anchor-10" 547.84 1279.5 mark 0
AnchorPoint: "Anchor-9" 547.84 1279.5 mark 0
AnchorPoint: "Anchor-1" 547.84 1975 basemark 0
AnchorPoint: "Anchor-1" 547.84 1279.5 mark 0
LayerCount: 2
Fore
SplineSet
461.916 1454.96 m 1,0,-1
 552.12 1454.96 l 2,1,2
 639.683 1454.96 639.683 1454.96 666.9 1471.04 c 0,3,4
 698.542 1490.74 698.542 1490.74 714.482 1506.89 c 0,5,6
 730.83 1523.45 730.83 1523.45 730.83 1541.65 c 0,7,8
 730.83 1584.28 730.83 1584.28 689.992 1606.69 c 0,9,-1
 689.688 1606.83 l 2,10,11
 681.495 1609.68 681.495 1609.68 672.268 1607.4 c 0,12,13
 663.451 1605.21 663.451 1605.21 639.491 1594.46 c 0,14,15
 615.748 1583.82 615.748 1583.82 601.116 1578.04 c 0,16,17
 541.822 1554.1 541.822 1554.1 481.59 1479.37 c 2,18,-1
 461.916 1454.96 l 1,0,-1
576.73 1376.89 m 2,19,-1
 284.64 1376.89 l 1,20,-1
 284.64 1454.96 l 1,21,-1
 371.31 1454.96 l 1,22,-1
 371.31 1881.89 l 1,23,-1
 450.45 1881.89 l 1,24,-1
 450.45 1489.09 l 1,25,-1
 478.903 1546.79 l 2,26,27
 514.827 1619.63 514.827 1619.63 620.59 1660.31 c 0,28,29
 682.725 1683.98 682.725 1683.98 752.251 1658.16 c 0,30,31
 812.11 1635.13 812.11 1635.13 812.11 1557.7 c 0,32,33
 812.11 1467.64 812.11 1467.64 749.42 1418.67 c 0,34,35
 695.7 1376.89 695.7 1376.89 576.73 1376.89 c 2,19,-1
EndSplineSet
EndChar

StartChar: uni061B
Encoding: 1563 1563 4
Width: 666
VWidth: 2156
GlyphClass: 2
Flags: W
LayerCount: 2
Fore
SplineSet
446.866 193.914 m 6,0,-1
 446.866 22.7432 l 6,1,2
 446.866 9.49236 446.866 9.49236 443.803 5.64127 c 4,3,4
 440.907 2 440.907 2 433.305 2 c 6,5,-1
 263.331 2 l 6,6,7
 253.331 2 253.331 2 249.797 5.93745 c 132,-1,8
 246.179 9.96905 246.179 9.96905 246.179 22.7432 c 6,9,-1
 246.179 192.717 l 6,10,11
 246.179 203.993 246.179 203.993 249.601 207.545 c 132,-1,12
 252.993 211.066 252.993 211.066 263.331 211.066 c 6,13,-1
 429.714 211.066 l 6,14,15
 440.222 211.066 440.222 211.066 443.544 207.744 c 132,-1,16
 446.866 204.422 446.866 204.422 446.866 193.914 c 6,0,-1
349.782 697.773 m 1,17,-1
 380.039 697.773 l 2,18,19
 462.815 697.773 462.815 697.773 462.815 597.546 c 2,20,-1
 462.815 543.292 l 2,21,22
 462.815 446.057 462.815 446.057 380.92 446.057 c 2,23,-1
 306.15 446.057 l 2,24,25
 220.139 446.057 220.139 446.057 220.139 539.334 c 2,26,-1
 220.139 658.445 l 1,27,28
 239.739 870.423 239.739 870.423 438.342 1039.86 c 1,29,-1
 496.118 1011 l 1,30,31
 351.374 850.7 351.374 850.7 349.803 699.794 c 2,32,-1
 349.782 697.773 l 1,17,-1
EndSplineSet
EndChar

StartChar: uni061F
Encoding: 1567 1567 5
Width: 1123
VWidth: 2150
GlyphClass: 2
Flags: W
LayerCount: 2
Fore
SplineSet
727.014 193.914 m 2,0,-1
 727.014 22.7432 l 2,1,2
 727.014 9.49205 727.014 9.49205 723.952 5.64127 c 0,3,4
 721.056 2 721.056 2 713.453 2 c 2,5,-1
 543.479 2 l 2,6,7
 533.478 2 533.478 2 529.945 5.93744 c 128,-1,8
 526.327 9.96883 526.327 9.96883 526.327 22.7432 c 2,9,-1
 526.327 192.717 l 2,10,11
 526.327 203.993 526.327 203.993 529.75 207.546 c 128,-1,12
 533.141 211.066 533.141 211.066 543.479 211.066 c 2,13,-1
 709.862 211.066 l 2,14,15
 720.37 211.066 720.37 211.066 723.692 207.744 c 128,-1,16
 727.014 204.423 727.014 204.423 727.014 193.914 c 2,0,-1
537.799 446.15 m 5,17,-1
 537.799 497.7 l 6,18,19
 537.799 552.929 537.799 552.929 534.586 585.044 c 4,20,21
 531.326 617.654 531.326 617.654 524.663 640.973 c 4,22,23
 515.577 669.363 515.577 669.363 493.891 698.833 c 4,24,25
 469.868 731.477 469.868 731.477 422.734 777.539 c 6,26,-1
 330.284 867.89 l 5,27,28
 237.207 956.83 237.207 956.83 200.363 1026.94 c 4,29,30
 163.998 1096.13 163.998 1096.13 163.998 1172.85 c 4,31,32
 163.998 1334.1 163.998 1334.1 276.778 1432.22 c 4,33,34
 390.317 1531 390.317 1531 578.849 1531 c 4,35,36
 694.733 1531 694.733 1531 784.786 1502.12 c 4,37,38
 881.205 1471.19 881.205 1471.19 958.533 1426.08 c 5,39,-1
 908.132 1292.96 l 5,40,41
 734.943 1382.77 734.943 1382.77 615.599 1383.8 c 5,42,43
 497.645 1383.8 497.645 1383.8 425.385 1323.12 c 4,44,45
 352.148 1261.62 352.148 1261.62 352.148 1162.35 c 4,46,47
 352.148 1107.72 352.148 1107.72 380.436 1055.59 c 4,48,49
 408.184 1004.44 408.184 1004.44 469.396 947.526 c 5,50,-1
 563.833 854.137 l 5,51,52
 656.576 765.513 656.576 765.513 684.968 699.605 c 132,-1,53
 713.349 633.723 713.349 633.723 713.349 530.25 c 6,54,-1
 713.349 446.15 l 5,55,-1
 537.799 446.15 l 5,17,-1
EndSplineSet
EndChar

StartChar: uni0621
Encoding: 1569 1569 6
Width: 760
VWidth: 2382
GlyphClass: 2
Flags: W
AnchorPoint: "Anchor-7" 374.066 -266.187 basechar 0
AnchorPoint: "Anchor-10" 321.199 1059.95 basechar 0
LayerCount: 2
Fore
SplineSet
81.3115 -42.1497 m 1,0,-1
 81.3115 90.6969 l 1,1,2
 250.046 137.902 250.046 137.902 349.627 194.452 c 2,3,-1
 354.513 197.227 l 1,4,-1
 348.972 198.163 l 2,5,6
 85.3154 242.726 85.3154 242.726 85.3154 467.742 c 0,7,8
 85.3154 648.958 85.3154 648.958 225.059 735.067 c 0,9,10
 364.339 820.891 364.339 820.891 580.23 773.723 c 1,11,-1
 580.23 634.127 l 1,12,13
 495.534 657.699 495.534 657.699 434.062 655.943 c 0,14,15
 381.58 654.956 381.58 654.956 329.679 629.006 c 0,16,17
 228.138 578.237 228.138 578.237 228.138 458.395 c 0,18,19
 228.138 313.821 228.138 313.821 407.948 281.017 c 0,20,21
 474.414 268.7 474.414 268.7 536.804 283.847 c 1,22,23
 635.914 310.659 635.914 310.659 657.401 320.31 c 1,24,-1
 657.401 182.638 l 1,25,26
 570.228 127.202 570.228 127.202 384.443 54.7004 c 0,27,28
 185.546 -22.7961 185.546 -22.7961 81.3115 -42.1497 c 1,0,-1
EndSplineSet
EndChar

StartChar: uni0627
Encoding: 1575 1575 12
Width: 431
VWidth: 2359
GlyphClass: 2
Flags: W
AnchorPoint: "Anchor-10" 212.835 1596.03 basechar 0
AnchorPoint: "Anchor-7" 187.025 -317.251 basechar 0
LayerCount: 2
Fore
SplineSet
298.073 1473.71 m 5,0,-1
 275.039 179.586 l 6,1,2
 271.664 -10.1157 271.664 -10.1157 192.088 -18.4856 c 6,3,-1
 183.396 -19.4002 l 5,4,-1
 132.695 1368.81 l 5,5,-1
 298.073 1473.71 l 5,0,-1
EndSplineSet
Substitution2: "'fina' Terminal Forms in Arabic lookup 9 subtable" uniFE8E
EndChar

StartChar: uni062D
Encoding: 1581 1581 18
Width: 1257
VWidth: 2380
GlyphClass: 2
Flags: W
AnchorPoint: "Anchor-10" 371.174 1266.83 basechar 0
AnchorPoint: "Anchor-7" 277.816 -820.659 basechar 0
LayerCount: 2
Fore
SplineSet
1101.21972656 489.875 m 1,0,1
 883 485 883 485 705 424 c 0,2,3
 265 273 265 273 264.211914062 -54.640625 c 0,4,5
 264 -239 264 -239 403 -351 c 0,6,7
 547 -467 547 -467 913 -467 c 0,8,9
 944 -467 944 -467 1165 -448 c 1,10,11
 1164 -474 1164 -474 1121 -502 c 0,12,13
 1012 -573 1012 -573 822 -583 c 0,14,15
 487 -601 487 -601 285 -465 c 0,16,17
 91 -333 91 -333 91.015625 -67.283203125 c 0,18,19
 91 251 91 251 472 456 c 24,20,21
 640 546 640 546 843.450195312 562.37109375 c 1,22,23
 750 576 750 576 571.356445312 660.561523438 c 0,24,25
 482 703 482 703 388 689 c 0,26,27
 298 675 298 675 228 531 c 5,28,-1
 214.837890625 531.745117188 l 6,29,30
 186 533 186 533 216.720703125 669.81640625 c 4,31,32
 253 831 253 831 396 847 c 0,33,34
 536 863 536 863 689.918945312 768.590820312 c 0,35,36
 823 688 823 688 1130 640 c 1,37,-1
 1101.21972656 489.875 l 1,0,1
EndSplineSet
Substitution2: "'fina' Terminal Forms in Arabic lookup 9 subtable" uniFEA2
Substitution2: "'medi' Medial Forms in Arabic lookup 11 subtable" uniFEA4
Substitution2: "'init' Initial Forms in Arabic lookup 13 subtable" uniFEA3
EndChar

StartChar: uni062F
Encoding: 1583 1583 20
Width: 836
VWidth: 2378
GlyphClass: 2
Flags: W
AnchorPoint: "Anchor-10" 175.838 1179.94 basechar 0
AnchorPoint: "Anchor-7" 230.512 -279.465 basechar 0
LayerCount: 2
Fore
SplineSet
294 672 m 5,0,-1
 365 865 l 5,1,2
 758 602 758 602 745 234 c 4,3,4
 743 177 743 177 727 133 c 4,5,6
 672 -19 672 -19 379.908203125 -19.07421875 c 4,7,8
 346 -19 346 -19 290.53 -11.4746 c 28,9,10
 90.7452314097 16.0350807654 90.7452314097 16.0350807654 91.1973 191.965 c 6,11,-1
 91.5488 328.757 l 5,12,13
 103 334 103 334 115.543 328.6 c 5,14,15
 135 187 135 187 340.8 171.112 c 4,16,17
 390 167 390 167 400.590820312 167.921875 c 4,18,19
 585 173 585 173 645 205 c 5,20,21
 656 496 656 496 294 672 c 5,0,-1
EndSplineSet
Substitution2: "'fina' Terminal Forms in Arabic lookup 9 subtable" uniFEAA
EndChar

StartChar: uni0631
Encoding: 1585 1585 22
Width: 742
VWidth: 2383
GlyphClass: 2
Flags: W
AnchorPoint: "Anchor-7" 337.116 -738.422 basechar 0
AnchorPoint: "Anchor-10" 357.638 958.896 basechar 0
LayerCount: 2
Fore
SplineSet
429.396484375 385.913085938 m 5,0,1
 501 483 501 483 555.125 505.517578125 c 5,2,3
 655 313 655 313 651.221679688 45.439453125 c 5,4,5
 591 -346 591 -346 396 -501 c 1,6,7
 237 -501 237 -501 20.27734375 -458.626953125 c 1,8,9
 510 -319 510 -319 550.327148438 76.1640625 c 5,10,11
 542 219 542 219 429.396484375 385.913085938 c 5,0,1
EndSplineSet
PairPos2: "'kern' Horizontal Kerning lookup 15-1" uni0632 dx=-80 dy=0 dh=-80 dv=0 dx=0 dy=0 dh=0 dv=0
PairPos2: "'kern' Horizontal Kerning lookup 15-1" uni0631 dx=-80 dy=0 dh=-80 dv=0 dx=0 dy=0 dh=0 dv=0
PairPos2: "'kern' Horizontal Kerning lookup 15-1" uni06CC dx=-100 dy=0 dh=-100 dv=0 dx=0 dy=0 dh=0 dv=0
PairPos2: "'kern' Horizontal Kerning lookup 15-1" uniFEEB dx=-170 dy=0 dh=-170 dv=0 dx=0 dy=0 dh=0 dv=0
PairPos2: "'kern' Horizontal Kerning lookup 15-1" uniFB7C dx=-100 dy=0 dh=-100 dv=0 dx=0 dy=0 dh=0 dv=0
PairPos2: "'kern' Horizontal Kerning lookup 15-1" uniFEDF dx=-170 dy=0 dh=-170 dv=0 dx=0 dy=0 dh=0 dv=0
PairPos2: "'kern' Horizontal Kerning lookup 15-1" uniFB90 dx=-170 dy=0 dh=-170 dv=0 dx=0 dy=0 dh=0 dv=0
PairPos2: "'kern' Horizontal Kerning lookup 15-1" uni06A9 dx=-170 dy=0 dh=-170 dv=0 dx=0 dy=0 dh=0 dv=0
PairPos2: "'kern' Horizontal Kerning lookup 15-1" uni0649 dx=-100 dy=0 dh=-100 dv=0 dx=0 dy=0 dh=0 dv=0
PairPos2: "'kern' Horizontal Kerning lookup 15-1" uni0647 dx=-170 dy=0 dh=-170 dv=0 dx=0 dy=0 dh=0 dv=0
PairPos2: "'kern' Horizontal Kerning lookup 15-1" uniFEE7 dx=-170 dy=0 dh=-170 dv=0 dx=0 dy=0 dh=0 dv=0
PairPos2: "'kern' Horizontal Kerning lookup 15-1" uniFEE3 dx=-170 dy=0 dh=-170 dv=0 dx=0 dy=0 dh=0 dv=0
PairPos2: "'kern' Horizontal Kerning lookup 15-1" uni0645 dx=-170 dy=0 dh=-170 dv=0 dx=0 dy=0 dh=0 dv=0
PairPos2: "'kern' Horizontal Kerning lookup 15-1" uni0644 dx=-100 dy=0 dh=-100 dv=0 dx=0 dy=0 dh=0 dv=0
PairPos2: "'kern' Horizontal Kerning lookup 15-1" uniFEDB dx=-170 dy=0 dh=-170 dv=0 dx=0 dy=0 dh=0 dv=0
PairPos2: "'kern' Horizontal Kerning lookup 15-1" uniFED7 dx=-170 dy=0 dh=-170 dv=0 dx=0 dy=0 dh=0 dv=0
PairPos2: "'kern' Horizontal Kerning lookup 15-1" uni0642 dx=-100 dy=0 dh=-100 dv=0 dx=0 dy=0 dh=0 dv=0
PairPos2: "'kern' Horizontal Kerning lookup 15-1" uniFED3 dx=-170 dy=0 dh=-170 dv=0 dx=0 dy=0 dh=0 dv=0
PairPos2: "'kern' Horizontal Kerning lookup 15-1" uni0641 dx=-170 dy=0 dh=-170 dv=0 dx=0 dy=0 dh=0 dv=0
PairPos2: "'kern' Horizontal Kerning lookup 15-1" uniFECF dx=-170 dy=0 dh=-170 dv=0 dx=0 dy=0 dh=0 dv=0
PairPos2: "'kern' Horizontal Kerning lookup 15-1" uniFECB dx=-170 dy=0 dh=-170 dv=0 dx=0 dy=0 dh=0 dv=0
PairPos2: "'kern' Horizontal Kerning lookup 15-1" uniFEC7 dx=-170 dy=0 dh=-170 dv=0 dx=0 dy=0 dh=0 dv=0
PairPos2: "'kern' Horizontal Kerning lookup 15-1" uni0638 dx=-170 dy=0 dh=-170 dv=0 dx=0 dy=0 dh=0 dv=0
PairPos2: "'kern' Horizontal Kerning lookup 15-1" uniFEC3 dx=-170 dy=0 dh=-170 dv=0 dx=0 dy=0 dh=0 dv=0
PairPos2: "'kern' Horizontal Kerning lookup 15-1" uni0637 dx=-170 dy=0 dh=-170 dv=0 dx=0 dy=0 dh=0 dv=0
PairPos2: "'kern' Horizontal Kerning lookup 15-1" uniFEBF dx=-170 dy=0 dh=-170 dv=0 dx=0 dy=0 dh=0 dv=0
PairPos2: "'kern' Horizontal Kerning lookup 15-1" uni0636 dx=-170 dy=0 dh=-170 dv=0 dx=0 dy=0 dh=0 dv=0
PairPos2: "'kern' Horizontal Kerning lookup 15-1" uniFEBB dx=-170 dy=0 dh=-170 dv=0 dx=0 dy=0 dh=0 dv=0
PairPos2: "'kern' Horizontal Kerning lookup 15-1" uni0635 dx=-170 dy=0 dh=-170 dv=0 dx=0 dy=0 dh=0 dv=0
PairPos2: "'kern' Horizontal Kerning lookup 15-1" uniFEB7 dx=-170 dy=0 dh=-170 dv=0 dx=0 dy=0 dh=0 dv=0
PairPos2: "'kern' Horizontal Kerning lookup 15-1" uni0634 dx=-170 dy=0 dh=-170 dv=0 dx=0 dy=0 dh=0 dv=0
PairPos2: "'kern' Horizontal Kerning lookup 15-1" uniFEB3 dx=-170 dy=0 dh=-170 dv=0 dx=0 dy=0 dh=0 dv=0
PairPos2: "'kern' Horizontal Kerning lookup 15-1" uni0633 dx=-170 dy=0 dh=-170 dv=0 dx=0 dy=0 dh=0 dv=0
PairPos2: "'kern' Horizontal Kerning lookup 15-1" uni0630 dx=-170 dy=0 dh=-170 dv=0 dx=0 dy=0 dh=0 dv=0
PairPos2: "'kern' Horizontal Kerning lookup 15-1" uni062F dx=-170 dy=0 dh=-170 dv=0 dx=0 dy=0 dh=0 dv=0
PairPos2: "'kern' Horizontal Kerning lookup 15-1" uniFEA7 dx=-170 dy=0 dh=-170 dv=0 dx=0 dy=0 dh=0 dv=0
PairPos2: "'kern' Horizontal Kerning lookup 15-1" uniFEA3 dx=-170 dy=0 dh=-170 dv=0 dx=0 dy=0 dh=0 dv=0
PairPos2: "'kern' Horizontal Kerning lookup 15-1" uniFE9F dx=-170 dy=0 dh=-170 dv=0 dx=0 dy=0 dh=0 dv=0
PairPos2: "'kern' Horizontal Kerning lookup 15-1" uniFE9B dx=-170 dy=0 dh=-170 dv=0 dx=0 dy=0 dh=0 dv=0
PairPos2: "'kern' Horizontal Kerning lookup 15-1" uni062B dx=-170 dy=0 dh=-170 dv=0 dx=0 dy=0 dh=0 dv=0
PairPos2: "'kern' Horizontal Kerning lookup 15-1" uniFE97 dx=-170 dy=0 dh=-170 dv=0 dx=0 dy=0 dh=0 dv=0
PairPos2: "'kern' Horizontal Kerning lookup 15-1" uni062A dx=-170 dy=0 dh=-170 dv=0 dx=0 dy=0 dh=0 dv=0
PairPos2: "'kern' Horizontal Kerning lookup 15-1" uni0629 dx=-170 dy=0 dh=-170 dv=0 dx=0 dy=0 dh=0 dv=0
PairPos2: "'kern' Horizontal Kerning lookup 15-1" uniFE91 dx=-104 dy=0 dh=-104 dv=0 dx=0 dy=0 dh=0 dv=0
PairPos2: "'kern' Horizontal Kerning lookup 15-1" uni0628 dx=-170 dy=0 dh=-170 dv=0 dx=0 dy=0 dh=0 dv=0
PairPos2: "'kern' Horizontal Kerning lookup 15-1" uni0627 dx=-190 dy=0 dh=-190 dv=0 dx=0 dy=0 dh=0 dv=0
PairPos2: "'kern' Horizontal Kerning lookup 15-1" uni0622 dx=-190 dy=0 dh=-190 dv=0 dx=0 dy=0 dh=0 dv=0
PairPos2: "'kern' Horizontal Kerning lookup 15-1" uniFB94 dx=-170 dy=0 dh=-170 dv=0 dx=0 dy=0 dh=0 dv=0
PairPos2: "'kern' Horizontal Kerning lookup 15-1" afii57509 dx=-170 dy=0 dh=-170 dv=0 dx=0 dy=0 dh=0 dv=0
PairPos2: "'kern' Horizontal Kerning lookup 15-1" uniFB56 dx=-170 dy=0 dh=-170 dv=0 dx=0 dy=0 dh=0 dv=0
PairPos2: "'kern' Horizontal Kerning lookup 15-1" afii57506 dx=-170 dy=0 dh=-170 dv=0 dx=0 dy=0 dh=0 dv=0
Substitution2: "'fina' Terminal Forms in Arabic lookup 9 subtable" uniFEAE
EndChar

StartChar: uni0633
Encoding: 1587 1587 24
Width: 2232
VWidth: 2383
GlyphClass: 2
Flags: W
AnchorPoint: "Anchor-7" 288.282 -766.888 basechar 0
AnchorPoint: "Anchor-10" 501.988 914.333 basechar 0
LayerCount: 2
Fore
SplineSet
1433.90234375 156.338867188 m 1,0,1
 1580.78813487 155.001928374 1580.78813487 155.001928374 1602 347 c 2,2,3
 1604.73339844 371.741210938 l 1,4,5
 1610 428 1610 428 1643.17675781 428.462890625 c 0,6,7
 1685 429 1685 429 1688.93847656 377.432617188 c 1,8,-1
 1690.10644531 353.546875 l 2,9,10
 1700 161 1700 161 1858.3828125 164.884765625 c 0,11,12
 1863 165 1863 165 1878.43554688 165.452148438 c 0,13,14
 2004 170 2004 170 2035 244 c 1,15,16
 2034 333 2034 333 1947.47265625 485.143554688 c 1,17,-1
 2095 619 l 1,18,19
 2120 549 2120 549 2141 380 c 0,20,21
 2163 204 2163 204 2085 100 c 0,22,23
 1993 -24 1993 -24 1839.73144531 -19.1884765625 c 1,24,25
 1804 -19 1804 -19 1764.44238281 -2.123046875 c 0,26,27
 1680 34 1680 34 1638.65820312 163.66796875 c 1,28,29
 1565 -27 1565 -27 1411.59472656 -19.20703125 c 1,30,31
 1299 -22 1299 -22 1248.9296875 82.5224609375 c 1,32,33
 1263 18 1263 18 1260.91015625 -20.892578125 c 1,34,35
 1177 -486 1177 -486 677.401367188 -495.430664062 c 0,36,37
 296 -502 296 -502 150.52734375 -292.809570312 c 0,38,39
 37 -128 37 -128 98.837890625 120.282226562 c 0,40,41
 115 186 115 186 152.073242188 294.375976562 c 0,42,43
 174 360 174 360 194.141601562 403.116210938 c 1,44,-1
 262.765625 358.002929688 l 1,45,46
 154 51 154 51 224.223632812 -98.1650390625 c 0,47,48
 332 -327 332 -327 673.028320312 -321.39453125 c 0,49,50
 1123 -313 1123 -313 1148.34960938 -21.1591796875 c 1,51,-1
 1035.33984375 351.619140625 l 5,52,-1
 1181 463 l 5,53,54
 1217 276 1217 276 1241.3203125 225.046875 c 4,55,56
 1276 150 1276 150 1394.12011719 154.86328125 c 2,57,-1
 1433.90234375 156.338867188 l 1,0,1
EndSplineSet
Substitution2: "'fina' Terminal Forms in Arabic lookup 9 subtable" uniFEB2
Substitution2: "'medi' Medial Forms in Arabic lookup 11 subtable" uniFEB4
Substitution2: "'init' Initial Forms in Arabic lookup 13 subtable" uniFEB3
EndChar

StartChar: uni0635
Encoding: 1589 1589 26
Width: 2387
VWidth: 2384
GlyphClass: 2
Flags: W
AnchorPoint: "Anchor-10" 384.818 915.73 basechar 0
AnchorPoint: "Anchor-7" 345.863 -807.193 basechar 0
LayerCount: 2
Fore
SplineSet
1474.00976562 -19.423828125 m 1,0,1
 1322 -20 1322 -20 1252.66992188 74.9873046875 c 1,2,3
 1265 18 1265 18 1263.00976562 -20.892578125 c 1,4,5
 1179 -484 1179 -484 679.500976562 -493.430664062 c 0,6,7
 297 -500 297 -500 152.626953125 -290.809570312 c 0,8,9
 40 -127 40 -127 100.938476562 122.282226562 c 0,10,11
 117 188 117 188 154.172851562 296.375976562 c 0,12,13
 181 375 181 375 194.059570312 404.87109375 c 1,14,-1
 260.091796875 351.311523438 l 1,15,16
 158 49 158 49 226.32421875 -96.166015625 c 0,17,18
 334 -325 334 -325 675.12890625 -319.39453125 c 0,19,20
 1125 -312 1125 -312 1150.45019531 -21.1591796875 c 1,21,-1
 1037.34082031 343.303710938 l 5,22,-1
 1187 456.684570312 l 5,23,24
 1220 287 1220 287 1239.54003906 254.502929688 c 0,25,26
 1286 179 1286 179 1386.96972656 187.782226562 c 2,27,-1
 1391.66699219 188.173828125 l 1,28,29
 1762 693 1762 693 1983 686 c 0,30,31
 2152 681 2152 681 2244 492.66015625 c 0,32,33
 2296 386 2296 386 2296 249 c 0,34,35
 2296 126 2296 126 2102.8828125 27.3212890625 c 0,36,37
 2012.28117724 -18.8566891576 2012.28117724 -18.8566891576 1762.26171875 -19.1201171875 c 2,38,-1
 1474.00976562 -19.423828125 l 1,0,1
1494.69140625 165.6796875 m 1,39,-1
 1697.95117188 165.6796875 l 2,40,41
 1931 166 1931 166 2144 208 c 1,42,43
 2103.14979817 549.746810412 2103.14979817 549.746810412 1942.4921875 550.610351562 c 0,44,45
 1870 551 1870 551 1730.5 414 c 0,46,47
 1541 230 1541 230 1497.44433594 168.963867188 c 1,48,-1
 1494.69140625 165.6796875 l 1,39,-1
EndSplineSet
Substitution2: "'fina' Terminal Forms in Arabic lookup 9 subtable" uniFEBA
Substitution2: "'medi' Medial Forms in Arabic lookup 11 subtable" uniFEBC
Substitution2: "'init' Initial Forms in Arabic lookup 13 subtable" uniFEBB
EndChar

StartChar: uni0637
Encoding: 1591 1591 28
Width: 1269
VWidth: 2384
GlyphClass: 2
Flags: W
AnchorPoint: "Anchor-10" 374.669 1578.79 basechar 0
AnchorPoint: "Anchor-7" 749.855 -354.486 basechar 0
LayerCount: 2
Fore
SplineSet
429.203125 383.375 m 5,0,1
 696 691 696 691 865 686 c 132,-1,2
 1034 681 1034 681 1126 492.66015625 c 4,3,4
 1178 386 1178 386 1178 249 c 4,5,6
 1178 126 1178 126 984.8828125 27.3212890625 c 4,7,8
 894.281177245 -18.8566891576 894.281177245 -18.8566891576 644.26171875 -19.1201171875 c 6,9,-1
 356.009765625 -19.423828125 l 5,10,-1
 314 -19.353515625 l 6,11,12
 92 -19 92 -19 91.7861328125 164.940429688 c 1,13,-1
 255.23046875 164.94140625 l 5,14,15
 269 183 269 183 315.73828125 243.475585938 c 5,16,17
 316 244 316 244 316.026367188 289.107421875 c 4,18,19
 316 336 316 336 307.15234375 758.728515625 c 4,20,21
 298 1182 298 1182 268.584960938 1370.0703125 c 5,22,-1
 429.879882812 1474.71972656 l 5,23,-1
 429.203125 383.375 l 5,0,1
376.69140625 165.6796875 m 5,24,-1
 579.951171875 165.6796875 l 6,25,26
 801 166 801 166 1026 208 c 5,27,28
 985 550 985 550 824.4921875 550.610351562 c 4,29,30
 752 551 752 551 612.5 414 c 4,31,32
 423 230 423 230 379.444335938 168.963867188 c 5,33,-1
 376.69140625 165.6796875 l 5,24,-1
EndSplineSet
Substitution2: "'fina' Terminal Forms in Arabic lookup 9 subtable" uniFEC2
Substitution2: "'medi' Medial Forms in Arabic lookup 11 subtable" uniFEC4
Substitution2: "'init' Initial Forms in Arabic lookup 13 subtable" uniFEC3
EndChar

StartChar: uni0639
Encoding: 1593 1593 30
Width: 1256
VWidth: 2380
GlyphClass: 2
Flags: W
AnchorPoint: "Anchor-10" 362.018 1497.09 basechar 0
AnchorPoint: "Anchor-7" 259.7 -816.038 basechar 0
LayerCount: 2
Fore
SplineSet
1057 648 m 1,0,-1
 1036 502 l 1,1,2
 765 445 765 445 705 424 c 0,3,4
 265 270 265 270 264.211914062 -54.640625 c 0,5,6
 264 -239 264 -239 403 -351 c 0,7,8
 547 -467 547 -467 913 -467 c 0,9,10
 944 -467 944 -467 1165 -448 c 1,11,12
 1164 -474 1164 -474 1121 -502 c 0,13,14
 1012 -573 1012 -573 822 -583 c 0,15,16
 487 -601 487 -601 285 -465 c 0,17,18
 91 -333 91 -333 91.015625 -67.283203125 c 0,19,20
 91 248 91 248 472 456 c 1,21,22
 322 628 322 628 327 769 c 0,23,24
 331 873 331 873 408.525390625 958.228515625 c 0,25,26
 516 1076 516 1076 688.403320312 1073.21191406 c 4,27,28
 938 1069 938 1069 965.525390625 852.228515625 c 1,29,30
 860 923 860 923 725.671875 923.392578125 c 0,31,32
 522 924 522 924 456 794 c 1,33,34
 478 694 478 694 574.333984375 582.282226562 c 0,35,36
 597 556 597 556 815.619140625 602.208007812 c 1,37,-1
 1057 648 l 1,0,-1
EndSplineSet
Substitution2: "'fina' Terminal Forms in Arabic lookup 9 subtable" uniFECA
Substitution2: "'medi' Medial Forms in Arabic lookup 11 subtable" uniFECC
Substitution2: "'init' Initial Forms in Arabic lookup 13 subtable" uniFECB
EndChar

StartChar: afii57440
Encoding: 1600 1600 32
Width: 694
VWidth: 2400
GlyphClass: 2
Flags: W
AnchorPoint: "Anchor-10" 337.05 1397.45 basechar 0
AnchorPoint: "Anchor-7" 337.05 -150.738 basechar 0
LayerCount: 2
Fore
SplineSet
-9.4072 -19.0732 m 1,0,-1
 -9.4072 165.001 l 1,1,-1
 703.457 165.001 l 1,2,-1
 703.457 -19.0732 l 1,3,-1
 -9.4072 -19.0732 l 1,0,-1
EndSplineSet
EndChar

StartChar: uni0643
Encoding: 1603 1603 35
Width: 1795
VWidth: 2359
GlyphClass: 2
Flags: W
AnchorPoint: "Anchor-10" 487.275 1488.25 basechar 0
AnchorPoint: "Anchor-7" 522.054 -316.15 basechar 0
LayerCount: 2
Fore
SplineSet
1499.06 1359.49 m 5,0,-1
 1664.36 1464.35 l 5,1,-1
 1664.36 430.602 l 5,2,-1
 1661.42 370.263 l 5,3,4
 1656.29 297.959 1656.29 297.959 1642.73 262.159 c 4,5,6
 1612.88 183.396 1612.88 183.396 1530.14 124.552 c 4,7,8
 1383.09 20.5283 1383.09 20.5283 1226.49 4.29883 c 4,9,10
 1011.02 -18.0352 1011.02 -18.0352 967.731 -19.5918 c 4,11,12
 478.916 -37.1729 478.916 -37.1729 284.478 64.4316 c 4,13,14
 85.1904 168.568 85.1904 168.568 91.8682 479.387 c 4,15,16
 94.6748 611.109 94.6748 611.109 148.264 716.357 c 5,17,-1
 208.62 716.206 l 5,18,19
 192.634 642.562 192.634 642.562 186.014 582.971 c 4,20,21
 180.515 533.476 180.515 533.476 182.555 476.181 c 4,22,23
 191.151 234.411 191.151 234.411 570.851 180.438 c 4,24,25
 674.132 165.758 674.132 165.758 1005.43 165.131 c 4,26,27
 1114.36 164.996 1114.36 164.996 1197.64 178.838 c 4,28,29
 1520.48 234.521 1520.48 234.521 1536.25 408.117 c 4,30,-1
 1536.26 408.232 l 5,31,-1
 1538.19 467.501 l 6,32,33
 1542.22 590.989 1542.22 590.989 1524.31 1019.58 c 5,34,35
 1512.08 1274.89 1512.08 1274.89 1499.06 1359.49 c 5,0,-1
1051.07 1293.78 m 5,36,-1
 1051.07 1239.96 l 5,37,38
 974.381 1234.1 974.381 1234.1 931.987 1218.47 c 4,39,40
 822.412 1177.39 822.412 1177.39 822.412 1122.83 c 4,41,42
 822.412 1081.91 822.412 1081.91 843.609 1054.66 c 4,43,44
 863.225 1028.51 863.225 1028.51 953.188 1015.27 c 4,45,46
 1007.56 1007.28 1007.56 1007.28 1034.86 982.35 c 4,47,48
 1061.39 958.11 1061.39 958.11 1061.39 914.412 c 4,49,50
 1061.39 808.622 1061.39 808.622 963.119 753.047 c 4,51,52
 886.914 709.95 886.914 709.95 782.519 708.982 c 4,53,54
 717.036 708.982 717.036 708.982 659.261 718.459 c 5,55,-1
 659.261 779.54 l 5,56,57
 725.584 770.906 725.584 770.906 771.8 770.906 c 4,58,59
 855.442 770.906 855.442 770.906 909.46 792.173 c 4,60,61
 1004.63 828.723 1004.63 828.723 1004.63 890.594 c 4,62,63
 1004.63 960.842 1004.63 960.842 893.926 977.71 c 4,64,65
 831.369 987.242 831.369 987.242 797.612 1021.77 c 132,-1,66
 763.888 1056.26 763.888 1056.26 765.245 1118.71 c 4,67,68
 767.305 1202 767.305 1202 844.865 1241.31 c 4,69,70
 933.06 1285.94 933.06 1285.94 1051.07 1293.78 c 5,36,-1
EndSplineSet
Substitution2: "'fina' Terminal Forms in Arabic lookup 9 subtable" uniFEDA
Substitution2: "'medi' Medial Forms in Arabic lookup 11 subtable" uniFEDC
Substitution2: "'init' Initial Forms in Arabic lookup 13 subtable" uniFEDB
EndChar

StartChar: uni0644
Encoding: 1604 1604 36
Width: 1321
VWidth: 2359
GlyphClass: 2
Flags: W
AnchorPoint: "Anchor-10" 503.331 1037.46 basechar 0
AnchorPoint: "Anchor-7" 316.396 -602.678 basechar 0
LayerCount: 2
Fore
SplineSet
1082.53027344 152.670898438 m 5,0,1
 1085 208 1085 208 1050.8203125 1028.53027344 c 5,2,3
 1039 1284 1039 1284 1025.5703125 1368.45019531 c 5,4,-1
 1190.87011719 1473.30957031 l 5,5,-1
 1190.87011719 387.962890625 l 6,6,7
 1191 -4 1191 -4 1187.44042969 -17.271484375 c 5,8,9
 1104 -468 1104 -468 652.283203125 -477.575195312 c 4,10,11
 308 -485 308 -485 162.411132812 -274.955078125 c 4,12,13
 49 -110 49 -110 110.720703125 138.13671875 c 4,14,15
 127 204 127 204 163.956054688 312.228515625 c 4,16,17
 186 378 186 378 206.081054688 421.096679688 c 5,18,-1
 275.599609375 381.198242188 l 5,19,20
 165 71 165 71 236.237304688 -80.5869140625 c 4,21,22
 344 -310 344 -310 647.91015625 -303.538085938 c 4,23,24
 1050 -295 1050 -295 1074.16015625 -10.9990234375 c 4,25,26
 1077 23 1077 23 1077.79980469 51.150390625 c 4,27,28
 1081.9893751 150.747418271 1081.9893751 150.747418271 1082.48046875 152.306640625 c 6,29,-1
 1082.51953125 152.430664062 l 5,30,-1
 1082.53027344 152.670898438 l 5,0,1
EndSplineSet
Substitution2: "'fina' Terminal Forms in Arabic lookup 9 subtable" uniFEDE
Substitution2: "'medi' Medial Forms in Arabic lookup 11 subtable" uniFEE0
Substitution2: "'init' Initial Forms in Arabic lookup 13 subtable" uniFEDF
EndChar

StartChar: uni0645
Encoding: 1605 1605 37
Width: 1059
VWidth: 2402
GlyphClass: 2
Flags: W
AnchorPoint: "Anchor-10" 580.073 1101.72 basechar 0
AnchorPoint: "Anchor-7" 216.1 -770.589 basechar 0
LayerCount: 2
Fore
SplineSet
722.646484375 299.698242188 m 1,0,1
 757 297 757 297 777.353515625 303.577148438 c 0,2,3
 818.140625 316.357421875 818.140625 316.357421875 802.421875 357.599609375 c 0,4,5
 739 524 739 524 529 590.977539062 c 1,6,7
 418 507 418 507 399.477539062 312.36328125 c 1,8,-1
 722.646484375 299.698242188 l 1,0,1
377.532 149.101 m 0,9,10
 259 149 259 149 227.225 74 c 0,11,12
 195 -0 195 -0 216.171 -147.83 c 0,13,-1
 278.255 -577.69 l 1,14,-1
 144.701 -686.582 l 1,15,-1
 91.4941 -107.594 l 2,16,17
 78 41 78 41 120.12 155.444 c 0,18,19
 162.834967611 268.56295667 162.834967611 268.56295667 286.442 289.901 c 2,20,-1
 293.04 291.04 l 1,21,22
 321 605 321 605 549 736.625922216 c 1,23,24
 913 601 913 601 940 343 c 0,25,26
 951 241 951 241 896.365234375 147.473632812 c 0,27,28
 889 135 889 135 661.138671875 142.41796875 c 0,29,30
 462 149 462 149 377.532 149.101 c 0,9,10
EndSplineSet
Substitution2: "'init' Initial Forms in Arabic lookup 13 subtable" uniFEE3
Substitution2: "'medi' Medial Forms in Arabic lookup 11 subtable" uniFEE4
Substitution2: "'fina' Terminal Forms in Arabic lookup 9 subtable" uniFEE2
EndChar

StartChar: uni0647
Encoding: 1607 1607 39
Width: 892
VWidth: 2379
GlyphClass: 2
Flags: W
AnchorPoint: "Anchor-10" 383.269 1140.46 basechar 0
AnchorPoint: "Anchor-7" 303.919 -265.102 basechar 0
LayerCount: 2
Fore
SplineSet
245.286132812 325.522460938 m 0,0,1
 209.517578125 195.866210938 209.517578125 195.866210938 346.002929688 152.266601562 c 0,2,3
 449.897460938 118.388671875 449.897460938 118.388671875 542.341796875 148.708984375 c 0,4,5
 551.821289062 151.754882812 551.821289062 151.754882812 560.334960938 155.327148438 c 0,6,7
 674.572265625 203.2578125 674.572265625 203.2578125 615.26953125 344.514648438 c 0,8,9
 562.868164062 469.223632812 562.868164062 469.223632812 425.540039062 583.874023438 c 2,10,-1
 424.166015625 585.020507812 l 1,11,-1
 422.96484375 583.69140625 l 2,12,13
 268.443359375 412.668945312 268.443359375 412.668945312 245.286132812 325.522460938 c 0,0,1
166.630859375 446.227539062 m 1,14,15
 230.427349776 564.934462602 230.427349776 564.934462602 361.0390625 680.458007812 c 2,16,-1
 362.712890625 681.938476562 l 1,17,-1
 333.290039062 705.9765625 l 1,18,-1
 406.577148438 840.321289062 l 1,19,20
 670 612 670 612 731 466 c 0,21,22
 848 187 848 187 655 46 c 0,23,24
 569 -17 569 -17 455.708984375 -16.083984375 c 0,25,26
 321 -15 321 -15 255 24 c 0,27,28
 140 91 140 91 117 208 c 0,29,30
 96 318 96 318 166.630859375 446.227539062 c 1,14,15
EndSplineSet
Substitution2: "'fina' Terminal Forms in Arabic lookup 9 subtable" uniFEEA
Substitution2: "'medi' Medial Forms in Arabic lookup 11 subtable" uniFEEC
Substitution2: "'init' Initial Forms in Arabic lookup 13 subtable" uniFEEB
EndChar

StartChar: uni0648
Encoding: 1608 1608 40
Width: 729
VWidth: 2401
GlyphClass: 2
Flags: W
AnchorPoint: "Anchor-10" 290.726 1069.28 basechar 0
AnchorPoint: "Anchor-7" 208.389 -777.803 basechar 0
LayerCount: 2
Fore
SplineSet
350.676757812 425.640625 m 5,0,1
 234.569335938 423.2734375 234.569335938 423.2734375 211.181640625 278.01953125 c 4,2,3
 195.553710938 184.18359375 195.553710938 184.18359375 271.116210938 153.548828125 c 4,4,5
 373.198242188 112.1640625 373.198242188 112.1640625 528.755859375 161.33203125 c 6,6,-1
 530.124023438 161.764648438 l 5,7,-1
 530.15234375 163.19921875 l 6,8,9
 531.784179688 246.219726562 531.784179688 246.219726562 501.62890625 312.5234375 c 4,10,11
 450.526367188 426.643554688 450.526367188 426.643554688 350.676757812 425.640625 c 5,0,1
334.118164062 -28.080078125 m 4,12,13
 211 -15 211 -15 153.71484375 74.58984375 c 4,14,15
 103 154 103 154 115.171875 272.18359375 c 4,16,17
 134 459 134 459 234.494140625 556.603515625 c 4,18,19
 290 610 290 610 388.325195312 601.614257812 c 4,20,21
 459 595 459 595 529.8203125 516.165039062 c 4,22,23
 615 422 615 422 636.083984375 248.463867188 c 5,24,25
 657 69 657 69 637.673828125 -30.9951171875 c 4,26,27
 571 -368 571 -368 395 -504 c 5,28,29
 219 -508 219 -508 20.21875 -464.548828125 c 5,30,31
 457 -339 457 -339 534.77734375 -15.9755859375 c 5,32,33
 446 -39 446 -39 334.118164062 -28.080078125 c 4,12,13
EndSplineSet
Substitution2: "'fina' Terminal Forms in Arabic lookup 9 subtable" uniFEEE
EndChar

StartChar: uni0649
Encoding: 1609 1609 41
Width: 1292
VWidth: 2398
GlyphClass: 2
Flags: W
AnchorPoint: "Anchor-10" 347.439 1051.17 basechar 0
AnchorPoint: "Anchor-7" 119.907 -627.29 basechar 0
LayerCount: 2
Fore
SplineSet
962.224609375 143.220703125 m 2,0,-1
 983.889648438 143.369140625 l 2,1,2
 1180 145 1180 145 1212 122 c 5,3,4
 1225 -22 1225 -22 1202.41015625 -147.470703125 c 1,5,6
 968 -422 968 -422 602.071289062 -421.5625 c 0,7,8
 90 -422 90 -422 91.6162109375 21.4111328125 c 0,9,10
 92 132 92 132 127.5 261 c 128,-1,11
 163 390 163 390 217.212890625 486.106445312 c 1,12,-1
 289 451 l 1,13,14
 208 239 208 239 208.5 114 c 128,-1,15
 209 -11 209 -11 254.466796875 -86.0234375 c 24,16,17
 353 -251 353 -251 651.224609375 -247.49609375 c 0,18,19
 709 -247 709 -247 745.151367188 -243.493164062 c 0,20,21
 996 -214 996 -214 1106.4296875 -90.6689453125 c 1,22,23
 1112 -22 1112 -22 1106 7.7919921875 c 5,24,25
 1086 16 1086 16 1023.65722656 15.5771484375 c 26,26,-1
 917.53125 15.8583984375 l 2,27,28
 789 16 789 16 753 45 c 0,29,30
 652.887072307 128.170739929 652.887072307 128.170739929 711 321 c 0,31,32
 799 609 799 609 1043.00976562 679.845703125 c 0,33,34
 1088 692 1088 692 1194.00976562 692.845703125 c 1,35,36
 1167 600 1167 600 1139 507 c 1,37,38
 1128 507 1128 507 1116.91308594 506.422851562 c 0,39,40
 939 507 939 507 852.021484375 408.081054688 c 0,41,42
 789.633933096 338.102706488 789.633933096 338.102706488 796.607421875 226.2578125 c 0,43,44
 802 143 802 143 962.224609375 143.220703125 c 2,0,-1
EndSplineSet
Substitution2: "'fina' Terminal Forms in Arabic lookup 9 subtable" uniFEF0
Substitution2: "'medi' Medial Forms in Arabic lookup 11 subtable" uniFBE9
Substitution2: "'init' Initial Forms in Arabic lookup 13 subtable" uniFBE8
EndChar

StartChar: uni064B
Encoding: 1611 1611 43
Width: 0
VWidth: 2186
GlyphClass: 4
Flags: W
AnchorPoint: "Anchor-10" 547.84 1041.5 mark 0
AnchorPoint: "Anchor-9" 547.84 1041.5 mark 0
AnchorPoint: "Anchor-1" 547.84 1576.5 basemark 0
AnchorPoint: "Anchor-1" 547.84 1041.5 mark 0
LayerCount: 2
Fore
SplineSet
273 993 m 5,0,-1
 273 1120 l 5,1,-1
 767 1322 l 5,2,-1
 767 1195 l 5,3,-1
 273 993 l 5,0,-1
273 1252 m 5,4,-1
 273 1379 l 5,5,-1
 767 1581 l 5,6,-1
 767 1454 l 5,7,-1
 273 1252 l 5,4,-1
EndSplineSet
EndChar

StartChar: uni064C
Encoding: 1612 1612 44
Width: 0
VWidth: 2186
GlyphClass: 4
Flags: W
AnchorPoint: "Anchor-10" 554.386 1155.44 mark 0
AnchorPoint: "Anchor-9" 554.386 1155.44 mark 0
AnchorPoint: "Anchor-1" 546.386 1810.94 basemark 0
AnchorPoint: "Anchor-1" 554.386 1155.44 mark 0
LayerCount: 2
Fore
SplineSet
670.422 1480.2 m 1,0,-1
 682.154 1507.57 l 2,1,2
 692.996 1532.87 692.996 1532.87 692.996 1561.63 c 0,3,4
 692.996 1605.09 692.996 1605.09 669.342 1624.56 c 0,5,6
 646.999 1642.97 646.999 1642.97 620.217 1642.97 c 0,7,8
 591.103 1642.97 591.103 1642.97 574.659 1630.22 c 0,9,10
 549.576 1611.34 549.576 1611.34 549.576 1574.47 c 0,11,12
 549.576 1524.73 549.576 1524.73 607.155 1501.69 c 0,13,14
 629.155 1492.89 629.155 1492.89 657.534 1484.17 c 2,15,-1
 670.422 1480.2 l 1,0,-1
568.602 1297.27 m 0,16,17
 610.027 1337.58 610.027 1337.58 633.634 1384.8 c 2,18,-1
 642.31 1402.15 l 1,19,20
 641.044 1402.42 641.044 1402.42 639.779 1402.69 c 2,21,-1
 623.328 1406.18 l 2,22,23
 590.272 1413.18 590.272 1413.18 567.491 1426.07 c 0,24,25
 459.736 1482.94 459.736 1482.94 459.736 1574.47 c 0,26,27
 459.736 1660.08 459.736 1660.08 527.565 1711.2 c 0,28,29
 553.526 1730.67 553.526 1730.67 615.937 1730.67 c 0,30,31
 687.944 1730.67 687.944 1730.67 726.337 1693.23 c 0,32,33
 780.696 1639.87 780.696 1639.87 780.696 1561.63 c 0,34,35
 780.696 1522.21 780.696 1522.21 768.553 1483.75 c 2,36,-1
 762.716 1465.28 l 1,37,-1
 782.07 1464.26 l 2,38,39
 802.18 1463.2 802.18 1463.2 817.802 1463.17 c 0,40,41
 830.147 1462.5 830.147 1462.5 843.826 1462.24 c 1,42,-1
 843.826 1374.45 l 1,43,44
 805.727 1374.75 805.727 1374.75 788.572 1376.47 c 2,45,-1
 722.005 1382.87 l 1,46,-1
 717.697 1372.77 l 2,47,48
 690.955 1310.03 690.955 1310.03 612.685 1228.63 c 1,49,50
 526.206 1141.14 526.206 1141.14 431.896 1141.14 c 0,51,52
 320.421 1141.14 320.421 1141.14 264.083 1296.08 c 0,53,54
 250.078 1334.35 250.078 1334.35 249.012 1440.7 c 1,55,-1
 315.318 1440.7 l 1,56,57
 316.285 1346.36 316.285 1346.36 329.495 1317.74 c 0,58,59
 370.988 1228.84 370.988 1228.84 431.896 1228.84 c 0,60,61
 497.884 1228.84 497.884 1228.84 568.602 1297.27 c 0,16,17
EndSplineSet
EndChar

StartChar: uni064D
Encoding: 1613 1613 45
Width: 0
VWidth: 2186
GlyphClass: 4
Flags: W
AnchorPoint: "Anchor-7" 531.84 75.5 mark 0
AnchorPoint: "Anchor-6" 531.84 75.5 mark 0
AnchorPoint: "Anchor-0" 547.84 -439.5 basemark 0
AnchorPoint: "Anchor-0" 531.84 75.5 mark 0
LayerCount: 2
Fore
SplineSet
276 -505 m 1,0,-1
 276 -378 l 1,1,-1
 770 -176 l 1,2,-1
 770 -303 l 1,3,-1
 276 -505 l 1,0,-1
276 -246 m 1,4,-1
 276 -119 l 1,5,-1
 770 83 l 1,6,-1
 770 -44 l 1,7,-1
 276 -246 l 1,4,-1
EndSplineSet
EndChar

StartChar: uni064E
Encoding: 1614 1614 46
Width: 0
VWidth: 2186
GlyphClass: 4
Flags: W
AnchorPoint: "Anchor-10" 517.84 1279.5 mark 0
AnchorPoint: "Anchor-9" 517.84 1279.5 mark 0
AnchorPoint: "Anchor-1" 517.84 1600.5 basemark 0
AnchorPoint: "Anchor-1" 517.84 1279.5 mark 0
LayerCount: 2
Fore
SplineSet
257 1251 m 1,0,-1
 257 1378 l 1,1,-1
 751 1580 l 1,2,-1
 751 1453 l 1,3,-1
 257 1251 l 1,0,-1
EndSplineSet
EndChar

StartChar: uni064F
Encoding: 1615 1615 47
Width: 0
VWidth: 2186
GlyphClass: 4
Flags: W
AnchorPoint: "Anchor-10" 531.84 1205.5 mark 0
AnchorPoint: "Anchor-9" 531.84 1205.5 mark 0
AnchorPoint: "Anchor-1" 547.84 1825 basemark 0
AnchorPoint: "Anchor-1" 531.84 1205.5 mark 0
LayerCount: 2
Fore
SplineSet
595.802 1428.58 m 2,0,1
 587.29 1430.47 587.29 1430.47 568.655 1440.28 c 0,2,3
 461.19 1496 461.19 1496 461.19 1588.53 c 0,4,5
 461.19 1674.14 461.19 1674.14 529.019 1725.26 c 0,6,7
 554.982 1744.73 554.982 1744.73 617.39 1744.73 c 0,8,9
 689.398 1744.73 689.398 1744.73 727.791 1707.29 c 0,10,11
 782.15 1653.93 782.15 1653.93 782.15 1575.69 c 0,12,13
 782.15 1543.74 782.15 1543.74 767.847 1497.75 c 2,14,-1
 762.152 1479.45 l 1,15,-1
 781.29 1478.32 l 2,16,17
 799.725 1477.24 799.725 1477.24 819.203 1476.7 c 0,18,19
 831.335 1476.36 831.335 1476.36 845.28 1476.23 c 1,20,-1
 845.28 1388.55 l 1,21,22
 816.15 1388.91 816.15 1388.91 789.588 1390.57 c 0,23,24
 757.693 1392.7 757.693 1392.7 728.127 1395.87 c 2,25,-1
 719.355 1396.8 l 1,26,-1
 718.677 1395.84 l 1,27,-1
 714.27 1389.59 l 2,28,29
 670.055 1326.86 670.055 1326.86 598.832 1283.51 c 0,30,31
 399.097 1160.69 399.097 1160.69 250.4 1154.44 c 1,32,-1
 250.4 1242.07 l 1,33,34
 410.533 1247.57 410.533 1247.57 556.014 1361.65 c 0,35,36
 581.485 1381.58 581.485 1381.58 602.585 1403.78 c 2,37,-1
 620.846 1423.02 l 1,38,-1
 595.802 1428.58 l 2,0,1
671.876 1494.26 m 1,39,-1
 683.608 1521.63 l 2,40,41
 694.45 1546.93 694.45 1546.93 694.45 1575.69 c 0,42,43
 694.45 1619.15 694.45 1619.15 670.796 1638.62 c 0,44,45
 648.453 1657.03 648.453 1657.03 621.67 1657.03 c 0,46,47
 592.557 1657.03 592.557 1657.03 576.113 1644.28 c 0,48,49
 551.03 1625.4 551.03 1625.4 551.03 1588.53 c 0,50,51
 551.03 1538.79 551.03 1538.79 608.609 1515.75 c 0,52,53
 630.608 1506.96 630.608 1506.96 658.988 1498.23 c 2,54,-1
 671.876 1494.26 l 1,39,-1
EndSplineSet
EndChar

StartChar: uni0650
Encoding: 1616 1616 48
Width: 0
VWidth: 2186
GlyphClass: 4
Flags: W
AnchorPoint: "Anchor-7" 467.84 -12.5 mark 0
AnchorPoint: "Anchor-6" 467.84 -12.5 mark 0
AnchorPoint: "Anchor-0" 556.84 -311.5 basemark 0
AnchorPoint: "Anchor-0" 467.84 -12.5 mark 0
LayerCount: 2
Fore
SplineSet
274 -353 m 1,0,-1
 274 -226 l 1,1,-1
 768 -24 l 1,2,-1
 768 -151 l 1,3,-1
 274 -353 l 1,0,-1
EndSplineSet
EndChar

StartChar: uni0651
Encoding: 1617 1617 49
Width: 0
VWidth: 2186
GlyphClass: 4
Flags: W
AnchorPoint: "Anchor-10" 547.84 1316.5 mark 0
AnchorPoint: "Anchor-9" 547.84 1316.5 mark 0
AnchorPoint: "Anchor-1" 535.84 1779.5 basemark 0
AnchorPoint: "Anchor-1" 547.84 1316.5 mark 0
LayerCount: 2
Fore
SplineSet
417 1320 m 0,0,1
 339 1318 339 1318 293 1373 c 0,2,3
 259.478043169 1413.50569784 259.478043169 1413.50569784 259.21484375 1501.87011719 c 4,4,5
 259 1570 259 1570 274.154296875 1601.36035156 c 1,6,-1
 350.9453125 1601.36035156 l 1,7,8
 334 1544 334 1544 335.888671875 1494.79980469 c 0,9,10
 339.853616162 1404.90967398 339.853616162 1404.90967398 417.077148438 1403.09960938 c 0,11,12
 500 1401 500 1401 508.261 1518.4 c 0,13,14
 510 1545 510 1545 510.397460938 1639.83007812 c 1,15,-1
 587.049804688 1639.83007812 l 1,16,17
 587 1566 587 1566 587.340820312 1558.46972656 c 0,18,19
 593 1450 593 1450 668.13671875 1452.59960938 c 1,20,21
 750 1454 750 1454 740.651367188 1592.25976562 c 0,22,23
 732 1713 732 1713 731.6640625 1717.28027344 c 1,24,-1
 810.953125 1717.28027344 l 1,25,26
 822 1642 822 1642 821.7421875 1566.49023438 c 0,27,28
 822 1490 822 1490 797 1439 c 0,29,30
 763 1369 763 1369 681 1365 c 0,31,32
 609.14301449 1362.00595894 609.14301449 1362.00595894 556.441 1432.29 c 2,33,-1
 554.049 1435.48 l 1,34,-1
 552.922 1431.66 l 2,35,36
 521 1323 521 1323 417 1320 c 0,0,1
EndSplineSet
EndChar

StartChar: uni0652
Encoding: 1618 1618 50
Width: 0
VWidth: 2186
GlyphClass: 4
Flags: W
AnchorPoint: "Anchor-10" 565.84 1128.5 mark 0
AnchorPoint: "Anchor-9" 565.84 1128.5 mark 0
AnchorPoint: "Anchor-1" 551.84 1702 basemark 0
AnchorPoint: "Anchor-1" 565.84 1128.5 mark 0
LayerCount: 2
Fore
SplineSet
676.569 1383.62 m 0,0,1
 676.569 1428.98 676.569 1428.98 644.853 1460.69 c 128,-1,2
 613.14 1492.41 613.14 1492.41 567.126 1492.41 c 0,3,4
 520.454 1492.41 520.454 1492.41 489.071 1461.02 c 128,-1,5
 457.685 1429.64 457.685 1429.64 457.685 1383.62 c 0,6,7
 457.685 1336.95 457.685 1336.95 489.071 1305.57 c 128,-1,8
 520.454 1274.18 520.454 1274.18 567.126 1274.18 c 0,9,10
 613.143 1274.18 613.143 1274.18 644.853 1305.9 c 128,-1,11
 676.569 1337.61 676.569 1337.61 676.569 1383.62 c 0,0,1
748.396 1383.73 m 128,-1,13
 748.396 1307.7 748.396 1307.7 695.897 1254.87 c 128,-1,14
 643.429 1202.07 643.429 1202.07 567.436 1202.07 c 128,-1,15
 491.444 1202.07 491.444 1202.07 438.976 1254.87 c 128,-1,16
 386.476 1307.7 386.476 1307.7 386.476 1383.73 c 128,-1,17
 386.476 1459.73 386.476 1459.73 438.951 1512.22 c 128,-1,18
 491.421 1564.69 491.421 1564.69 567.436 1564.69 c 128,-1,19
 643.451 1564.69 643.451 1564.69 695.921 1512.22 c 128,-1,12
 748.396 1459.73 748.396 1459.73 748.396 1383.73 c 128,-1,13
EndSplineSet
EndChar

StartChar: uni0653
Encoding: 1619 1619 51
Width: 0
VWidth: 2186
GlyphClass: 4
Flags: W
AnchorPoint: "Anchor-10" 442.84 1264.52 mark 0
AnchorPoint: "Anchor-9" 442.84 1264.52 mark 0
AnchorPoint: "Anchor-1" 442.84 1600.5 basemark 0
AnchorPoint: "Anchor-1" 442.84 1264.52 mark 0
LayerCount: 2
Fore
SplineSet
290.272177831 1329.03030953 m 0,0,1
 245 1335 245 1335 181.704 1248.08 c 1,2,3
 170 1278 170 1278 178 1331 c 0,4,5
 193 1422 193 1422 280.802540894 1421.34242094 c 0,6,7
 310 1421 310 1421 348.338961122 1412.56770931 c 0,8,9
 386 1404 386 1404 435.795223795 1403.79299769 c 0,10,11
 582 1404 582 1404 626.609 1471.88 c 1,12,13
 630 1432 630 1432 626 1413 c 0,14,15
 603 1316 603 1316 450.340272596 1317.47081081 c 0,16,17
 399 1318 399 1318 356 1322 c 0,18,19
 305 1327 305 1327 290.272177831 1329.03030953 c 0,0,1
EndSplineSet
EndChar

StartChar: uni0657
Encoding: 1623 1623 54
Width: 0
VWidth: 2186
GlyphClass: 4
Flags: W
AnchorPoint: "Anchor-10" 547.84 1279.5 mark 0
AnchorPoint: "Anchor-9" 547.84 1279.5 mark 0
AnchorPoint: "Anchor-1" 547.84 1975 basemark 0
AnchorPoint: "Anchor-1" 547.84 1279.5 mark 0
LayerCount: 2
Fore
SplineSet
500.654 1673.61 m 2,0,1
 508.38 1671.9 508.38 1671.9 527.024 1662.09 c 0,2,3
 634.49 1606.36 634.49 1606.36 634.49 1513.83 c 0,4,5
 634.49 1428.21 634.49 1428.21 566.66 1377.1 c 0,6,7
 540.699 1357.63 540.699 1357.63 478.29 1357.63 c 0,8,9
 406.283 1357.63 406.283 1357.63 367.888 1395.07 c 0,10,11
 313.53 1448.43 313.53 1448.43 313.53 1526.67 c 0,12,13
 313.53 1558.64 313.53 1558.64 327.833 1604.61 c 2,14,-1
 333.527 1622.91 l 1,15,-1
 314.389 1624.04 l 2,16,17
 295.956 1625.12 295.956 1625.12 276.476 1625.66 c 0,18,19
 264.344 1626 264.344 1626 250.4 1626.13 c 1,20,-1
 250.4 1713.81 l 1,21,22
 279.53 1713.45 279.53 1713.45 306.093 1711.79 c 0,23,24
 337.904 1709.67 337.904 1709.67 367.554 1706.5 c 2,25,-1
 376.326 1705.56 l 1,26,-1
 381.41 1712.77 l 2,27,28
 425.626 1775.5 425.626 1775.5 496.849 1818.85 c 0,29,30
 696.592 1941.67 696.592 1941.67 845.28 1947.92 c 1,31,-1
 845.28 1860.29 l 1,32,33
 685.146 1854.79 685.146 1854.79 539.665 1740.71 c 0,34,35
 514.18 1720.76 514.18 1720.76 493.095 1698.58 c 2,36,-1
 474.836 1679.36 l 1,37,-1
 500.654 1673.61 l 2,0,1
423.805 1608.1 m 1,38,-1
 412.073 1580.73 l 2,39,40
 401.23 1555.43 401.23 1555.43 401.23 1526.67 c 0,41,42
 401.23 1483.22 401.23 1483.22 424.883 1463.74 c 0,43,44
 447.23 1445.33 447.23 1445.33 474.01 1445.33 c 0,45,46
 503.122 1445.33 503.122 1445.33 519.569 1458.08 c 0,47,48
 544.65 1476.96 544.65 1476.96 544.65 1513.83 c 0,49,50
 544.65 1563.57 544.65 1563.57 487.071 1586.61 c 0,51,52
 465.089 1595.4 465.089 1595.4 436.693 1604.13 c 2,53,-1
 423.805 1608.1 l 1,38,-1
EndSplineSet
EndChar

StartChar: uni065A
Encoding: 1626 1626 55
Width: 1149
VWidth: 2295
GlyphClass: 4
Flags: W
AnchorPoint: "Anchor-10" 575.232 1343.47 mark 0
AnchorPoint: "Anchor-9" 575.232 1343.47 mark 0
AnchorPoint: "Anchor-1" 572.985 1849.05 basemark 0
AnchorPoint: "Anchor-1" 575.232 1343.47 mark 0
LayerCount: 2
Fore
SplineSet
500.968 1428.78 m 1,0,-1
 300.608 1763.74 l 1,1,-1
 420.802 1763.74 l 1,2,-1
 575.232 1532.09 l 1,3,-1
 729.661 1763.74 l 1,4,-1
 849.856 1763.74 l 1,5,-1
 649.494 1428.78 l 1,6,-1
 500.968 1428.78 l 1,0,-1
EndSplineSet
EndChar

StartChar: afii57392
Encoding: 1632 1632 56
Width: 1255
VWidth: 2266
GlyphClass: 2
Flags: W
LayerCount: 2
Fore
SplineSet
521.81640625 529.176757812 m 132,-1,1
 521.81640625 485.012695312 521.81640625 485.012695312 553.458007812 453.37109375 c 132,-1,2
 585.1015625 421.728515625 585.1015625 421.728515625 629.264648438 421.728515625 c 132,-1,3
 673.430664062 421.728515625 673.430664062 421.728515625 705.071289062 453.37109375 c 132,-1,4
 736.71484375 485.013671875 736.71484375 485.013671875 736.71484375 529.176757812 c 132,-1,5
 736.71484375 573.337890625 736.71484375 573.337890625 705.071289062 604.982421875 c 132,-1,6
 673.4296875 636.626953125 673.4296875 636.626953125 629.264648438 636.626953125 c 132,-1,7
 585.103515625 636.626953125 585.103515625 636.626953125 553.458007812 604.982421875 c 132,-1,0
 521.81640625 573.336914062 521.81640625 573.336914062 521.81640625 529.176757812 c 132,-1,1
379.551757812 526.005859375 m 132,-1,9
 379.551757812 631.044921875 379.551757812 631.044921875 453.708007812 705.634765625 c 132,-1,10
 527.810546875 780.172851562 527.810546875 780.172851562 632.122070312 780.172851562 c 132,-1,11
 736.435546875 780.172851562 736.435546875 780.172851562 810.538085938 705.634765625 c 132,-1,12
 884.693359375 631.04296875 884.693359375 631.04296875 884.693359375 526.005859375 c 132,-1,13
 884.693359375 420.958984375 884.693359375 420.958984375 810.538085938 346.376953125 c 132,-1,14
 736.430664062 271.842773438 736.430664062 271.842773438 632.122070312 271.842773438 c 132,-1,15
 527.809570312 271.842773438 527.809570312 271.842773438 453.708007812 346.376953125 c 132,-1,8
 379.551757812 420.966796875 379.551757812 420.966796875 379.551757812 526.005859375 c 132,-1,9
EndSplineSet
EndChar

StartChar: afii57393
Encoding: 1633 1633 57
Width: 735
VWidth: 2264
GlyphClass: 2
Flags: W
LayerCount: 2
Fore
SplineSet
416.470703125 -39.5224609375 m 1,1,2
 375.430664062 727.828125 375.430664062 727.828125 180.485351562 1254.83984375 c 1,3,-1
 307.8828125 1410.8203125 l 1,4,5
 525.03515625 963.40625 525.03515625 963.40625 516.869140625 194.888671875 c 0,6,7
 515 19 515 19 416.470703125 -39.5224609375 c 1,1,2
EndSplineSet
EndChar

StartChar: afii57394
Encoding: 1634 1634 58
Width: 1248
VWidth: 2121
GlyphClass: 2
Flags: W
LayerCount: 2
Fore
SplineSet
291.41 1412.45 m 5,0,1
 336.14 1302.85 336.14 1302.85 370.551 1236.11 c 4,2,3
 453.152 1077.02 453.152 1077.02 606.697 1060.43 c 4,4,5
 860.306 1032.53 860.306 1032.53 921.727 1258.57 c 4,6,7
 940.632 1328.14 940.632 1328.14 956.018 1410.09 c 5,8,-1
 1067.55 1374.39 l 5,9,10
 1066.67 1313.18 1066.67 1313.18 1036.43 1199.07 c 4,11,12
 953.443 885.995 953.443 885.995 659.068 872.686 c 4,13,14
 563.938 868.379 563.938 868.379 505.106 887.191 c 6,15,-1
 501.332 888.398 l 5,16,-1
 502.603 884.645 l 6,17,18
 587.165 634.796 587.165 634.796 586.311 239.692 c 4,19,20
 585.762998903 -9.89067969307 585.762998903 -9.89067969307 474.61 -39.1859 c 5,21,22
 466.011 410.857 466.011 410.857 356.174 808.142 c 4,23,24
 319.543 939.901 319.543 939.901 156.537 1310.34 c 5,25,-1
 291.41 1412.45 l 5,0,1
EndSplineSet
EndChar

StartChar: afii57395
Encoding: 1635 1635 59
Width: 1255
VWidth: 2121
GlyphClass: 2
Flags: W
LayerCount: 2
Fore
SplineSet
451.663 887.011 m 6,0,1
 537.242 637.022 537.242 637.022 536.391 241.043 c 4,2,3
 535.839007806 -10.2747458617 535.839007806 -10.2747458617 422.634 -40.1145 c 5,4,5
 414.006 409.968 414.006 409.968 304.196 808.236 c 4,6,7
 267.562 940.003 267.562 940.003 104.559 1310.43 c 5,8,-1
 239.433 1412.54 l 5,9,10
 272.59 1331.43 272.59 1331.43 318.547 1236.24 c 4,11,12
 393.082 1081.87 393.082 1081.87 502.784 1064.07 c 4,13,14
 587.101 1050.37 587.101 1050.37 637.289 1092.59 c 4,15,16
 699.349 1144.78 699.349 1144.78 699.647 1340.13 c 5,17,-1
 794.293 1364.35 l 5,18,19
 796.771 1178.11 796.771 1178.11 808.499 1147.93 c 4,20,21
 841.871 1061.25 841.871 1061.25 926.275 1060.43 c 5,22,23
 1042 1060.71 1042 1060.71 1069.59 1196 c 4,24,25
 1087.95 1285.3 1087.95 1285.3 1086.03 1421.15 c 5,26,-1
 1207.56 1396.71 l 5,27,28
 1210.06 1256.52 1210.06 1256.52 1182.2 1132.46 c 4,29,30
 1129.8 897.481 1129.8 897.481 960.159 885.628 c 4,31,32
 821.07 875.268 821.07 875.268 754.509 1005.33 c 6,33,-1
 752.513 1009.23 l 5,34,-1
 750.874 1005.17 l 6,35,36
 704.106 889.203 704.106 889.203 552.57 874.755 c 4,37,38
 518.702 871.528 518.702 871.528 454.093 889.585 c 6,39,-1
 450.431 890.609 l 5,40,-1
 451.663 887.011 l 6,0,1
EndSplineSet
EndChar

StartChar: afii57396
Encoding: 1636 1636 60
Width: 1033
VWidth: 2261
GlyphClass: 2
Flags: W
LayerCount: 2
Fore
SplineSet
646 1240.28710938 m 5,0,1
 377 1064 377 1064 348 943 c 5,2,3
 462 862 462 862 714 796 c 5,4,5
 709 740 709 740 705 685 c 5,6,7
 490 565 490 565 345 313 c 5,8,9
 534 220 534 220 826 250 c 5,10,-1
 853 48 l 5,11,12
 417 16 417 16 180 202 c 5,13,14
 201 496 201 496 459 703 c 5,15,16
 242 812 242 812 192 880 c 5,17,18
 240 1213 240 1213 625.545898438 1368.75683594 c 5,19,20
 640 1344 640 1344 646 1240.28710938 c 5,0,1
EndSplineSet
EndChar

StartChar: afii57397
Encoding: 1637 1637 61
Width: 1255
VWidth: 2263
GlyphClass: 2
Flags: W
LayerCount: 2
Fore
SplineSet
375.48046875 703.51171875 m 0,0,1
 309 580 309 580 301 456.684570312 c 0,2,3
 293 329 293 329 394 258 c 0,4,5
 486 194 486 194 650.13671875 203.36328125 c 0,6,7
 842 215 842 215 900 315 c 0,8,9
 946 393 946 393 936.719726562 490.192382812 c 0,10,11
 922 635 922 635 771 812 c 0,12,13
 663 939 663 939 584 980 c 1,14,15
 459 856 459 856 375.48046875 703.51171875 c 0,0,1
531.424804688 1221.86035156 m 5,16,17
 647 1155 647 1155 762.158203125 1053.4296875 c 0,18,19
 902 929 902 929 980.3359375 799.8984375 c 1,20,21
 1083 633 1083 633 1092.8203125 474.625976562 c 0,22,23
 1104 276 1104 276 999.428710938 157.44921875 c 0,24,25
 879 21 879 21 629.501 22.1289 c 1,26,27
 375 22 375 22 261.689 155.312 c 0,28,29
 156 280 156 280 177.326171875 474.111328125 c 0,30,31
 196 643 196 643 291 800 c 0,32,33
 373 937 373 937 488.166015625 1055.66015625 c 1,34,-1
 452.784179688 1078 l 1,35,-1
 531.424804688 1221.86035156 l 5,16,17
EndSplineSet
EndChar

StartChar: afii57398
Encoding: 1638 1638 62
Width: 1255
VWidth: 2263
GlyphClass: 2
Flags: W
LayerCount: 2
Fore
SplineSet
927.213 1345.77 m 1,0,1
 928.492 1066.47 928.492 1066.47 970.158 686.313 c 0,2,3
 1004.36 374.251 1004.36 374.251 1106.07 -38.2646 c 1,4,5
 925.843 -38.2646 925.843 -38.2646 884.686 180.513 c 4,6,7
 833.428 448.048 833.428 448.048 811.083 690.573 c 0,8,9
 777.481 1048.12 777.481 1048.12 776.397 1126.05 c 2,10,-1
 776.004 1154.3 l 1,11,-1
 748.878 1146.39 l 2,12,13
 650.119 1117.61 650.119 1117.61 491.769 1117.61 c 0,14,15
 372.048 1117.61 372.048 1117.61 259.007 1133.95 c 0,16,17
 100.539 1156.26 100.539 1156.26 100.539 1293.46 c 2,18,-1
 100.539 1344.86 l 1,19,20
 297.962 1293.46 297.962 1293.46 478.989 1293.46 c 0,21,22
 698.033 1293.46 698.033 1293.46 927.213 1345.77 c 1,0,1
EndSplineSet
EndChar

StartChar: afii57399
Encoding: 1639 1639 63
Width: 1255
VWidth: 2264
GlyphClass: 2
Flags: W
LayerCount: 2
Fore
SplineSet
963.75 1367.34 m 1,0,-1
 1074.66 1229.68 l 5,1,2
 903 950 903 950 821 601 c 4,3,4
 707.40774226 125.137593398 707.40774226 125.137593398 687.813 -30.6084 c 1,5,-1
 555.014 -30.6084 l 1,6,7
 552 120 552 120 422.172 637.388 c 0,8,9
 344 949 344 949 151.604 1229.63 c 1,10,-1
 271.672 1367.46 l 1,11,12
 423 1178 423 1178 539.158 758.522 c 0,13,14
 604 525 604 525 618.793 368.91 c 1,15,-1
 622.778 368.943 l 1,16,17
 632 482 632 482 705.507 759.033 c 0,18,19
 815 1171 815 1171 963.75 1367.34 c 1,0,-1
EndSplineSet
EndChar

StartChar: afii57400
Encoding: 1640 1640 64
Width: 1255
VWidth: 2264
GlyphClass: 2
Flags: W
LayerCount: 2
Fore
SplineSet
963.75 -28.3653 m 1,0,1
 813 170 813 170 705.509 579.922 c 0,2,3
 633 857 633 857 622.777 980.526 c 1,4,-1
 618.795 980.573 l 1,5,6
 600 801 600 801 539.158 580.441 c 0,7,8
 423 161 423 161 271.672 -28.4919 c 1,9,-1
 151.605 109.325 l 1,10,11
 344 390 344 390 422.173 701.574 c 0,12,13
 553 1220 553 1220 555.016 1369.58 c 1,14,-1
 687.823 1369.58 l 1,15,16
 709.325348863 1211.01586346 709.325348863 1211.01586346 828 711 c 4,17,18
 903 395 903 395 1074.66 109.279 c 1,19,-1
 963.75 -28.3653 l 1,0,1
EndSplineSet
EndChar

StartChar: afii57401
Encoding: 1641 1641 65
Width: 1255
VWidth: 2264
GlyphClass: 2
Flags: W
LayerCount: 2
Fore
SplineSet
604.984 620.476 m 0,0,1
 330.072 637.421 330.072 637.421 222.22 763.253 c 0,2,3
 134.924 866.281 134.924 866.281 134.924 984.25 c 0,4,5
 134.924 1152.09 134.924 1152.09 235.564 1262.46 c 0,6,7
 351.045 1389.13 351.045 1389.13 538.878 1389.13 c 0,8,9
 706.98 1389.13 706.98 1389.13 792.421 1306.75 c 0,10,11
 920.565 1182.1 920.565 1182.1 935.547 980.956 c 0,12,13
 947.457 820.142 947.457 820.142 968.105 649.578 c 0,14,15
 1008.71 304.748 1008.71 304.748 1097.7 -40.4473 c 1,16,17
 940.215 -40.4473 940.215 -40.4473 890.448 209.781 c 4,18,19
 865.361 335.915 865.361 335.915 825.821 619.852 c 2,20,-1
 825.562 621.713 l 1,21,-1
 823.688 621.57 l 2,22,23
 717.597 613.479 717.597 613.479 604.984 620.476 c 0,0,1
807.822 790.328 m 1,24,-1
 800.536 897.433 l 2,25,26
 790.708 1041.91 790.708 1041.91 748.159 1106.22 c 1,27,28
 664.082 1224.3 664.082 1224.3 538.542 1224.3 c 0,29,30
 438.288 1224.3 438.288 1224.3 365.954 1154.53 c 0,31,32
 298.872 1089.83 298.872 1089.83 294.46 994.233 c 0,33,34
 290.106 907.03 290.106 907.03 362.832 843.747 c 0,35,36
 400.507 810.965 400.507 810.965 496.165 794.196 c 0,37,38
 629.956 770.734 629.956 770.734 805.915 790.118 c 2,39,-1
 807.822 790.328 l 1,24,-1
EndSplineSet
EndChar

StartChar: afii57381
Encoding: 1642 1642 66
Width: 1177
VWidth: 2186
GlyphClass: 2
Flags: W
LayerCount: 2
Fore
SplineSet
457.39 1287.05 m 2,0,-1
 457.39 1158.05 l 2,1,2
 457.39 1123.05 457.39 1123.05 429.39 1123.04 c 2,3,-1
 302.391 1123.05 l 2,4,5
 270.39 1123.05 270.39 1123.05 270.39 1159.05 c 2,6,-1
 270.39 1287.05 l 2,7,8
 270.39 1317.05 270.39 1317.05 306.39 1317.05 c 2,9,-1
 421.39 1317.05 l 2,10,11
 457.39 1317.05 457.39 1317.05 457.39 1287.05 c 2,0,-1
909.192 233.849 m 2,12,-1
 909.192 104.849 l 2,13,14
 909.192 69.8477 909.192 69.8477 881.192 69.8477 c 2,15,-1
 754.192 69.8477 l 2,16,17
 722.192 69.8477 722.192 69.8477 722.192 105.848 c 2,18,-1
 722.192 233.849 l 2,19,20
 722.192 263.848 722.192 263.848 758.192 263.848 c 2,21,-1
 873.192 263.848 l 2,22,23
 909.192 263.848 909.192 263.848 909.192 233.849 c 2,12,-1
872.25 1370.81 m 1,24,-1
 980.303 1315.14 l 1,25,-1
 300.167 2.73976 l 1,26,-1
 192.675 61.812 l 1,27,-1
 872.25 1370.81 l 1,24,-1
EndSplineSet
EndChar

StartChar: uni066B
Encoding: 1643 1643 67
Width: 711
VWidth: 2186
GlyphClass: 2
Flags: W
LayerCount: 2
Fore
SplineSet
444.346 500.131 m 1,0,-1
 565.334 499.229 l 1,1,2
 340.456 113.258 340.456 113.258 128.896 -228.25 c 1,3,-1
 5.16701 -226.551 l 1,4,5
 100.063 -73.9085 100.063 -73.9085 444.346 500.131 c 1,0,-1
EndSplineSet
EndChar

StartChar: uni066C
Encoding: 1644 1644 68
Width: 696
VWidth: 2186
GlyphClass: 2
Flags: W
LayerCount: 2
Fore
SplineSet
293.2 1578.01 m 1,0,-1
 488.97 1578.01 l 1,1,-1
 488.97 1434 l 1,2,-1
 319.336 1104.04 l 1,3,-1
 209.804 1104.04 l 1,4,-1
 293.2 1428.48 l 1,5,-1
 293.2 1578.01 l 1,0,-1
EndSplineSet
EndChar

StartChar: afii63167
Encoding: 1645 1645 69
Width: 1194
VWidth: 2186
GlyphClass: 2
Flags: W
LayerCount: 2
Fore
SplineSet
139.026 792.63 m 1,0,-1
 488.081 792.63 l 1,1,-1
 597.061 1124.43 l 1,2,-1
 706.039 792.63 l 1,3,-1
 1055.1 792.63 l 1,4,-1
 773.103 586.484 l 1,5,-1
 880.997 255.023 l 1,6,-1
 597.061 460.197 l 1,7,-1
 313.123 255.023 l 1,8,-1
 421.017 586.484 l 1,9,-1
 139.026 792.63 l 1,0,-1
EndSplineSet
EndChar

StartChar: uni066E
Encoding: 1646 1646 70
Width: 1615
VWidth: 2383
GlyphClass: 2
Flags: W
AnchorPoint: "Anchor-10" 715.642 1126.35 basechar 0
AnchorPoint: "Anchor-7" 459.653 -276.595 basechar 0
LayerCount: 2
Fore
SplineSet
1300.83007812 653.259765625 m 1,0,-1
 1448.19042969 786.965820312 l 1,1,2
 1513 591 1513 591 1523.87011719 415.086914062 c 0,3,4
 1539 179 1539 179 1416.69042969 106.061523438 c 0,5,6
 1288 29 1288 29 1056.63964844 -1.4423828125 c 0,7,8
 959 -14 959 -14 890.971679688 -17.58203125 c 0,9,10
 480 -37 480 -37 284.478 64.4316 c 0,11,12
 85 169 85 169 91.8682 479.387 c 0,13,14
 95 610 95 610 147.912 715.666 c 1,15,-1
 203.104 687.347 l 1,16,17
 193 649 193 649 186.009 582.925 c 1,18,19
 181 511 181 511 182.554 476.195 c 0,20,21
 192 217 192 217 570.939 180.429 c 0,22,23
 720 166 720 166 930.290039062 168.690429688 c 1,24,25
 1082 174 1082 174 1166.99023438 191.001953125 c 0,26,27
 1303 218 1303 218 1386.3203125 263.478515625 c 0,28,29
 1449 298 1449 298 1413.09960938 392.40234375 c 1,30,-1
 1300.83007812 653.259765625 l 1,0,-1
EndSplineSet
Substitution2: "'init' Initial Forms in Arabic lookup 13 subtable" uni066E.init
Substitution2: "'medi' Medial Forms in Arabic lookup 11 subtable" uni066E.medi
Substitution2: "'fina' Terminal Forms in Arabic lookup 9 subtable" uni066E.fina
EndChar

StartChar: uni066F
Encoding: 1647 1647 71
Width: 1285
VWidth: 2401
GlyphClass: 2
Flags: W
AnchorPoint: "Anchor-10" 439.138 961.65 basechar 0
AnchorPoint: "Anchor-7" 269.151 -596.124 basechar 0
LayerCount: 2
Fore
SplineSet
905.66015625 531.200195312 m 5,0,1
 791.84765625 528.87890625 791.84765625 528.87890625 766.173828125 383.586914062 c 4,2,3
 748.798828125 282.033203125 748.798828125 282.033203125 828.1484375 255.58203125 c 4,4,5
 939.035129275 218.620451729 939.035129275 218.620451729 1085.11035156 267.34765625 c 5,6,7
 1086.85940213 351.593591853 1086.85940213 351.593591853 1056.62011719 418.083007812 c 4,8,9
 1005.50976562 532.205078125 1005.50976562 532.205078125 905.66015625 531.200195312 c 5,0,1
1169 -69 m 4,10,11
 1076 -419 1076 -419 662 -428 c 4,12,13
 308 -435 308 -435 161.801757812 -233.446289062 c 4,14,15
 49 -77 49 -77 110.139648438 173.076171875 c 4,16,17
 147 326 147 326 206.447265625 476.237304688 c 5,18,-1
 285.178710938 431.889648438 l 5,19,20
 166 135 166 135 235.475585938 -38.7236328125 c 4,21,22
 318 -247 318 -247 645.401367188 -253.6640625 c 4,23,24
 1036 -262 1036 -262 1076.16015625 89.4228515625 c 5,25,26
 995 68 995 68 880.961424325 78.5034531101 c 132,-1,27
 767 89 767 89 712.5 174.5 c 132,-1,28
 658 260 658 260 670.159179688 377.728515625 c 4,29,30
 690 566 690 566 789.484375 662.162109375 c 4,31,32
 845 716 845 716 929.5 708.5 c 132,-1,33
 1014 701 1014 701 1092.5 613.5 c 4,34,35
 1172 525 1172 525 1194.5 328 c 4,36,37
 1218 118 1218 118 1169 -69 c 4,10,11
EndSplineSet
Substitution2: "'init' Initial Forms in Arabic lookup 13 subtable" uni066F.init
Substitution2: "'medi' Medial Forms in Arabic lookup 11 subtable" uni066F.medi
Substitution2: "'fina' Terminal Forms in Arabic lookup 9 subtable" uni066F.fina
EndChar

StartChar: uni0670
Encoding: 1648 1648 72
Width: 0
VWidth: 2186
GlyphClass: 4
Flags: W
AnchorPoint: "Anchor-10" 547.84 1279.5 mark 0
AnchorPoint: "Anchor-9" 547.84 1279.5 mark 0
AnchorPoint: "Anchor-1" 547.84 1884 basemark 0
AnchorPoint: "Anchor-1" 547.84 1279.5 mark 0
LayerCount: 2
Fore
SplineSet
527.887 1329.81 m 1,0,-1
 504.051 1780.58 l 1,1,-1
 591.69 1832.19 l 1,2,-1
 591.69 1329.81 l 1,3,-1
 527.887 1329.81 l 1,0,-1
EndSplineSet
EndChar

StartChar: uni0674
Encoding: 1652 1652 73
Width: 639
VWidth: 2186
GlyphClass: 2
Flags: W
LayerCount: 2
Fore
SplineSet
145.54 1513.67 m 1,0,-1
 260.506 1540.2 l 1,1,-1
 255.134 1542.64 l 2,2,3
 147.68 1591.5 147.68 1591.5 147.68 1692.52 c 0,4,5
 147.68 1764.89 147.68 1764.89 207.315 1817.49 c 0,6,7
 257.742 1861.48 257.742 1861.48 343 1862 c 0,8,9
 409.565 1862 409.565 1862 460.08 1832.66 c 1,10,-1
 460.08 1759.96 l 1,11,12
 391.561 1791.91 391.561 1791.91 336.842 1786.29 c 0,13,14
 224.701 1774.86 224.701 1774.86 218.267 1701.25 c 0,15,16
 210.514 1611.48 210.514 1611.48 329.581 1575.42 c 0,17,18
 365.845 1564.43 365.845 1564.43 482.55 1591.18 c 1,19,-1
 482.55 1513 l 1,20,-1
 145.54 1437.34 l 1,21,-1
 145.54 1513.67 l 1,0,-1
EndSplineSet
EndChar

StartChar: uni06A1
Encoding: 1697 1697 77
Width: 1620
VWidth: 2401
GlyphClass: 2
Flags: W
AnchorPoint: "Anchor-10" 504.587 1313.37 basechar 0
AnchorPoint: "Anchor-7" 623.678 -220.525 basechar 0
LayerCount: 2
Fore
SplineSet
1241.45019531 753.254882812 m 1,0,1
 1127.63964844 750.93359375 1127.63964844 750.93359375 1101.95996094 605.642578125 c 0,2,3
 1086.23046875 513.727539062 1086.23046875 513.727539062 1163.74023438 477.71484375 c 1,4,5
 1269.79574583 429.990451115 1269.79574583 429.990451115 1420.90039062 489.48046875 c 1,6,7
 1422.74307275 573.445350988 1422.74307275 573.445350988 1392.41015625 640.137695312 c 0,8,9
 1341.29980469 754.259765625 1341.29980469 754.259765625 1241.45019531 753.254882812 c 1,0,1
1421.20019531 314.407226562 m 5,10,11
 1330 291 1330 291 1216 302 c 128,-1,12
 1102 313 1102 313 1048 396.5 c 128,-1,13
 994 480 994 480 1005.95019531 599.797851562 c 0,14,15
 1025 787 1025 787 1125.26953125 884.215820312 c 0,16,17
 1181 938 1181 938 1265.5 930.5 c 128,-1,18
 1350 923 1350 923 1429.5 834.5 c 128,-1,19
 1509 746 1509 746 1527.5 565.5 c 128,-1,20
 1546 385 1546 385 1528.4296875 296.51953125 c 0,21,22
 1495 130 1495 130 1358.21972656 54.0439453125 c 0,23,24
 1241 -11 1241 -11 910.989257812 -19.681640625 c 0,25,26
 450 -33 450 -33 285.432617188 53.4638671875 c 0,27,28
 85 159 85 159 91.8681640625 479.385742188 c 0,29,30
 95 610 95 610 147.909179688 715.661132812 c 1,31,-1
 202.692382812 687.350585938 l 1,32,33
 178 600 178 600 182.553710938 476.178710938 c 0,34,35
 192 229 192 229 548.811523438 176.763671875 c 0,36,37
 636 164 636 164 946.450195312 164.081054688 c 1,38,39
 1412 159 1412 159 1421.20019531 314.407226562 c 5,10,11
EndSplineSet
Substitution2: "'init' Initial Forms in Arabic lookup 13 subtable" uni06A1.init
Substitution2: "'medi' Medial Forms in Arabic lookup 11 subtable" uni06A1.medi
Substitution2: "'fina' Terminal Forms in Arabic lookup 9 subtable" uni06A1.fina
EndChar

StartChar: uni06A9
Encoding: 1705 1705 78
Width: 1718
VWidth: 2360
GlyphClass: 2
Flags: W
AnchorPoint: "Anchor-10" 276.21 1271.47 basechar 0
AnchorPoint: "Anchor-7" 399.316 -266.053 basechar 0
LayerCount: 2
Fore
SplineSet
924 -19.0908203125 m 0,0,1
 446 -31 446 -31 285.434 53.4639 c 0,2,3
 85 159 85 159 91.8682 479.387 c 0,4,5
 95 610 95 610 147.904 715.651 c 1,6,-1
 201.985 687.342 l 1,7,8
 179.29161108 595.425959368 179.29161108 595.425959368 182.555 476.179 c 0,9,10
 191 233 191 233 548.812 176.764 c 0,11,12
 648 161 648 161 924 163.983398438 c 24,13,14
 1398 169 1398 169 1435 276.797851562 c 1,15,16
 1444 417 1444 417 1298.36035156 542.435546875 c 0,17,18
 1202 625 1202 625 970.360351562 747.936523438 c 1,19,20
 952.002901707 958.966643099 952.002901707 958.966643099 1075.37988281 1023.45996094 c 2,21,-1
 1687.68066406 1343.53027344 l 1,22,23
 1659 1206 1659 1206 1624 1138 c 1,24,-1
 1086.26953125 870.81640625 l 1,25,26
 1312 736 1312 736 1424.5 590 c 128,-1,27
 1537 444 1537 444 1537 316 c 0,28,29
 1537 153 1537 153 1404 77 c 0,30,31
 1249 -11 1249 -11 924 -19.0908203125 c 0,0,1
EndSplineSet
Substitution2: "'init' Initial Forms in Arabic lookup 13 subtable" uniFB90
Substitution2: "'medi' Medial Forms in Arabic lookup 11 subtable" uniFB91
Substitution2: "'fina' Terminal Forms in Arabic lookup 9 subtable" uniFB8F
EndChar

StartChar: afii57514
Encoding: 1722 1722 80
Width: 1351
VWidth: 2384
GlyphClass: 2
Flags: W
AnchorPoint: "Anchor-10" 617.359 1025.84 basechar 0
AnchorPoint: "Anchor-7" 321.13 -816.362 basechar 0
LayerCount: 2
Fore
SplineSet
1257 63 m 0,0,1
 1261 8 1261 8 1259.00976562 -20.892578125 c 1,2,3
 1175 -488 1175 -488 679.500976562 -497.430664062 c 0,4,5
 297 -504 297 -504 152.626953125 -294.809570312 c 0,6,7
 40 -131 40 -131 100.938476562 118.282226562 c 0,8,9
 117 184 117 184 154.172851562 292.375976562 c 0,10,11
 177 358 177 358 195.149414062 400.904296875 c 1,12,-1
 256.662109375 352.958984375 l 1,13,14
 155 52 155 52 226.326171875 -100.170898438 c 0,15,16
 334 -329 334 -329 675.12890625 -323.39453125 c 0,17,18
 1121 -315 1121 -315 1146.45019531 -21.1591796875 c 1,19,-1
 1018.1796875 421.682617188 l 5,20,-1
 1167 533 l 5,21,22
 1246 208 1246 208 1257 63 c 0,0,1
EndSplineSet
Substitution2: "'init' Initial Forms in Arabic lookup 13 subtable" uni06BA.init
Substitution2: "'medi' Medial Forms in Arabic lookup 11 subtable" uni06BA.medi
Substitution2: "'fina' Terminal Forms in Arabic lookup 9 subtable" uniFB9F
EndChar

StartChar: uni06F4
Encoding: 1780 1780 87
Width: 1255
VWidth: 2068
GlyphClass: 2
Flags: W
LayerCount: 2
Fore
SplineSet
887 1368 m 1,0,1
 925 1317 925 1317 937 1240.28710938 c 1,2,3
 903 1254 903 1254 766.498046875 1254.19824219 c 0,4,5
 565 1254 565 1254 481 945 c 5,6,7
 560 870 560 870 741.342773438 869.936523438 c 4,8,9
 865 870 865 870 1020.24023438 937.216796875 c 5,10,11
 1045 893 1045 893 1054.34960938 796.576171875 c 5,12,13
 892 730 892 730 743.907226562 730.430664062 c 4,14,15
 596 730 596 730 461 783.830078125 c 5,16,17
 523 532 523 532 523.536667395 232.823973363 c 0,18,19
 523.999836268 -11.9134841886 523.999836268 -11.9134841886 447.383 -32.1051 c 2,20,-1
 416.283 -40.3012 l 1,21,22
 408 397 408 397 302.4 776.324 c 0,23,24
 267 903 267 903 110.461 1259.16 c 1,25,-1
 240.155 1357.36 l 1,26,-1
 393.817 1041.3 l 1,27,28
 471 1407 471 1407 764 1407 c 0,29,30
 846 1407 846 1407 887 1368 c 1,0,1
EndSplineSet
EndChar

StartChar: uni06F5
Encoding: 1781 1781 88
Width: 1255
VWidth: 2121
GlyphClass: 2
Flags: W
LayerCount: 2
Fore
SplineSet
639.653 303.536 m 0,0,1
 723 142 723 142 867.607 136.933 c 0,2,3
 894 136 894 136 916.413 140.083 c 0,4,5
 1063 168 1063 168 1012.26953125 435.828125 c 4,6,-1
 1012.25 435.952148438 l 5,7,8
 927.155915382 771.385395554 927.155915382 771.385395554 597.74 1035.1 c 2,9,-1
 596.291 1036.26 l 1,10,-1
 595.027 1034.9 l 2,11,12
 342 762 342 762 250.659 487.847 c 0,13,14
 219 392 219 392 215.941 322.652 c 0,15,16
 208 145 208 145 388.488 137.566 c 0,17,18
 529 132 529 132 613.017 302.863 c 0,19,20
 618 313 618 313 623.338 315.6 c 0,21,22
 631 320 631 320 639.653 303.536 c 0,0,1
393.225 -41.2002 m 0,23,24
 119 -41 119 -41 97.044921875 236.98046875 c 0,25,26
 66.9806767467 628.251482413 66.9806767467 628.251482413 482.957 1133.45 c 2,27,-1
 484.365 1135.16 l 1,28,-1
 482.893 1136.44 l 2,29,30
 457 1159 457 1159 452.225 1163.47 c 1,31,-1
 538.71484375 1331 l 1,32,33
 606 1282 606 1282 643.634765625 1248.25 c 0,34,35
 1236 718 1236 718 1182.05957031 241.13671875 c 0,36,37
 1149 -50 1149 -50 861.805 -40.6823 c 1,38,39
 684.484458375 -36.0127576809 684.484458375 -36.0127576809 632.339 108.682 c 2,40,-1
 625.593 127.401 l 1,41,-1
 618.842 108.686 l 2,42,43
 565 -41 565 -41 393.225 -41.2002 c 0,23,24
EndSplineSet
EndChar

StartChar: uni06F6
Encoding: 1782 1782 89
Width: 1255
VWidth: 2264
GlyphClass: 2
Flags: W
LayerCount: 2
Fore
SplineSet
198.714 -39.6147 m 1,0,1
 230 103 230 103 367.25 343.613 c 0,2,3
 506 588 506 588 563.164 636.957 c 1,4,5
 265 730 265 730 237 922.143554688 c 1,6,7
 329 1423 329 1423 856 1311 c 5,8,-1
 841 1170 l 1,9,10
 446 1249 446 1249 397 903.143554688 c 1,11,12
 464 755 464 755 744.457 758.896 c 0,13,14
 753 759 753 759 1054.8 886.543 c 1,15,16
 1069 818 1069 818 1065.03 739.051 c 1,17,18
 699 623 699 623 471.877 234.91 c 0,19,20
 312.00234681 -37.995993996 312.00234681 -37.995993996 241.721 -39.0002 c 2,21,-1
 198.714 -39.6147 l 1,0,1
EndSplineSet
EndChar

StartChar: uniFB8F
Encoding: 64399 64399 104
Width: 1916
VWidth: 2360
GlyphClass: 2
Flags: W
AnchorPoint: "Anchor-10" 350.693 1239.9 basechar 0
AnchorPoint: "Anchor-7" 438.621 -303.27 basechar 0
LayerCount: 2
Fore
SplineSet
918 163.983398438 m 24,0,1
 1361 164 1361 164 1382 242.797851562 c 1,2,3
 1392 411 1392 411 1239.36035156 542.435546875 c 0,4,5
 1143 625 1143 625 911.360351562 747.936523438 c 1,6,7
 893 959 893 959 1016.37988281 1023.45996094 c 2,8,-1
 1628.68066406 1343.53027344 l 1,9,10
 1600 1206 1600 1206 1565 1138 c 1,11,-1
 1027.26953125 870.81640625 l 1,12,13
 1232 748 1232 748 1364 592 c 24,14,15
 1727 163 1727 163 1907.61035156 164.2578125 c 2,16,-1
 1926.80957031 164.350585938 l 1,17,-1
 1926.80957031 -19.607421875 l 1,18,-1
 1887.86035156 -19.607421875 l 2,19,20
 1715.71383216 -19.607421875 1715.71383216 -19.607421875 1480.55078125 303 c 1,21,22
 1483 277 1483 277 1483 250 c 0,23,24
 1483 124 1483 124 1385 66 c 0,25,26
 1249 -14 1249 -14 918 -19.0908203125 c 24,27,28
 437.604122237 -26.9661625709 437.604122237 -26.9661625709 287.054 53.691 c 0,29,30
 87 161 87 161 93.9175 479.386 c 0,31,32
 97 610 97 610 149.959 715.661 c 1,33,-1
 204.765 687.339 l 1,34,35
 195 648 195 648 188.063 582.971 c 0,36,37
 183 533 183 533 184.604 476.179 c 0,38,39
 192 229 192 229 550.861 176.764 c 0,40,41
 639 164 639 164 918 163.983398438 c 24,0,1
EndSplineSet
EndChar

StartChar: uniFB9F
Encoding: 64415 64415 112
Width: 1417
VWidth: 2384
GlyphClass: 2
Flags: W
AnchorPoint: "Anchor-10" 283.574 769.934 basechar 0
AnchorPoint: "Anchor-7" 178.53 -802.24 basechar 0
LayerCount: 2
Fore
SplineSet
195.149414062 400.904296875 m 1,0,-1
 256.662109375 352.958984375 l 1,1,2
 155 52 155 52 226.326171875 -100.170898438 c 0,3,4
 334 -329 334 -329 675.12890625 -323.39453125 c 0,5,6
 1121 -315 1121 -315 1146.45019531 -21.1591796875 c 1,7,-1
 1036.1796875 345.3671875 l 5,8,-1
 1182 456.684570312 l 5,9,10
 1211 303 1211 303 1234.37988281 254.693359375 c 0,11,12
 1278 165 1278 165 1382.3203125 164.608398438 c 2,13,-1
 1427.33007812 164.608398438 l 1,14,-1
 1427.33007812 -19.3544921875 l 1,15,-1
 1384.70996094 -19.3544921875 l 2,16,17
 1307 -19 1307 -19 1248.13964844 77.4052734375 c 1,18,19
 1261 18 1261 18 1259.00976562 -20.892578125 c 1,20,21
 1175 -488 1175 -488 679.500976562 -497.430664062 c 0,22,23
 297 -504 297 -504 152.626953125 -294.809570312 c 0,24,25
 40 -131 40 -131 100.938476562 118.282226562 c 0,26,27
 117 184 117 184 154.172851562 292.375976562 c 0,28,29
 177 358 177 358 195.149414062 400.904296875 c 1,0,-1
EndSplineSet
EndChar

StartChar: uniFBE8
Encoding: 64488 64488 115
Width: 538
VWidth: 2383
GlyphClass: 2
Flags: W
AnchorPoint: "Anchor-10" 213.123 1088.12 basechar 0
AnchorPoint: "Anchor-7" 239.521 -248.252 basechar 0
LayerCount: 2
Fore
SplineSet
58.7314453125 -19.1884765625 m 1,0,-1
 -10.6171875 -19.1884765625 l 1,1,-1
 -10.6171875 164.884765625 l 1,2,-1
 65.2275390625 164.884765625 l 2,3,4
 68 165 68 165 97.435546875 165.452148438 c 0,5,6
 312 168 312 168 344 254 c 1,7,8
 342 337 342 337 252.47265625 498.143554688 c 5,9,-1
 400 632 l 5,10,11
 429 559 429 559 450 390 c 0,12,13
 472 214 472 214 394 110 c 0,14,15
 292 -24 292 -24 58.7314453125 -19.1884765625 c 1,0,-1
EndSplineSet
EndChar

StartChar: uniFBE9
Encoding: 64489 64489 116
Width: 695
VWidth: 2383
GlyphClass: 2
Flags: W
AnchorPoint: "Anchor-10" 329.725 1034.33 basechar 0
AnchorPoint: "Anchor-7" 309.69 -173.276 basechar 0
LayerCount: 2
Fore
SplineSet
345.93359375 401.288085938 m 1,0,1
 351 458 351 458 388.37890625 458.092773438 c 0,2,3
 427 458 427 458 430.142578125 407.04296875 c 9,4,-1
 434.963867188 335.971679688 l 2,5,6
 447.016674596 164.763139557 447.016674596 164.763139557 670.690429688 164.765625 c 2,7,-1
 704.438 164.766 l 1,8,-1
 704.438 -19.3662 l 1,9,10
 700 -20 700 -20 671.7109375 -19.646484375 c 0,11,-1
 651.486328125 -19.2646484375 l 2,12,13
 467 -16 467 -16 397.24609375 143.140625 c 1,14,15
 282.892318234 -19.152824383 282.892318234 -19.152824383 36.37109375 -19.259765625 c 2,16,-1
 -10.9648 -19.2803 l 1,17,-1
 -10.9648 164.766 l 1,18,-1
 24.15625 164.765625 l 2,19,20
 329.305785653 165.277048803 329.305785653 165.277048803 341.2109375 334.255859375 c 2,21,-1
 345.93359375 401.288085938 l 1,0,1
EndSplineSet
EndChar

StartChar: uniFE73
Encoding: 65139 65139 124
Width: 573
VWidth: 2186
GlyphClass: 2
Flags: W
AnchorPoint: "Anchor-10" 210.79 1279.5 basechar 0
AnchorPoint: "Anchor-7" 210.79 -111.5 basechar 0
LayerCount: 2
Fore
SplineSet
294.23 350.74 m 2,0,1
 294.23 285.679 294.23 285.679 351.054 228.854 c 0,2,3
 402.525 177.38 402.525 177.38 514.67 177.38 c 2,4,-1
 579.92 177.38 l 1,5,-1
 579.92 10.5 l 1,6,-1
 455.82 10.5 l 2,7,8
 310.094 10.5 310.094 10.5 216.047 104.547 c 0,9,10
 127.35 193.243 127.35 193.243 127.35 337.9 c 2,11,-1
 127.35 368.91 l 1,12,-1
 294.23 368.91 l 1,13,-1
 294.23 350.74 l 2,0,1
EndSplineSet
EndChar

StartChar: uniFE8E
Encoding: 65166 65166 150
Width: 509
VWidth: 2359
GlyphClass: 2
Flags: W
AnchorPoint: "Anchor-10" 143.67 1578.88 basechar 0
AnchorPoint: "Anchor-7" 241.362 -297.141 basechar 0
LayerCount: 2
Fore
SplineSet
283.340820312 1473.73046875 m 1,0,-1
 283.924804688 442.76953125 l 2,1,2
 284 260 284 260 330.297851562 212.094726562 c 0,3,4
 375.029296875 163.96875 375.029296875 163.96875 486.060546875 163.96875 c 2,5,-1
 519.955078125 163.96875 l 1,6,-1
 519.955078125 -19.10546875 l 1,7,-1
 451.967773438 -19.10546875 l 2,8,9
 320 -19 320 -19 244 62 c 0,10,11
 170 142 170 142 164.803710938 382.239257812 c 0,12,13
 154 949 154 949 151.151367188 995.506835938 c 0,14,15
 138 1245 138 1245 120.116210938 1368.88964844 c 1,16,-1
 283.340820312 1473.73046875 l 1,0,-1
EndSplineSet
EndChar

StartChar: uniFEA2
Encoding: 65186 65186 170
Width: 1269
VWidth: 2380
GlyphClass: 2
Flags: W
AnchorPoint: "Anchor-10" 557.149 1235.41 basechar 0
AnchorPoint: "Anchor-7" 304.128 -793.878 basechar 0
LayerCount: 2
Fore
SplineSet
472 456 m 24,0,1
 640 546 640 546 843.450195312 562.37109375 c 1,2,3
 767 572 767 572 571.356445312 660.561523438 c 0,4,5
 475 704 475 704 391 692 c 0,6,7
 298 678 298 678 219 517 c 5,8,-1
 205.837890625 517.745117188 l 6,9,10
 177 519 177 519 207.720703125 655.81640625 c 4,11,12
 249 841 249 841 399 850 c 0,13,14
 540 859 540 859 689.918945312 768.590820312 c 0,15,16
 823 688 823 688 1130 640 c 1,17,-1
 1101.21972656 489.875 l 1,18,19
 1016 488 1016 488 936 476.01953125 c 1,20,21
 975.955916153 165.342773438 975.955916153 165.342773438 1227.09960938 165.342773438 c 2,22,-1
 1279.1796875 165.342773438 l 1,23,-1
 1279.1796875 -19.6708984375 l 1,24,-1
 1234.20019531 -19.6708984375 l 2,25,26
 895 -20 895 -20 848 461 c 1,27,28
 737 435 737 435 705 424 c 0,29,30
 265 273 265 273 264.211914062 -54.640625 c 0,31,32
 264 -239 264 -239 403 -351 c 0,33,34
 547 -467 547 -467 913 -467 c 0,35,36
 944 -467 944 -467 1165 -448 c 1,37,38
 1164 -474 1164 -474 1121 -502 c 0,39,40
 1012 -573 1012 -573 822 -583 c 0,41,42
 487 -601 487 -601 285 -465 c 0,43,44
 91 -333 91 -333 91.015625 -67.283203125 c 0,45,46
 91 251 91 251 472 456 c 24,0,1
EndSplineSet
EndChar

StartChar: uniFEA3
Encoding: 65187 65187 171
Width: 1180
VWidth: 2384
GlyphClass: 2
Flags: W
AnchorPoint: "Anchor-10" 237.027 1129.23 basechar 0
AnchorPoint: "Anchor-7" 454.062 -274.52 basechar 0
LayerCount: 2
Fore
SplineSet
573.734375 94.5986328125 m 4,0,1
 366.454852214 -19.458 366.454852214 -19.458 16.2695 -19.458 c 6,2,-1
 -10.9785 -19.458 l 5,3,-1
 -10.9785 164.666 l 5,4,-1
 6.42578 164.666 l 6,5,6
 411.863211206 165.002375494 411.863211206 165.002375494 543 236 c 4,7,8
 700 321 700 321 836.041992188 382.700195312 c 5,9,10
 735 397 735 397 540.926757812 487.423828125 c 4,11,12
 345 579 345 579 281 569 c 4,13,14
 176 554 176 554 93 387 c 5,15,-1
 79.837890625 387.745117188 l 6,16,17
 50 389 50 389 81.720703125 525.81640625 c 4,18,19
 124 709 124 709 289 727 c 4,20,21
 417 741 417 741 659.489257812 595.453125 c 4,22,23
 793 515 793 515 1099.5703125 466.862304688 c 5,24,-1
 1075.74023438 323.141601562 l 5,25,26
 887 270 887 270 573.734375 94.5986328125 c 4,0,1
EndSplineSet
EndChar

StartChar: uniFEA4
Encoding: 65188 65188 172
Width: 1211
VWidth: 2384
GlyphClass: 2
Flags: W
AnchorPoint: "Anchor-10" 382.436 1152.01 basechar 0
AnchorPoint: "Anchor-7" 569.419 -282.859 basechar 0
LayerCount: 2
Fore
SplineSet
745 184.484375 m 1,0,1
 619 114 619 114 572 94 c 0,2,3
 288.857026549 -19.458 288.857026549 -19.458 16.2695 -19.458 c 2,4,-1
 -10.9785 -19.458 l 1,5,-1
 -10.9785 164.666 l 1,6,-1
 6.42578 164.666 l 2,7,8
 405 165 405 165 541.265625 235.401367188 c 0,9,10
 710 324 710 324 836.041992188 382.700195312 c 1,11,12
 735 397 735 397 541 487.5 c 128,-1,13
 347 578 347 578 281 569 c 0,14,15
 179 555 179 555 91 374 c 1,16,-1
 77.837890625 374.745117188 l 2,17,18
 48 376 48 376 79.720703125 512.81640625 c 0,19,20
 126 710 126 710 289 727 c 0,21,22
 417 741 417 741 659.489257812 595.453125 c 0,23,24
 793 515 793 515 1099.5703125 466.862304688 c 1,25,-1
 1075.74023438 323.141601562 l 1,26,27
 1068 325 1068 325 833 222.982421875 c 1,28,29
 841.97988344 164.131835938 841.97988344 164.131835938 1004.50976562 164.131835938 c 2,30,-1
 1222.78027344 164.131835938 l 1,31,-1
 1222.78027344 -19.9453125 l 1,32,-1
 980.690429688 -19.9453125 l 2,33,34
 808 -20 808 -20 745 184.484375 c 1,0,1
EndSplineSet
EndChar

StartChar: uniFEAA
Encoding: 65194 65194 178
Width: 991
VWidth: 2378
GlyphClass: 2
Flags: W
AnchorPoint: "Anchor-10" 439.287 1208.7 basechar 0
AnchorPoint: "Anchor-7" 339.685 -311.271 basechar 0
LayerCount: 2
Fore
SplineSet
770 401 m 2,0,1
 861.739936628 169.291131487 861.739936628 169.291131487 970.459960938 164.639648438 c 2,2,-1
 981.530273438 164.166015625 l 1,3,-1
 999.549804688 164.166015625 l 1,4,-1
 999.549804688 -19.7978515625 l 1,5,-1
 973.26953125 -19.7978515625 l 2,6,7
 824 -20 824 -20 738.85546875 163 c 1,8,9
 735 147 735 147 730 133 c 0,10,11
 675 -19 675 -19 382.908203125 -19.07421875 c 0,12,13
 346 -19 346 -19 290.53 -11.4746 c 24,14,15
 90.7452314097 16.0350807654 90.7452314097 16.0350807654 91.1973 191.965 c 2,16,17
 91.5488 328.757 l 1,18,19
 103 334 103 334 115.543 328.6 c 1,20,21
 135 185 135 185 340.8 171.112 c 0,22,23
 386 168 386 168 403.590820312 167.921875 c 0,24,25
 531 167 531 167 640 201.0859375 c 24,26,27
 678 213 678 213 685 237 c 1,28,-1
 481 738 l 1,29,-1
 595 843 l 1,30,-1
 770 401 l 2,0,1
EndSplineSet
EndChar

StartChar: uniFEAE
Encoding: 65198 65198 182
Width: 825
VWidth: 2383
GlyphClass: 2
Flags: W
AnchorPoint: "Anchor-10" 389.985 887.022 basechar 0
AnchorPoint: "Anchor-7" 357.852 -699.197 basechar 0
LayerCount: 2
Fore
SplineSet
646.651367188 215.916992188 m 0,0,1
 661.066873507 164.762695312 661.066873507 164.762695312 823.561523438 164.762695312 c 2,2,-1
 835.358398438 164.762695312 l 1,3,-1
 835.358398438 -19.3095703125 l 1,4,5
 791.848632812 -19.3017578125 l 2,6,7
 677.231828463 -19.0006091152 677.231828463 -19.0006091152 646.58984375 19.0009765625 c 1,8,9
 592 -348 592 -348 399 -502 c 1,10,11
 239 -503 239 -503 20.27734375 -457.626953125 c 1,12,13
 515 -320 515 -320 552.327148438 76.1640625 c 1,14,15
 551 187 551 187 454.271484375 316.395507812 c 1,16,17
 515 390 515 390 580 436 c 1,18,19
 590 417 590 417 646.651367188 215.916992188 c 0,0,1
EndSplineSet
PairPos2: "'kern' Horizontal Kerning lookup 15-1" uni0644 dx=-100 dy=0 dh=-100 dv=0 dx=0 dy=0 dh=0 dv=0
PairPos2: "'kern' Horizontal Kerning lookup 15-1" uni0642 dx=-100 dy=0 dh=-100 dv=0 dx=0 dy=0 dh=0 dv=0
PairPos2: "'kern' Horizontal Kerning lookup 15-1" uni0632 dx=-80 dy=0 dh=-80 dv=0 dx=0 dy=0 dh=0 dv=0
PairPos2: "'kern' Horizontal Kerning lookup 15-1" uni0631 dx=-80 dy=0 dh=-80 dv=0 dx=0 dy=0 dh=0 dv=0
PairPos2: "'kern' Horizontal Kerning lookup 15-1" uniFB8A dx=-80 dy=0 dh=-80 dv=0 dx=0 dy=0 dh=0 dv=0
PairPos2: "'kern' Horizontal Kerning lookup 15-1" afii57508 dx=-80 dy=0 dh=-80 dv=0 dx=0 dy=0 dh=0 dv=0
PairPos2: "'kern' Horizontal Kerning lookup 15-1" uniFB7C dx=-100 dy=0 dh=-100 dv=0 dx=0 dy=0 dh=0 dv=0
PairPos2: "'kern' Horizontal Kerning lookup 15-1" uni06CC dx=-100 dy=0 dh=-100 dv=0 dx=0 dy=0 dh=0 dv=0
PairPos2: "'kern' Horizontal Kerning lookup 15-1" uniFEEB dx=-170 dy=0 dh=-170 dv=0 dx=0 dy=0 dh=0 dv=0
PairPos2: "'kern' Horizontal Kerning lookup 15-1" uniFEDF dx=-170 dy=0 dh=-170 dv=0 dx=0 dy=0 dh=0 dv=0
PairPos2: "'kern' Horizontal Kerning lookup 15-1" uniFB90 dx=-170 dy=0 dh=-170 dv=0 dx=0 dy=0 dh=0 dv=0
PairPos2: "'kern' Horizontal Kerning lookup 15-1" uni06A9 dx=-170 dy=0 dh=-170 dv=0 dx=0 dy=0 dh=0 dv=0
PairPos2: "'kern' Horizontal Kerning lookup 15-1" uni0649 dx=-100 dy=0 dh=-100 dv=0 dx=0 dy=0 dh=0 dv=0
PairPos2: "'kern' Horizontal Kerning lookup 15-1" uni0647 dx=-170 dy=0 dh=-170 dv=0 dx=0 dy=0 dh=0 dv=0
PairPos2: "'kern' Horizontal Kerning lookup 15-1" uniFEE7 dx=-170 dy=0 dh=-170 dv=0 dx=0 dy=0 dh=0 dv=0
PairPos2: "'kern' Horizontal Kerning lookup 15-1" uniFEE3 dx=-170 dy=0 dh=-170 dv=0 dx=0 dy=0 dh=0 dv=0
PairPos2: "'kern' Horizontal Kerning lookup 15-1" uni0645 dx=-170 dy=0 dh=-170 dv=0 dx=0 dy=0 dh=0 dv=0
PairPos2: "'kern' Horizontal Kerning lookup 15-1" uniFEDB dx=-170 dy=0 dh=-170 dv=0 dx=0 dy=0 dh=0 dv=0
PairPos2: "'kern' Horizontal Kerning lookup 15-1" uniFED7 dx=-170 dy=0 dh=-170 dv=0 dx=0 dy=0 dh=0 dv=0
PairPos2: "'kern' Horizontal Kerning lookup 15-1" uniFED3 dx=-170 dy=0 dh=-170 dv=0 dx=0 dy=0 dh=0 dv=0
PairPos2: "'kern' Horizontal Kerning lookup 15-1" uni0641 dx=-170 dy=0 dh=-170 dv=0 dx=0 dy=0 dh=0 dv=0
PairPos2: "'kern' Horizontal Kerning lookup 15-1" uniFECF dx=-170 dy=0 dh=-170 dv=0 dx=0 dy=0 dh=0 dv=0
PairPos2: "'kern' Horizontal Kerning lookup 15-1" uniFECB dx=-170 dy=0 dh=-170 dv=0 dx=0 dy=0 dh=0 dv=0
PairPos2: "'kern' Horizontal Kerning lookup 15-1" uniFEC7 dx=-170 dy=0 dh=-170 dv=0 dx=0 dy=0 dh=0 dv=0
PairPos2: "'kern' Horizontal Kerning lookup 15-1" uni0638 dx=-170 dy=0 dh=-170 dv=0 dx=0 dy=0 dh=0 dv=0
PairPos2: "'kern' Horizontal Kerning lookup 15-1" uniFEC3 dx=-170 dy=0 dh=-170 dv=0 dx=0 dy=0 dh=0 dv=0
PairPos2: "'kern' Horizontal Kerning lookup 15-1" uni0637 dx=-170 dy=0 dh=-170 dv=0 dx=0 dy=0 dh=0 dv=0
PairPos2: "'kern' Horizontal Kerning lookup 15-1" uniFEBF dx=-170 dy=0 dh=-170 dv=0 dx=0 dy=0 dh=0 dv=0
PairPos2: "'kern' Horizontal Kerning lookup 15-1" uni0636 dx=-170 dy=0 dh=-170 dv=0 dx=0 dy=0 dh=0 dv=0
PairPos2: "'kern' Horizontal Kerning lookup 15-1" uniFEBB dx=-170 dy=0 dh=-170 dv=0 dx=0 dy=0 dh=0 dv=0
PairPos2: "'kern' Horizontal Kerning lookup 15-1" uni0635 dx=-170 dy=0 dh=-170 dv=0 dx=0 dy=0 dh=0 dv=0
PairPos2: "'kern' Horizontal Kerning lookup 15-1" uniFEB7 dx=-170 dy=0 dh=-170 dv=0 dx=0 dy=0 dh=0 dv=0
PairPos2: "'kern' Horizontal Kerning lookup 15-1" uni0634 dx=-170 dy=0 dh=-170 dv=0 dx=0 dy=0 dh=0 dv=0
PairPos2: "'kern' Horizontal Kerning lookup 15-1" uniFEB3 dx=-170 dy=0 dh=-170 dv=0 dx=0 dy=0 dh=0 dv=0
PairPos2: "'kern' Horizontal Kerning lookup 15-1" uni0633 dx=-170 dy=0 dh=-170 dv=0 dx=0 dy=0 dh=0 dv=0
PairPos2: "'kern' Horizontal Kerning lookup 15-1" uni0630 dx=-170 dy=0 dh=-170 dv=0 dx=0 dy=0 dh=0 dv=0
PairPos2: "'kern' Horizontal Kerning lookup 15-1" uni062F dx=-170 dy=0 dh=-170 dv=0 dx=0 dy=0 dh=0 dv=0
PairPos2: "'kern' Horizontal Kerning lookup 15-1" uniFEA7 dx=-170 dy=0 dh=-170 dv=0 dx=0 dy=0 dh=0 dv=0
PairPos2: "'kern' Horizontal Kerning lookup 15-1" uniFEA3 dx=-170 dy=0 dh=-170 dv=0 dx=0 dy=0 dh=0 dv=0
PairPos2: "'kern' Horizontal Kerning lookup 15-1" uniFE9F dx=-170 dy=0 dh=-170 dv=0 dx=0 dy=0 dh=0 dv=0
PairPos2: "'kern' Horizontal Kerning lookup 15-1" uniFE9B dx=-170 dy=0 dh=-170 dv=0 dx=0 dy=0 dh=0 dv=0
PairPos2: "'kern' Horizontal Kerning lookup 15-1" uni062B dx=-170 dy=0 dh=-170 dv=0 dx=0 dy=0 dh=0 dv=0
PairPos2: "'kern' Horizontal Kerning lookup 15-1" uniFE97 dx=-170 dy=0 dh=-170 dv=0 dx=0 dy=0 dh=0 dv=0
PairPos2: "'kern' Horizontal Kerning lookup 15-1" uni062A dx=-170 dy=0 dh=-170 dv=0 dx=0 dy=0 dh=0 dv=0
PairPos2: "'kern' Horizontal Kerning lookup 15-1" uni0629 dx=-170 dy=0 dh=-170 dv=0 dx=0 dy=0 dh=0 dv=0
PairPos2: "'kern' Horizontal Kerning lookup 15-1" uni0628 dx=-170 dy=0 dh=-170 dv=0 dx=0 dy=0 dh=0 dv=0
PairPos2: "'kern' Horizontal Kerning lookup 15-1" uni0627 dx=-190 dy=0 dh=-190 dv=0 dx=0 dy=0 dh=0 dv=0
PairPos2: "'kern' Horizontal Kerning lookup 15-1" uni0622 dx=-190 dy=0 dh=-190 dv=0 dx=0 dy=0 dh=0 dv=0
PairPos2: "'kern' Horizontal Kerning lookup 15-1" uniFB94 dx=-170 dy=0 dh=-170 dv=0 dx=0 dy=0 dh=0 dv=0
PairPos2: "'kern' Horizontal Kerning lookup 15-1" afii57509 dx=-170 dy=0 dh=-170 dv=0 dx=0 dy=0 dh=0 dv=0
PairPos2: "'kern' Horizontal Kerning lookup 15-1" uniFB56 dx=-170 dy=0 dh=-170 dv=0 dx=0 dy=0 dh=0 dv=0
PairPos2: "'kern' Horizontal Kerning lookup 15-1" afii57506 dx=-170 dy=0 dh=-170 dv=0 dx=0 dy=0 dh=0 dv=0
EndChar

StartChar: uniFEB2
Encoding: 65202 65202 186
Width: 2349
VWidth: 2383
GlyphClass: 2
Flags: W
AnchorPoint: "Anchor-10" 558.561 956.887 basechar 0
AnchorPoint: "Anchor-7" 374.915 -804.992 basechar 0
LayerCount: 2
Fore
SplineSet
1422.1796875 156.541992188 m 0,0,1
 1594.22265906 154.998001758 1594.22265906 154.998001758 1599.59082031 329 c 2,2,-1
 1600.36035156 353.943359375 l 1,3,4
 1605 410 1605 410 1638.79980469 410.666992188 c 0,5,6
 1680 411 1680 411 1684.55957031 359.630859375 c 1,7,-1
 1688.73046875 335.75 l 2,8,9
 1718 169 1718 169 1851.79003906 165.624023438 c 0,10,11
 2005.6694866 161.009910525 2005.6694866 161.009910525 2016 339 c 2,12,-1
 2019.50976562 399.471679688 l 1,13,14
 2025 456 2025 456 2057.95996094 456.330078125 c 0,15,16
 2100 457 2100 457 2103.71972656 405.296875 c 1,17,-1
 2109.83984375 330.198242188 l 2,18,19
 2122.39375425 164.72265625 2122.39375425 164.72265625 2322.41015625 164.72265625 c 6,20,-1
 2359.5703125 164.72265625 l 1,21,-1
 2359.5703125 -19.3525390625 l 1,22,-1
 2329.25 -19.3525390625 l 2,23,24
 2143 -19 2143 -19 2062.80957031 159.659179688 c 1,25,26
 1996 -9 1996 -9 1859.87988281 -18.453125 c 0,27,28
 1714 -29 1714 -29 1647.19042969 164.161132812 c 1,29,30
 1586 -13 1586 -13 1423.80957031 -19.001953125 c 0,31,32
 1308 -24 1308 -24 1247.88964844 78.095703125 c 1,33,34
 1261 18 1261 18 1258.91015625 -20.892578125 c 1,35,36
 1175 -483 1175 -483 677.401367188 -492.430664062 c 0,37,38
 294 -499 294 -499 150.52734375 -289.809570312 c 0,39,40
 33 -119 33 -119 98.8291015625 123.250976562 c 0,41,42
 120 201 120 201 150.052734375 292.637695312 c 0,43,44
 178 378 178 378 187.99609375 405.986328125 c 1,45,-1
 255.049804688 361.000976562 l 1,46,47
 153 56 153 56 224.225585938 -95.16796875 c 0,48,49
 332 -324 332 -324 673.028320312 -318.39453125 c 0,50,51
 1121 -310 1121 -310 1146.34960938 -21.1591796875 c 1,52,-1
 1041.33984375 345.303710938 l 1,53,-1
 1188 456.684570312 l 1,54,55
 1219 287 1219 287 1235.3203125 254.70703125 c 0,56,57
 1281 158 1281 158 1422.1796875 156.541992188 c 0,0,1
EndSplineSet
EndChar

StartChar: uniFEB3
Encoding: 65203 65203 187
Width: 1308
VWidth: 2383
GlyphClass: 2
Flags: W
AnchorPoint: "Anchor-10" 669.348 1017.99 basechar 0
AnchorPoint: "Anchor-7" 602.356 -254.73 basechar 0
LayerCount: 2
Fore
SplineSet
934.3828125 164.884765625 m 0,0,1
 939 165 939 165 954.435546875 165.452148438 c 0,2,3
 1080 170 1080 170 1111 244 c 1,4,5
 1110 311 1110 311 1011.47265625 489.143554688 c 1,6,-1
 1159 623 l 1,7,8
 1201 500 1201 500 1217 380 c 0,9,10
 1239 204 1239 204 1161 100 c 0,11,12
 1069 -24 1069 -24 915.731445312 -19.1884765625 c 1,13,14
 874 -19 874 -19 840.442382812 -2.123046875 c 0,15,16
 761.23096271 37.8833503315 761.23096271 37.8833503315 719.452148438 158.489257812 c 2,17,-1
 717.658203125 163.66796875 l 1,18,-1
 715.694335938 158.551757812 l 2,19,20
 644 -27 644 -27 487.594726562 -19.20703125 c 1,21,22
 338.455401675 -10.0280283774 338.455401675 -10.0280283774 285.665039062 152.154296875 c 2,23,-1
 284.028320312 157.182617188 l 1,24,-1
 281.927734375 152.329101562 l 2,25,26
 207.909846687 -19.2089322269 207.909846687 -19.2089322269 38.806640625 -19.208984375 c 2,27,-1
 -11.8613 -19.209 l 1,28,-1
 -11.8613 164.866 l 1,29,-1
 27.9052734375 164.866210938 l 2,30,31
 227.294399564 165.000197833 227.294399564 165.000197833 235.692382812 295.86328125 c 6,32,-1
 238.680664062 342.428710938 l 5,33,34
 244 399 244 399 277.126953125 399.23828125 c 4,35,36
 319 400 319 400 322.890625 348.17578125 c 4,37,-1
 322.903320312 348.060546875 l 5,38,-1
 327.182617188 317.10546875 l 6,39,40
 349 160 349 160 509.90234375 156.338867188 c 0,41,42
 654.959794992 153.000925164 654.959794992 153.000925164 677 364 c 6,43,44
 680.733398438 399.741210938 l 5,45,46
 686 456 686 456 719.176757812 456.462890625 c 4,47,48
 761 457 761 457 764.938476562 405.432617188 c 5,49,-1
 766.106445312 381.546875 l 6,50,51
 777 161 777 161 934.3828125 164.884765625 c 0,0,1
EndSplineSet
EndChar

StartChar: uniFEB4
Encoding: 65204 65204 188
Width: 1408
VWidth: 2383
GlyphClass: 2
Flags: W
AnchorPoint: "Anchor-10" 635.228 1017.32 basechar 0
LayerCount: 2
Fore
SplineSet
1181.99023438 406.9921875 m 5,0,-1
 1188.05957031 348.698242188 l 6,1,2
 1195 282 1195 282 1222.1 238.096 c 0,3,4
 1267.29393334 164.521484375 1267.29393334 164.521484375 1390.87988281 164.521484375 c 2,5,-1
 1418.88964844 164.521484375 l 1,6,-1
 1418.88964844 -19.5556640625 l 1,7,-1
 1397.71972656 -19.5556640625 l 2,8,9
 1192 -20 1192 -20 1137.08007812 159.6328125 c 1,10,11
 1085 -17 1085 -17 928.721 -20.7637 c 0,12,13
 801 -24 801 -24 742.112304688 147.537109375 c 1,14,15
 696 -16 696 -16 504.239 -19.2031 c 0,16,17
 370 -22 370 -22 301.868164062 125.856445312 c 1,18,19
 225.890536826 -19.209 225.890536826 -19.209 61.9062 -19.209 c 2,20,-1
 -10.8613 -19.209 l 1,21,-1
 -10.8613 164.866 l 1,22,-1
 51.0059 164.866 l 2,23,24
 240.109103835 165.000077356 240.109103835 165.000077356 256.692382812 284.86328125 c 6,25,-1
 259.682617188 306.4765625 l 5,26,27
 265 363 265 363 298.126953125 363.23828125 c 4,28,29
 340 364 340 364 343.890625 312.17578125 c 4,30,-1
 343.903320312 312.060546875 l 5,31,-1
 348.182617188 293.10546875 l 6,32,33
 379 158 379 158 510.955 156.339 c 0,34,35
 685.739808712 155.001990323 685.739808712 155.001990323 695.388671875 329 c 6,36,-1
 696.483398438 348.741210938 l 5,37,38
 702 405 702 405 734.926757812 405.462890625 c 4,39,40
 777 406 777 406 780.688476562 354.438476562 c 5,41,-1
 782.905273438 329.258789062 l 6,42,43
 798 158 798 158 941.727 165.422 c 0,44,45
 1070.8867402 171.994236824 1070.8867402 171.994236824 1092 352 c 6,46,-1
 1097.79003906 401.364257812 l 5,47,48
 1103 458 1103 458 1136.23046875 458.02734375 c 4,49,50
 1178 458 1178 458 1181.99023438 406.9921875 c 5,0,-1
EndSplineSet
EndChar

StartChar: uniFEBA
Encoding: 65210 65210 194
Width: 2518
VWidth: 2384
GlyphClass: 2
Flags: W
AnchorPoint: "Anchor-10" 607.719 918.971 basechar 0
LayerCount: 2
Fore
SplineSet
1494.69140625 165.6796875 m 1,0,-1
 1697.95117188 165.6796875 l 2,1,2
 1933 166 1933 166 2144 208 c 1,3,4
 2103 551 2103 551 1942.4921875 550.610351562 c 0,5,6
 1870 551 1870 551 1730.5 414 c 0,7,8
 1541 230 1541 230 1497.44433594 168.963867188 c 1,9,-1
 1494.69140625 165.6796875 l 1,0,-1
1474.00976562 -19.423828125 m 1,10,11
 1322 -20 1322 -20 1252.66992188 74.9873046875 c 1,12,13
 1265 18 1265 18 1263.00976562 -20.892578125 c 1,14,15
 1179 -484 1179 -484 679.500976562 -493.430664062 c 0,16,17
 297 -500 297 -500 152.626953125 -290.809570312 c 0,18,19
 40 -127 40 -127 100.938476562 122.282226562 c 0,20,21
 117 188 117 188 154.172851562 296.375976562 c 0,22,23
 181 375 181 375 194.059570312 404.87109375 c 1,24,-1
 260.091796875 351.311523438 l 1,25,26
 158 49 158 49 226.32421875 -96.166015625 c 0,27,28
 334 -325 334 -325 675.12890625 -319.39453125 c 0,29,30
 1125 -312 1125 -312 1150.45019531 -21.1591796875 c 1,31,-1
 1037.34082031 343.303710938 l 5,32,-1
 1187 456.684570312 l 5,33,34
 1218 292 1218 292 1239.54003906 254.502929688 c 0,35,36
 1282 179 1282 179 1386.96972656 187.782226562 c 2,37,-1
 1391.66699219 188.173828125 l 1,38,39
 1762 693 1762 693 1983 686 c 0,40,41
 2157 681 2157 681 2244 492.66015625 c 0,42,43
 2287 400 2287 400 2296 249 c 0,44,45
 2301 165 2301 165 2528.24023438 164.611328125 c 1,46,-1
 2528.24023438 -19.2646484375 l 1,47,-1
 2495.51953125 -19.154296875 l 2,48,49
 2298 -18 2298 -18 2232.56640625 116 c 1,50,51
 2185 69 2185 69 2102.8828125 27.3212890625 c 0,52,53
 2012.28117724 -18.8566891576 2012.28117724 -18.8566891576 1762.26171875 -19.1201171875 c 2,54,-1
 1474.00976562 -19.423828125 l 1,10,11
EndSplineSet
EndChar

StartChar: uniFEBB
Encoding: 65211 65211 195
Width: 1596
VWidth: 2384
GlyphClass: 2
Flags: W
AnchorPoint: "Anchor-10" 560.294 1148.56 basechar 0
AnchorPoint: "Anchor-7" 692.741 -323.71 basechar 0
LayerCount: 2
Fore
SplineSet
1192 686 m 0,0,1
 1361 681 1361 681 1453 492.66015625 c 0,2,3
 1505 386 1505 386 1505 249 c 0,4,5
 1505 126 1505 126 1311.8828125 27.3212890625 c 0,6,7
 1221.28117724 -18.8566891576 1221.28117724 -18.8566891576 971.26171875 -19.1201171875 c 2,8,-1
 683.009765625 -19.423828125 l 1,9,10
 442.537851299 -17.9972583602 442.537851299 -17.9972583602 336.838 153.765 c 2,11,-1
 335.286 156.287 l 1,12,-1
 333.525 153.905 l 2,13,14
 205.911420997 -19.1201 205.911420997 -19.1201 17.918 -19.1201 c 2,15,-1
 -10.8203 -19.1201 l 1,16,-1
 -10.8203 164.954 l 1,17,-1
 5.9668 164.954 l 2,18,19
 115.9126 164.954 115.9126 164.954 173 195 c 4,20,21
 255 239 255 239 273.334960938 397.197265625 c 0,22,23
 281 467 281 467 320.21484375 468.2734375 c 0,24,25
 362 469 362 469 365.955078125 417.171875 c 1,26,-1
 374.201171875 362.989257812 l 2,27,28
 399 201 399 201 600.667 188.174 c 1,29,30
 971 693 971 693 1192 686 c 0,0,1
703.69140625 165.6796875 m 1,31,-1
 906.951171875 165.6796875 l 2,32,33
 1142 166 1142 166 1353 208 c 1,34,35
 1312 551 1312 551 1151.4921875 550.610351562 c 0,36,37
 1079 551 1079 551 939.5 414 c 0,38,39
 750 230 750 230 706.444335938 168.963867188 c 1,40,-1
 703.69140625 165.6796875 l 1,31,-1
EndSplineSet
EndChar

StartChar: uniFEBC
Encoding: 65212 65212 196
Width: 1726
VWidth: 2384
GlyphClass: 2
Flags: W
AnchorPoint: "Anchor-10" 590.337 1220.83 basechar 0
AnchorPoint: "Anchor-7" 686.055 -331.239 basechar 0
LayerCount: 2
Fore
SplineSet
703.69140625 165.6796875 m 1,0,-1
 906.951171875 165.6796875 l 2,1,2
 1142 166 1142 166 1353 208 c 1,3,4
 1312 551 1312 551 1151.4921875 550.610351562 c 0,5,6
 1079 551 1079 551 939.5 414 c 0,7,8
 750 230 750 230 706.444335938 168.963867188 c 1,9,-1
 703.69140625 165.6796875 l 1,0,-1
1441.56640625 116 m 1,10,11
 1394 69 1394 69 1311.8828125 27.3212890625 c 0,12,13
 1221.28117724 -18.8566891576 1221.28117724 -18.8566891576 971.26171875 -19.1201171875 c 2,14,-1
 683.009765625 -19.423828125 l 1,15,16
 442.537851299 -17.9972583602 442.537851299 -17.9972583602 336.838 153.765 c 2,17,-1
 335.286 156.287 l 1,18,-1
 333.525 153.905 l 2,19,20
 205.911420997 -19.1201 205.911420997 -19.1201 17.918 -19.1201 c 2,21,-1
 -10.8203 -19.1201 l 1,22,-1
 -10.8203 164.954 l 1,23,-1
 5.9668 164.954 l 2,24,25
 116.9126 164.954 116.9126 164.954 174 195 c 4,26,27
 255 237 255 237 273.334960938 406.197265625 c 0,28,29
 281 476 281 476 320.21484375 477.2734375 c 0,30,31
 362 478 362 478 365.955078125 426.171875 c 1,32,-1
 374.201171875 371.989257812 l 2,33,34
 400 201 400 201 600.667 188.174 c 1,35,36
 971 693 971 693 1192 686 c 0,37,38
 1366 681 1366 681 1453 492.66015625 c 0,39,40
 1496 400 1496 400 1505 249 c 0,41,42
 1510 165 1510 165 1737.24023438 164.611328125 c 1,43,-1
 1737.24023438 -19.2646484375 l 1,44,-1
 1704.51953125 -19.154296875 l 2,45,46
 1507 -18 1507 -18 1441.56640625 116 c 1,10,11
EndSplineSet
EndChar

StartChar: uniFEC2
Encoding: 65218 65218 202
Width: 1381
VWidth: 2384
GlyphClass: 2
Flags: W
AnchorPoint: "Anchor-7" 610.346 -317.759 basechar 0
AnchorPoint: "Anchor-10" 324.968 1563.57 basechar 0
LayerCount: 2
Fore
SplineSet
376.69140625 165.6796875 m 5,0,-1
 579.951171875 165.6796875 l 6,1,2
 801 166 801 166 1026 208 c 5,3,4
 985 550 985 550 824.4921875 550.610351562 c 4,5,6
 752 551 752 551 612.5 414 c 4,7,8
 423 230 423 230 379.444335938 168.963867188 c 5,9,-1
 376.69140625 165.6796875 l 5,0,-1
1118 118 m 5,10,11
 1095 84 1095 84 984.8828125 27.3212890625 c 4,12,13
 894 -19 894 -19 644.26171875 -19.1201171875 c 6,14,-1
 356.009765625 -19.423828125 l 5,15,-1
 314 -19.353515625 l 6,16,17
 92 -19 92 -19 91.7861328125 164.940429688 c 1,18,-1
 255.23046875 164.94140625 l 5,19,20
 269 183 269 183 315.73828125 243.475585938 c 5,21,22
 316 244 316 244 316.026367188 289.107421875 c 4,23,24
 316 336 316 336 307.15234375 758.728515625 c 4,25,26
 298 1182 298 1182 268.584960938 1370.0703125 c 5,27,-1
 429.879882812 1474.71972656 l 5,28,-1
 429.203125 383.375 l 5,29,30
 696 691 696 691 865 686 c 4,31,32
 1033 681 1033 681 1126 492.66015625 c 4,33,34
 1174 396 1174 396 1178 249 c 4,35,36
 1180.00925409 164.611328125 1180.00925409 164.611328125 1350.65039062 164.611328125 c 6,37,-1
 1396.83984375 164.611328125 l 5,38,-1
 1396.83984375 -19.2646484375 l 5,39,-1
 1344.12011719 -19.154296875 l 6,40,41
 1179.91427956 -18.8105854801 1179.91427956 -18.8105854801 1118 118 c 5,10,11
EndSplineSet
EndChar

StartChar: uniFEC3
Encoding: 65219 65219 203
Width: 1093
VWidth: 2384
GlyphClass: 2
Flags: W
AnchorPoint: "Anchor-7" 422.949 -283.063 basechar 0
AnchorPoint: "Anchor-10" 135.393 1574.02 basechar 0
LayerCount: 2
Fore
SplineSet
79.23046875 164.94140625 m 1,0,1
 93 183 93 183 139.73828125 243.475585938 c 1,2,3
 140 244 140 244 140.026367188 289.107421875 c 0,4,5
 140 336 140 336 131.15234375 758.728515625 c 0,6,7
 122 1182 122 1182 92.5849609375 1370.0703125 c 1,8,-1
 253.879882812 1474.71972656 l 1,9,-1
 253.203125 383.375 l 1,10,11
 520 691 520 691 689 686 c 128,-1,12
 858 681 858 681 950 492.66015625 c 0,13,14
 1002 386 1002 386 1002 249 c 0,15,16
 1002 126 1002 126 808.8828125 27.3212890625 c 0,17,18
 718 -19 718 -19 468.26171875 -19.1201171875 c 2,19,-1
 180.009765625 -19.423828125 l 1,20,-1
 138 -19.353515625 l 2,21,-1
 -11.2139 -19.1367 l 1,22,-1
 -11.2139 164.94 l 1,23,-1
 79.23046875 164.94140625 l 1,0,1
200.69140625 165.6796875 m 1,24,-1
 403.951171875 165.6796875 l 2,25,26
 515 166 515 166 850 208 c 1,27,28
 809 550 809 550 648.4921875 550.610351562 c 0,29,30
 576 551 576 551 436.5 414 c 0,31,32
 247 230 247 230 203.444335938 168.963867188 c 1,33,-1
 200.69140625 165.6796875 l 1,24,-1
EndSplineSet
EndChar

StartChar: uniFEC4
Encoding: 65220 65220 204
Width: 1217
VWidth: 2384
GlyphClass: 2
Flags: W
AnchorPoint: "Anchor-10" 142.786 1577.89 basechar 0
AnchorPoint: "Anchor-7" 521.949 -301.063 basechar 0
LayerCount: 2
Fore
SplineSet
208.69140625 165.6796875 m 1,0,-1
 411.951171875 165.6796875 l 2,1,2
 633 166 633 166 858 208 c 1,3,4
 817 550 817 550 656.4921875 550.610351562 c 0,5,6
 584 551 584 551 444.5 414 c 0,7,8
 255 230 255 230 211.444335938 168.963867188 c 1,9,-1
 208.69140625 165.6796875 l 1,0,-1
87.23046875 164.94140625 m 1,10,11
 101 183 101 183 147.73828125 243.475585938 c 1,12,13
 148 244 148 244 148.026367188 289.107421875 c 0,14,15
 148 336 148 336 139.15234375 758.728515625 c 0,16,17
 130 1182 130 1182 100.584960938 1370.0703125 c 1,18,-1
 261.879882812 1474.71972656 l 1,19,-1
 261.203125 383.375 l 1,20,21
 528 691 528 691 697 686 c 0,22,23
 865 681 865 681 958 492.66015625 c 0,24,25
 1006 396 1006 396 1010 249 c 0,26,27
 1012.00925409 164.611328125 1012.00925409 164.611328125 1182.65039062 164.611328125 c 2,28,-1
 1228.83984375 164.611328125 l 1,29,-1
 1228.83984375 -19.2646484375 l 1,30,-1
 1176.12011719 -19.154296875 l 2,31,32
 1012 -19 1012 -19 950 118 c 1,33,34
 927 84 927 84 816.8828125 27.3212890625 c 0,35,36
 726.281177245 -18.8566891576 726.281177245 -18.8566891576 476.26171875 -19.1201171875 c 2,37,-1
 -11.2139 -19.1367 l 1,38,-1
 -11.2139 164.94 l 1,39,-1
 87.23046875 164.94140625 l 1,10,11
EndSplineSet
EndChar

StartChar: uniFECA
Encoding: 65226 65226 210
Width: 1225
VWidth: 2382
GlyphClass: 2
Flags: W
AnchorPoint: "Anchor-10" 444.38 1150.38 basechar 0
AnchorPoint: "Anchor-7" 343.13 -781.657 basechar 0
LayerCount: 2
Fore
SplineSet
832.838867188 647.647460938 m 0,0,1
 832.533203125 672.494140625 832.533203125 672.494140625 758.185546875 672.111328125 c 0,2,3
 667.533203125 671.494140625 667.533203125 671.494140625 667.533203125 649.494140625 c 0,4,5
 667.533203125 647.494140625 667.533203125 647.494140625 769.14453125 599.422851562 c 1,6,7
 789.533203125 608.494140625 789.533203125 608.494140625 811.423828125 623.498046875 c 0,8,9
 832.533203125 638.494140625 832.533203125 638.494140625 832.838867188 647.647460938 c 0,0,1
841 471 m 1,10,11
 882 165 882 165 1155.09960938 165.342773438 c 2,12,-1
 1236.1796875 165.342773438 l 1,13,-1
 1236.1796875 -19.6708984375 l 1,14,-1
 1162.20019531 -19.6708984375 l 2,15,16
 756.970615932 -19.6708984375 756.970615932 -19.6708984375 717 428 c 1,17,18
 716 428 716 428 705 424 c 0,19,20
 265 264 265 264 264.211914062 -54.640625 c 0,21,22
 264 -239 264 -239 403 -351 c 0,23,24
 547 -467 547 -467 913 -467 c 0,25,26
 944 -467 944 -467 1165 -448 c 1,27,28
 1164 -474 1164 -474 1121 -502 c 0,29,30
 1012 -573 1012 -573 822 -583 c 0,31,32
 487 -601 487 -601 285 -465 c 0,33,34
 91 -333 91 -333 91.015625 -67.283203125 c 0,35,36
 91 249 91 249 472 456 c 0,37,38
 555 501 555 501 645.983398438 529.118164062 c 1,39,40
 554 555 554 555 461.533203125 581.494140625 c 1,41,42
 454 673 454 673 461.822265625 760.446289062 c 1,43,44
 554 826 554 826 779.471679688 826.76953125 c 0,45,46
 984 827 984 827 1024.32128906 739.3515625 c 0,47,48
 1037 713 1037 713 1036.83691406 687.604492188 c 0,49,50
 1036 584 1036 584 841 471 c 1,10,11
EndSplineSet
EndChar

StartChar: uniFECB
Encoding: 65227 65227 211
Width: 964
VWidth: 2380
GlyphClass: 2
Flags: W
AnchorPoint: "Anchor-10" 341.947 1307.41 basechar 0
AnchorPoint: "Anchor-7" 395.445 -349.498 basechar 0
LayerCount: 2
Fore
SplineSet
265.274414062 165.22265625 m 1,0,1
 116 308 116 308 111.1875 438.391601562 c 0,2,3
 106 555 106 555 188 645 c 0,4,5
 280 747 280 747 457.87890625 746.983398438 c 4,6,7
 713 747 713 747 748 521 c 1,8,9
 640 593 640 593 505.146484375 593.163085938 c 0,10,11
 310 593 310 593 226 499 c 1,12,13
 247 326 247 326 389.809 213.053 c 0,14,15
 405 201 405 201 474.025489703 201 c 0,16,17
 531.050979407 201 531.050979407 201 631.094 219.979 c 2,18,-1
 872.475 265.771 l 1,19,-1
 842 147 l 1,20,21
 371 -18 371 -18 88.2852 -19.0742 c 1,22,-1
 -11.332 -19.0566 l 1,23,-1
 -11.332 165.018 l 1,24,-1
 265.274414062 165.22265625 l 1,0,1
EndSplineSet
EndChar

StartChar: uniFECC
Encoding: 65228 65228 212
Width: 871
VWidth: 2382
GlyphClass: 2
Flags: W
AnchorPoint: "Anchor-10" 411.467 1144.67 basechar 0
AnchorPoint: "Anchor-7" 451.534 -267.729 basechar 0
LayerCount: 2
Fore
SplineSet
526.305664062 436.153320312 m 4,0,1
 526 461 526 461 451.652832031 460.6171875 c 4,2,3
 361 460 361 460 361 438 c 4,4,5
 361 436 361 436 462.611328125 387.928710938 c 5,6,7
 483 397 483 397 504.890625 412.00390625 c 4,8,9
 526 427 526 427 526.305664062 436.153320312 c 4,0,1
458.46484375 163.12109375 m 1,10,11
 297.418743238 -20.5225 297.418743238 -20.5225 66.1943 -20.5225 c 2,12,-1
 -11.4756 -20.5225 l 1,13,-1
 -11.4756 163.552 l 1,14,-1
 39.9951 163.552 l 2,15,16
 219 164 219 164 386.450195312 261.624023438 c 5,17,18
 271 316 271 316 155 370 c 5,19,20
 147 462 147 462 155.2890625 548.952148438 c 5,21,22
 247 615 247 615 472.938476562 615.275390625 c 4,23,24
 677 615 677 615 717.788085938 527.857421875 c 4,25,26
 730 502 730 502 730.303710938 476.110351562 c 4,27,28
 730 373 730 373 534.466796875 259.505859375 c 5,29,30
 686.912281919 162.056073213 686.912281919 162.056073213 840.638671875 163.551757812 c 2,31,-1
 881.690429688 163.951171875 l 1,32,-1
 881.690429688 -19.966796875 l 1,33,-1
 814.39453125 -19.966796875 l 2,34,35
 619 -20 619 -20 458.46484375 163.12109375 c 1,10,11
EndSplineSet
EndChar

StartChar: uniFEDA
Encoding: 65242 65242 226
Width: 1959
VWidth: 2359
GlyphClass: 2
Flags: W
AnchorPoint: "Anchor-10" 485.022 1499.9 basechar 0
AnchorPoint: "Anchor-7" 617.24 -321.654 basechar 0
LayerCount: 2
Fore
SplineSet
1536.26 408.232 m 5,0,-1
 1538.19 467.501 l 6,1,2
 1542.22 590.989 1542.22 590.989 1524.31 1019.58 c 5,3,4
 1512.08 1274.89 1512.08 1274.89 1499.06 1359.49 c 5,5,-1
 1664.36 1464.35 l 5,6,-1
 1664.36 430.601 l 6,7,8
 1664.36 164.337 1664.36 164.337 1900.89 164.337 c 6,9,-1
 1970.41 164.337 l 5,10,-1
 1970.41 -19.627 l 5,11,-1
 1922.54 -19.627 l 6,12,13
 1653.41 -19.627 1653.41 -19.627 1584.53 169.764 c 6,14,-1
 1582.49 175.375 l 5,15,-1
 1580.74 169.667 l 6,16,17
 1577.11 157.833 1577.11 157.833 1530.04 124.481 c 4,18,19
 1383.4 20.5605 1383.4 20.5605 1226.49 4.29883 c 4,20,21
 1011.02 -18.0352 1011.02 -18.0352 967.731 -19.5918 c 4,22,23
 478.916 -37.1729 478.916 -37.1729 284.478 64.4316 c 4,24,25
 85.1904 168.568 85.1904 168.568 91.8682 479.387 c 4,26,27
 94.6748 611.109 94.6748 611.109 148.264 716.357 c 5,28,-1
 208.62 716.206 l 5,29,30
 192.634 642.562 192.634 642.562 186.014 582.971 c 4,31,32
 180.515 533.476 180.515 533.476 182.555 476.181 c 4,33,34
 191.151 234.411 191.151 234.411 570.851 180.438 c 4,35,36
 674.132 165.758 674.132 165.758 1005.43 165.131 c 4,37,38
 1114.36 164.996 1114.36 164.996 1197.64 178.838 c 4,39,40
 1520.51 234.519 1520.51 234.519 1536.25 408.117 c 4,41,-1
 1536.26 408.232 l 5,0,-1
1046.01 1290.27 m 5,42,-1
 1046.01 1236.45 l 5,43,44
 969.319 1230.6 969.319 1230.6 926.927 1214.97 c 4,45,46
 817.352 1173.89 817.352 1173.89 817.352 1119.32 c 4,47,48
 817.352 1078.41 817.352 1078.41 838.547 1051.16 c 4,49,50
 858.165 1025 858.165 1025 948.125 1011.77 c 4,51,52
 1002.49 1003.77 1002.49 1003.77 1029.8 978.842 c 4,53,54
 1056.33 954.603 1056.33 954.603 1056.33 910.905 c 4,55,56
 1056.33 805.114 1056.33 805.114 958.058 749.538 c 4,57,58
 881.861 706.446 881.861 706.446 777.456 705.479 c 4,59,60
 711.979 705.479 711.979 705.479 654.2 714.952 c 5,61,-1
 654.2 776.033 l 5,62,63
 720.523 767.399 720.523 767.399 766.739 767.399 c 4,64,65
 850.385 767.399 850.385 767.399 904.4 788.665 c 4,66,67
 999.57 825.215 999.57 825.215 999.57 887.087 c 4,68,69
 999.57 956.165 999.57 956.165 888.872 974.203 c 4,70,71
 826.312 983.735 826.312 983.735 792.552 1018.26 c 132,-1,72
 758.83 1052.75 758.83 1052.75 760.185 1115.21 c 4,73,74
 762.244 1198.5 762.244 1198.5 839.804 1237.81 c 4,75,76
 928.003 1282.43 928.003 1282.43 1046.01 1290.27 c 5,42,-1
EndSplineSet
EndChar

StartChar: uniFEDB
Encoding: 65243 65243 227
Width: 766
VWidth: 2360
GlyphClass: 2
Flags: W
AnchorPoint: "Anchor-10" 220.818 1265.02 basechar 0
AnchorPoint: "Anchor-7" 333.171 -282.73 basechar 0
LayerCount: 2
Fore
SplineSet
-11 -19.0908 m 1,0,-1
 -11 163.983 l 1,1,-1
 80.4434 164.011 l 2,2,3
 483 164 483 164 504 230.797851562 c 5,4,5
 514 412 514 412 362.360351562 542.435546875 c 0,6,7
 266 625 266 625 34.3604 747.937 c 1,8,9
 16.0029039398 958.966617599 16.0029039398 958.966617599 139.38 1023.46 c 2,10,-1
 751.680664062 1343.53027344 l 1,11,12
 723 1206 723 1206 688 1138 c 1,13,-1
 150.27 870.816 l 1,14,15
 376 736 376 736 487 592 c 0,16,17
 606 437 606 437 606 270 c 4,18,19
 606 111 606 111 507 54 c 4,20,21
 376.83830137 -19.0908 376.83830137 -19.0908 126.442 -19.0908 c 2,22,-1
 -11 -19.0908 l 1,0,-1
EndSplineSet
EndChar

StartChar: uniFEDC
Encoding: 65244 65244 228
Width: 1036
VWidth: 2360
GlyphClass: 2
Flags: W
AnchorPoint: "Anchor-10" 195.618 1293.57 basechar 0
AnchorPoint: "Anchor-7" 318.604 -312.174 basechar 0
LayerCount: 2
Fore
SplineSet
487 592 m 24,0,1
 850 163 850 163 1030.61035156 164.2578125 c 2,2,-1
 1049.80957031 164.350585938 l 1,3,-1
 1049.80957031 -19.607421875 l 1,4,-1
 1010.86035156 -19.607421875 l 2,5,6
 838.713832158 -19.607421875 838.713832158 -19.607421875 603.55078125 303 c 1,7,8
 606 277 606 277 606 250 c 0,9,10
 606 135.098900572 606 135.098900572 510 61 c 0,11,12
 410 -19 410 -19 126.442 -19.0908 c 2,13,-1
 -11 -19.0908 l 1,14,-1
 -11 163.983 l 1,15,-1
 80.4434 164.011 l 2,16,17
 486.038470772 164.135193348 486.038470772 164.135193348 507 237.797851562 c 1,18,19
 517 409 517 409 362.360351562 542.435546875 c 0,20,21
 266 625 266 625 34.3604 747.937 c 1,22,23
 16 959 16 959 139.38 1023.46 c 2,24,-1
 751.680664062 1343.53027344 l 1,25,26
 723 1206 723 1206 688 1138 c 1,27,-1
 150.27 870.816 l 1,28,29
 355 748 355 748 487 592 c 24,0,1
EndSplineSet
EndChar

StartChar: uniFEDE
Encoding: 65246 65246 230
Width: 1420
VWidth: 2359
GlyphClass: 2
Flags: W
AnchorPoint: "Anchor-10" 584.65 1223.83 basechar 0
AnchorPoint: "Anchor-7" 234.999 -602.393 basechar 0
LayerCount: 2
Fore
SplineSet
1074.23046875 151.74609375 m 1,0,1
 1073 384 1073 384 1048.8203125 1028.50976562 c 1,2,3
 1038 1283 1038 1283 1013.28027344 1358.11035156 c 1,4,-1
 1188.87011719 1473.25 l 1,5,-1
 1188.84960938 424.508789062 l 2,6,7
 1189 286 1189 286 1258.12988281 225.509765625 c 0,8,9
 1327.04112511 164.963867188 1327.04112511 164.963867188 1398.12011719 164.963867188 c 2,10,-1
 1430 164.963867188 l 1,11,-1
 1430 -19 l 1,12,-1
 1413.87011719 -19 l 2,13,14
 1316.02917157 -19 1316.02917157 -19 1188.58007812 70.2392578125 c 2,15,-1
 1185.58007812 72.33984375 l 1,16,17
 1186 71 1186 71 1185.4296875 68.6826171875 c 0,18,19
 1162 -462 1162 -462 689.25390625 -477.625976562 c 0,20,21
 310 -490 310 -490 162.411132812 -275.005859375 c 0,22,23
 49 -110 49 -110 110.720703125 138.086914062 c 0,24,25
 127 204 127 204 163.956054688 312.1796875 c 0,26,27
 186 378 186 378 206.088867188 421.063476562 c 1,28,-1
 275.158203125 382.185546875 l 1,29,30
 164 72 164 72 236.109375 -80.3662109375 c 0,31,32
 344 -311 344 -311 684.91015625 -303.587890625 c 0,33,34
 1045 -295 1045 -295 1072.16992188 -12.0244140625 c 1,35,36
 1074 23 1074 23 1074.75 50.111328125 c 0,37,38
 1076 87 1076 87 1074.23046875 151.74609375 c 1,0,1
EndSplineSet
EndChar

StartChar: uniFEDF
Encoding: 65247 65247 231
Width: 483
VWidth: 2359
GlyphClass: 2
Flags: W
AnchorPoint: "Anchor-10" 248.632 1562.49 basechar 0
AnchorPoint: "Anchor-7" 174.061 -283.816 basechar 0
LayerCount: 2
Fore
SplineSet
187.547851562 1371.12011719 m 1,0,-1
 352.85546875 1475.98046875 l 1,1,-1
 352.85546875 464.899414062 l 2,2,3
 352.85546875 197.812585852 352.85546875 197.812585852 262 80 c 0,4,5
 185 -19 185 -19 6.9296875 -19.1376953125 c 2,6,-1
 -11.3477 -19.1377 l 1,7,-1
 -11.3477 164.938 l 1,8,-1
 10.5595703125 164.938476562 l 2,9,10
 128.953866833 164.941052064 128.953866833 164.941052064 165 211 c 0,11,12
 231 294 231 294 226.689453125 479.032226562 c 1,13,14
 234 520 234 520 212.802734375 1031.20019531 c 1,15,16
 201 1286 201 1286 187.547851562 1371.12011719 c 1,0,-1
EndSplineSet
EndChar

StartChar: uniFEE0
Encoding: 65248 65248 232
Width: 594
VWidth: 2359
GlyphClass: 2
Flags: W
AnchorPoint: "Anchor-10" 286.727 1558.07 basechar 0
AnchorPoint: "Anchor-7" 248.885 -339.433 basechar 0
LayerCount: 2
Fore
SplineSet
222.938 1371.1 m 1,0,-1
 382.047 1474.77 l 1,1,-1
 382.047 424.44 l 2,2,3
 382 256 382 256 468.06640625 199.556640625 c 0,4,5
 523.043753755 163.971679688 523.043753755 163.971679688 574.413085938 163.971679688 c 2,6,-1
 605.725585938 163.971679688 l 1,7,-1
 605.725585938 -19.05078125 l 1,8,-1
 567.765625 -19.0546875 l 2,9,10
 406 -19 406 -19 312.222 120.666 c 1,11,12
 191.214222948 -14.7602516826 191.214222948 -14.7602516826 35.8896 -18.0537 c 2,13,-1
 -11.5928 -19.0605 l 1,14,-1
 -11.5928 163.967 l 1,15,-1
 -0.445312 163.938 l 2,16,17
 143 164 143 164 215.268 254.71 c 0,18,19
 261 312 261 312 256.889 479.032 c 1,20,21
 262 509 262 509 243.003 1031.17 c 0,22,23
 235 1252 235 1252 222.938 1371.1 c 1,0,-1
EndSplineSet
EndChar

StartChar: uniFEE2
Encoding: 65250 65250 234
Width: 1151
VWidth: 2407
GlyphClass: 2
Flags: W
AnchorPoint: "Anchor-10" 485.792 1093.3 basechar 0
AnchorPoint: "Anchor-7" 250.014 -773.194 basechar 0
LayerCount: 2
Fore
SplineSet
476.724609375 286.415039062 m 2,0,1
 483 25 483 25 681 -65 c 1,2,3
 832 48 832 48 809 154 c 0,4,5
 786.754673138 261.44887888 786.754673138 261.44887888 650.260742188 288.736328125 c 1,6,7
 564.988372181 306.002354411 564.988372181 306.002354411 478.328125 288.422851562 c 2,8,-1
 476.686523438 288.08984375 l 1,9,-1
 476.724609375 286.415039062 l 2,0,1
1131.87011719 164.54296875 m 2,10,-1
 1162.23046875 164.432617188 l 1,11,-1
 1162.23046875 -19.4443359375 l 1,12,-1
 1116.25 -19.4443359375 l 2,13,14
 1013.36774553 -18.9972524853 1013.36774553 -18.9972524853 947.499 81.4326 c 5,15,16
 923 -70 923 -70 735 -218 c 5,17,18
 380.806014682 -128.95122968 380.806014682 -128.95122968 359.444335938 233.20703125 c 2,19,-1
 359.296875 235.70703125 l 1,20,-1
 356.891601562 235.009765625 l 2,21,22
 276 212 276 212 240.623046875 124.994140625 c 0,23,24
 196.142083756 17.3438629644 196.142083756 17.3438629644 234.065429688 -189.796875 c 2,25,-1
 317.927734375 -647.860351562 l 1,26,-1
 151.221 -689.206 l 1,27,-1
 91.154296875 -119.4140625 l 2,28,29
 44.0069514406 326.934190073 44.0069514406 326.934190073 358.321289062 382.454101562 c 2,30,-1
 359.692382812 382.696289062 l 1,31,-1
 359.94140625 384.06640625 l 2,32,33
 378 485 378 485 417.518554688 533.66796875 c 1,34,35
 479 480 479 480 700.8515625 426.208984375 c 0,36,37
 850 390 850 390 954.741210938 230.565429688 c 0,38,39
 998 165 998 165 1131.87011719 164.54296875 c 2,10,-1
EndSplineSet
EndChar

StartChar: uniFEE3
Encoding: 65251 65251 235
Width: 814
VWidth: 2387
GlyphClass: 2
Flags: W
AnchorPoint: "Anchor-10" 396.95 1041.46 basechar 0
AnchorPoint: "Anchor-7" 356.884 -271.882 basechar 0
LayerCount: 2
Fore
SplineSet
365.236328125 3.16015625 m 4,0,1
 279 32 279 32 184.765625 100 c 5,2,3
 91 -19 91 -19 9.99316 -19.0684 c 6,4,-1
 -10.7119 -19.0684 l 5,5,-1
 -10.7119 164.006 l 5,6,-1
 29.9619 164.006 l 6,7,8
 111 164 111 164 175.646484375 291.046875 c 4,9,10
 335 609 335 609 477.678546747 609.223534133 c 4,11,12
 641 609 641 609 699.856445312 397.16015625 c 4,13,14
 723 313 723 313 722.78125 203.008789062 c 4,15,16
 723 -36 723 -36 561 -36 c 4,17,18
 485 -36 485 -36 365.236328125 3.16015625 c 4,0,1
588.236328125 111.16015625 m 5,19,20
 591 247 591 247 565.745117188 352.16015625 c 4,21,22
 541 459 541 459 472.449205469 458.89795967 c 4,23,24
 462 459 462 459 450.204101562 457.240234375 c 4,25,26
 370 446 370 446 256.958007812 221.829101562 c 5,27,28
 363 117 363 117 588.236328125 111.16015625 c 5,19,20
EndSplineSet
EndChar

StartChar: uniFEE4
Encoding: 65252 65252 236
Width: 914
VWidth: 2387
GlyphClass: 2
Flags: W
AnchorPoint: "Anchor-10" 447.635 1003.62 basechar 0
AnchorPoint: "Anchor-7" 407.567 -281.898 basechar 0
LayerCount: 2
Fore
SplineSet
588.236328125 111.16015625 m 1,0,1
 591 247 591 247 565.745117188 352.16015625 c 0,2,3
 541 459 541 459 472.449205469 458.89795967 c 0,4,5
 462 459 462 459 450.204101562 457.240234375 c 0,6,7
 370 446 370 446 256.958007812 221.829101562 c 1,8,9
 363 117 363 117 588.236328125 111.16015625 c 1,0,1
708.567382812 82 m 1,10,11
 675 -36 675 -36 561 -36 c 0,12,13
 485 -36 485 -36 365.236328125 3.16015625 c 0,14,15
 279 32 279 32 184.765625 100 c 1,16,17
 90.9461044643 -19.0684 90.9461044643 -19.0684 9.99316 -19.0684 c 2,18,-1
 -10.7119 -19.0684 l 1,19,-1
 -10.7119 164.006 l 1,20,-1
 29.9619 164.006 l 2,21,22
 111 164 111 164 175.646484375 291.046875 c 0,23,24
 337 609 337 609 477.678546747 609.223534133 c 0,25,26
 643 609 643 609 699.856445312 397.16015625 c 0,27,28
 718 329 718 329 721.974609375 245 c 24,29,30
 725.985683229 164.288085938 725.985683229 164.288085938 883.221679688 164.288085938 c 2,31,-1
 925.639648438 164.288085938 l 1,32,-1
 925.639648438 -19.6748046875 l 1,33,-1
 905.650390625 -19.6748046875 l 2,34,35
 777 -20 777 -20 708.567382812 82 c 1,10,11
EndSplineSet
EndChar

StartChar: uniFEEA
Encoding: 65258 65258 242
Width: 1010
VWidth: 2376
GlyphClass: 2
Flags: W
AnchorPoint: "Anchor-10" 579.296 1234.85 basechar 0
AnchorPoint: "Anchor-7" 354.749 -257.976 basechar 0
LayerCount: 2
Fore
SplineSet
665.482421875 366.044921875 m 1,0,-1
 628.087890625 598.084960938 l 1,1,2
 291 533 291 533 236 432 c 1,3,4
 365 211 365 211 665.482421875 366.044921875 c 1,0,-1
91 440 m 1,5,6
 217 668 217 668 606.762695312 719.264648438 c 1,7,-1
 596 829 l 1,8,-1
 715.916015625 900.641601562 l 1,9,-1
 781.549804688 416.213867188 l 2,10,11
 816 165 816 165 1004.88964844 164.5390625 c 2,12,-1
 1021.76953125 164.522460938 l 1,13,-1
 1021.76953125 -19.4794921875 l 1,14,-1
 996.33984375 -19.5087890625 l 2,15,16
 720.380738963 -19.9993232133 720.380738963 -19.9993232133 683.939453125 210.23828125 c 2,17,-1
 683.620117188 212.255859375 l 1,18,19
 205 59 205 59 91 440 c 1,5,6
EndSplineSet
EndChar

StartChar: uniFEEB
Encoding: 65259 65259 243
Width: 1105
VWidth: 2380
GlyphClass: 2
Flags: W
AnchorPoint: "Anchor-10" 360.893 1232.42 basechar 0
AnchorPoint: "Anchor-7" 390.716 -303.949 basechar 0
LayerCount: 2
Fore
SplineSet
494 164 m 1,0,1
 689 74 689 74 832 103 c 1,2,3
 858 184 858 184 852 233 c 0,4,5
 840 340 840 340 631.5 479.5 c 1,6,7
 679 267 679 267 494 164 c 1,0,1
375.573242188 668.889648438 m 1,8,-1
 300.0859375 697.537109375 l 1,9,-1
 382.69140625 825.783203125 l 5,10,-1
 645.524414062 641.696289062 l 6,11,12
 983 405 983 405 968 211 c 0,13,14
 956 61 956 61 891 -22 c 1,15,16
 647 -79 647 -79 358.9921875 29.4775390625 c 1,17,18
 278.482736137 -19.7051 278.482736137 -19.7051 15.501 -19.7051 c 2,19,-1
 -11.4697 -19.7051 l 1,20,-1
 -11.4697 164.369 l 1,21,-1
 20.6904 164.369 l 1,22,23
 71 164 71 164 122 164 c 1,24,25
 93 212 93 212 86.2109375 293.01171875 c 0,26,27
 78 387 78 387 115 473 c 0,28,29
 171 607 171 607 310 658 c 0,30,31
 337 668 337 668 375.573242188 668.889648438 c 1,8,-1
515.282226562 369.602539062 m 0,32,33
 574 502 574 502 469.22265625 551.993164062 c 0,34,35
 377 596 377 596 283 502 c 0,36,37
 215 434 215 434 206 342 c 0,38,39
 189 175 189 175 327 177 c 1,40,41
 464 252 464 252 515.282226562 369.602539062 c 0,32,33
EndSplineSet
EndChar

StartChar: uniFEEC
Encoding: 65260 65260 244
Width: 856
VWidth: 2399
GlyphClass: 2
Flags: W
AnchorPoint: "Anchor-7" 224.456 -799.016 basechar 0
AnchorPoint: "Anchor-10" 204.142 1141.66 basechar 0
LayerCount: 2
Fore
SplineSet
233.073242188 164.762695312 m 1,0,1
 399 185 399 185 416.013671875 374.727539062 c 0,2,3
 431 539 431 539 302 635.564453125 c 1,4,5
 220 487 220 487 219.894494328 310.391506174 c 0,6,7
 220 240 220 240 233.073242188 164.762695312 c 1,0,1
295 817 m 1,8,9
 537 669 537 669 524.176757812 384.57421875 c 0,10,11
 510 68 510 68 273.178710938 -19.134765625 c 1,12,13
 315 -281 315 -281 394.482421875 -363.50390625 c 1,14,15
 409 -105 409 -105 622 64 c 4,16,17
 744 161 744 161 847.590820312 164.115234375 c 1,18,-1
 867.466796875 164.350585938 l 1,19,-1
 867.466796875 -19.708984375 l 1,20,-1
 843.818359375 -20.1845703125 l 2,21,22
 544 -26 544 -26 509.520507812 -501.754882812 c 1,23,-1
 423 -556 l 1,24,25
 184 -388 184 -388 147.267578125 -19.134765625 c 1,26,-1
 -11.375 -19.1348 l 1,27,-1
 -11.375 164.94 l 1,28,-1
 120.609375 165.006835938 l 1,29,30
 117 219 117 219 117.075423329 270.011182961 c 0,31,32
 117 630 117 630 295 817 c 1,8,9
EndSplineSet
EndChar

StartChar: uniFEEE
Encoding: 65262 65262 246
Width: 719
VWidth: 2401
GlyphClass: 2
Flags: W
AnchorPoint: "Anchor-10" 212.462 1153.38 basechar 0
AnchorPoint: "Anchor-7" 410.036 -708.926 basechar 0
LayerCount: 2
Fore
SplineSet
531 -18 m 5,0,1
 490.6640625 -25.806640625 490.6640625 -25.806640625 436.30078125 -25.806640625 c 132,-1,2
 381.9375 -25.806640625 381.9375 -25.806640625 335.174804688 -23.5546875 c 4,3,4
 194 -15 194 -15 150.896484375 52.251953125 c 132,-1,5
 107.793945312 119.50390625 107.793945312 119.50390625 107.793945312 208.419921875 c 4,6,7
 107.793945312 229.711914062 107.793945312 229.711914062 110.138671875 252.390625 c 4,8,9
 131 447 131 447 229.427734375 536.790039062 c 4,10,11
 289.416992188 591.947265625 289.416992188 591.947265625 367.87890625 591.947265625 c 132,-1,12
 446.341796875 591.947265625 446.341796875 591.947265625 514.334960938 520.486328125 c 4,13,14
 618 413 618 413 631.049804688 246.586914062 c 5,15,-1
 638.072265625 164.486328125 l 5,16,-1
 730.625976562 164.880859375 l 5,17,-1
 730.625976562 -19.0458984375 l 5,18,-1
 634.572265625 -18.9990234375 l 5,19,20
 575 -365 575 -365 396 -498 c 5,21,22
 382.4609375 -498.330078125 382.4609375 -498.330078125 368.595703125 -498.330078125 c 4,23,24
 214.515625 -498.330078125 214.515625 -498.330078125 20.21875 -457.548828125 c 5,25,26
 448 -337 448 -337 531 -18 c 5,0,1
349.547851562 405.89453125 m 4,27,28
 227.177734375 405.89453125 227.177734375 405.89453125 206.143554688 258.190429688 c 4,29,30
 204.323242188 245.268554688 204.323242188 245.268554688 204.323242188 233.958984375 c 4,31,32
 204.323242188 162.455078125 204.323242188 162.455078125 277.110351562 155.340820312 c 4,33,34
 338.1484375 149.375 338.1484375 149.375 400.80078125 149.375 c 132,-1,35
 463.385742188 149.375 463.385742188 149.375 525.08984375 159.609375 c 5,36,37
 525.21875 166.109375 525.21875 166.109375 525.21875 170.876953125 c 4,38,39
 525.21875 245.135742188 525.21875 245.135742188 501.861328125 299.647460938 c 4,40,41
 456.342773438 405.89453125 456.342773438 405.89453125 349.547851562 405.89453125 c 4,27,28
EndSplineSet
EndChar

StartChar: uniFEF0
Encoding: 65264 65264 248
Width: 1353
VWidth: 2416
GlyphClass: 2
Flags: W
AnchorPoint: "Anchor-10" 627.807 504.875 basechar 0
AnchorPoint: "Anchor-7" 232.775 -798.266 basechar 0
LayerCount: 2
Fore
SplineSet
975.5703125 138.84375 m 0,0,1
 1042.10714234 165.042186589 1042.10714234 165.042186589 1242.83007812 165.033203125 c 2,2,-1
 1351.9296875 165.028320312 l 1,3,-1
 1363.86035156 164.87890625 l 1,4,-1
 1363.86035156 -19.1201171875 l 1,5,-1
 1258.70019531 -19.6630859375 l 2,6,7
 1205 -20 1205 -20 1083 7 c 0,8,9
 969 32 969 32 952 -24 c 0,10,11
 948 -38 948 -38 954.549804688 -50.310546875 c 0,12,13
 966 -73 966 -73 1096.63964844 -88.490234375 c 0,14,15
 1223 -103 1223 -103 1236 -122.368164062 c 1,16,17
 1257 -260 1257 -260 1223 -378.500976562 c 1,18,19
 1166 -443 1166 -443 1046.94042969 -497.938476562 c 0,20,21
 847 -590 847 -590 570.07421875 -573.083984375 c 0,22,23
 155 -549 155 -549 91.2305 -268.622 c 0,24,25
 66 -156 66 -156 106.778 12.1914 c 0,26,27
 122 75 122 75 179.279 211.832 c 0,28,29
 212 290 212 290 224.634 313.807 c 1,30,-1
 309.206 259.693 l 1,31,32
 289 223 289 223 259 156 c 0,33,34
 223 73 223 73 208.085 -30.7441 c 0,35,36
 189 -166 189 -166 268.008 -265.918 c 0,37,38
 365 -391 365 -391 642.2578125 -406.921875 c 0,39,40
 827 -417 827 -417 961.780273438 -372.548828125 c 0,41,42
 1075 -335 1075 -335 1124 -299.072265625 c 1,43,44
 1137 -263 1137 -263 1128 -211.506835938 c 1,45,46
 1104 -206 1104 -206 1032.15039062 -196.626953125 c 0,47,48
 919 -182 919 -182 829 -131 c 1,49,50
 829 82 829 82 975.5703125 138.84375 c 0,0,1
EndSplineSet
EndChar

StartChar: uniFEFB
Encoding: 65275 65275 259
Width: 1122
VWidth: 2359
GlyphClass: 3
Flags: W
AnchorPoint: "Anchor-9" 929.221 1589.16 baselig 0
AnchorPoint: "Anchor-6" 891.547 -246.035 baselig 0
AnchorPoint: "Anchor-6" 254.784 -275.825 baselig 1
AnchorPoint: "Anchor-9" 217.203 1475.8 baselig 1
LayerCount: 2
Fore
SplineSet
815.186 1334.89 m 5,0,-1
 991.605 1475.47 l 5,1,-1
 991.605 503.749 l 6,2,3
 991.994731311 305.677680882 991.994731311 305.677680882 889.678 164.912 c 4,4,5
 755.74790813 -19.3468238604 755.74790813 -19.3468238604 504.98 -19.1377 c 6,6,-1
 339.859 -19 l 5,7,8
 220 25 220 25 180.813 159.057 c 5,9,10
 423 116 423 116 592 164 c 5,11,12
 470 755 470 755 50 1178 c 5,13,-1
 159 1311.15 l 5,14,15
 597 776 597 776 702 196 c 5,16,17
 752 209 752 209 806.808 284.353 c 4,18,19
 867 366 867 366 864.391 484.204 c 5,20,21
 870 508 870 508 850.504 1036.42 c 4,22,23
 841 1290 841 1290 815.186 1334.89 c 5,0,-1
EndSplineSet
LCarets2: 1 0
Ligature2: "'rlig' Required Ligatures in Arabic lookup 16 subtable" uniFEDF uniFE8E
EndChar

StartChar: uniFEFC
Encoding: 65276 65276 260
Width: 1317
VWidth: 2359
GlyphClass: 3
Flags: W
AnchorPoint: "Anchor-9" 942.679 1542.47 baselig 0
AnchorPoint: "Anchor-6" 909.041 -266.036 baselig 0
AnchorPoint: "Anchor-6" 251.018 -294.082 baselig 1
AnchorPoint: "Anchor-9" 112.807 1431.73 baselig 1
LayerCount: 2
Fore
SplineSet
595 169 m 1,0,1
 469 753 469 753 50 1178 c 1,2,-1
 159 1311.15 l 1,3,4
 594 765 594 765 701 205 c 1,5,-1
 701.197265625 204.4296875 l 1,6,7
 840 299 840 299 878.821 520.433 c 24,8,9
 897.566492334 630.283934717 897.566492334 630.283934717 885.482 894.008 c 2,10,-1
 873.688 1152.99 l 2,11,12
 869 1266 869 1266 855.426 1327.29 c 1,13,-1
 1031.19 1473.3 l 1,14,-1
 1031.19 681.799 l 2,15,16
 1031.00281964 446.543824699 1031.00281964 446.543824699 1076.48 314.073 c 0,17,18
 1127.88087504 164.347 1127.88087504 164.347 1299.71 164.347 c 2,19,-1
 1329.22 164.347 l 1,20,-1
 1329.22 -19.6045 l 1,21,-1
 1270.57 -19 l 2,22,23
 1014 -16 1014 -16 937.082 373.154 c 1,24,25
 892 227 892 227 825 153 c 0,26,27
 666.606540151 -21.433303884 666.606540151 -21.433303884 434.98828125 -19.6171875 c 2,28,-1
 356.524414062 -19.001953125 l 1,29,30
 198 25 198 25 193.665039062 151.838867188 c 1,31,32
 426 119 426 119 595 169 c 1,0,1
EndSplineSet
LCarets2: 1 0
Ligature2: "'rlig' Required Ligatures in Arabic lookup 16 subtable" uniFEE0 uniFE8E
EndChar

StartChar: arabic_dot
Encoding: 65536 -1 261
Width: 157
VWidth: 2150
GlyphClass: 2
Flags: W
LayerCount: 2
Fore
SplineSet
95.5146 181.818 m 2,0,-1
 178.125 99.208 l 2,1,2
 185.905 91.4277 185.905 91.4277 185.959 86.6016 c 128,-1,3
 186.012 81.8584 186.012 81.8584 178.65 74.5674 c 2,4,-1
 92.0791 -12.0039 l 2,5,6
 83.5752 -20.1787 83.5752 -20.1787 78.209 -20.2334 c 0,7,8
 72.585 -20.2891 72.585 -20.2891 64.4248 -12.0576 c 2,9,-1
 -21.7285 74.0957 l 2,10,11
 -28.9473 80.9111 -28.9473 80.9111 -28.5977 86.5518 c 0,12,13
 -28.2197 92.6641 -28.2197 92.6641 -18.5254 102.357 c 2,14,-1
 61.8164 182.699 l 2,15,16
 71.1855 192.153 71.1855 192.153 78.2598 192.007 c 128,-1,17
 85.4756 191.858 85.4756 191.858 95.5146 181.818 c 2,0,-1
EndSplineSet
EndChar

StartChar: arabic_2dots
Encoding: 65537 -1 262
Width: 474
VWidth: 2150
GlyphClass: 2
Flags: W
LayerCount: 2
Fore
SplineSet
378.15 181.633 m 2,0,-1
 460.576 99.207 l 2,1,2
 468.355 91.4277 468.355 91.4277 468.409 86.6016 c 128,-1,3
 468.463 81.8584 468.463 81.8584 461.101 74.5674 c 2,4,-1
 375 -11.5322 l 2,5,6
 366.357 -20.1758 366.357 -20.1758 360.658 -20.2324 c 128,-1,7
 355.034 -20.2891 355.034 -20.2891 346.875 -12.0576 c 2,8,-1
 260.722 74.0957 l 2,9,10
 253.503 80.9121 253.503 80.9121 253.852 86.5518 c 0,11,12
 254.23 92.6631 254.23 92.6631 263.925 102.357 c 2,13,-1
 344.267 182.7 l 2,14,15
 353.635 192.153 353.635 192.153 360.711 192.006 c 128,-1,16
 367.927 191.857 367.927 191.857 378.15 181.633 c 2,0,-1
129.3 181.632 m 2,17,-1
 211.726 99.207 l 2,18,19
 219.506 91.4268 219.506 91.4268 219.56 86.6016 c 128,-1,20
 219.611 81.9287 219.611 81.9287 212.25 74.5674 c 2,21,-1
 126.151 -11.5322 l 2,22,23
 117.507 -20.1758 117.507 -20.1758 111.809 -20.2324 c 128,-1,24
 106.256 -20.2881 106.256 -20.2881 98.0244 -12.0576 c 2,25,-1
 11.501 74.4668 l 2,26,27
 4.69629 81.6152 4.69629 81.6152 5.00195 86.5527 c 0,28,29
 5.36035 92.3428 5.36035 92.3428 14.6006 101.884 c 2,30,-1
 95.3994 182.683 l 2,31,32
 104.869 192.152 104.869 192.152 111.86 192.006 c 0,33,34
 119.075 191.857 119.075 191.857 129.3 181.632 c 2,17,-1
EndSplineSet
EndChar

StartChar: arabic_3dots
Encoding: 65538 -1 263
Width: 477
VWidth: 2150
GlyphClass: 2
Flags: W
LayerCount: 2
Fore
SplineSet
254.499 371.776 m 2,0,-1
 337.637 288.638 l 2,1,2
 345.417 280.858 345.417 280.858 345.471 276.032 c 128,-1,3
 345.523 271.288 345.523 271.288 338.162 263.998 c 2,4,-1
 252.062 177.898 l 2,5,6
 243.419 169.255 243.419 169.255 237.721 169.198 c 128,-1,7
 232.096 169.142 232.096 169.142 223.937 177.373 c 2,8,-1
 137.783 263.525 l 2,9,10
 130.564 270.343 130.564 270.343 130.914 275.983 c 0,11,12
 131.293 282.095 131.293 282.095 140.986 291.788 c 2,13,-1
 221.312 372.112 l 2,14,15
 230.953 381.755 230.953 381.755 237.552 381.805 c 128,-1,16
 244.144 381.856 244.144 381.856 254.499 371.776 c 2,0,-1
382.351 169.032 m 2,17,-1
 464.775 86.6074 l 2,18,19
 472.556 78.8271 472.556 78.8271 472.609 74.002 c 128,-1,20
 472.66 69.3281 472.66 69.3281 465.3 61.9678 c 2,21,-1
 379.2 -24.1318 l 2,22,23
 370.557 -32.7754 370.557 -32.7754 364.858 -32.832 c 128,-1,24
 359.306 -32.8877 359.306 -32.8877 351.075 -24.6572 c 2,25,-1
 264.975 61.4424 l 2,26,27
 257.726 68.6914 257.726 68.6914 258.051 73.9521 c 0,28,29
 258.43 80.0625 258.43 80.0625 268.125 89.7568 c 2,30,-1
 348.449 170.082 l 2,31,32
 357.919 179.551 357.919 179.551 364.909 179.407 c 0,33,34
 372.125 179.258 372.125 179.258 382.351 169.032 c 2,17,-1
129.3 169.032 m 2,35,-1
 211.726 86.6074 l 2,36,37
 219.506 78.8262 219.506 78.8262 219.56 74.002 c 128,-1,38
 219.61 69.3281 219.61 69.3281 212.25 61.9678 c 2,39,-1
 126.151 -24.1318 l 2,40,41
 117.507 -32.7754 117.507 -32.7754 111.809 -32.832 c 128,-1,42
 106.256 -32.8877 106.256 -32.8877 98.0244 -24.6572 c 2,43,-1
 11.501 61.8662 l 2,44,45
 4.69629 69.0156 4.69629 69.0156 5.00195 73.9521 c 0,46,47
 5.38086 80.0635 5.38086 80.0635 15.0742 89.7568 c 2,48,-1
 95.3994 170.082 l 2,49,50
 104.868 179.551 104.868 179.551 111.859 179.407 c 0,51,52
 119.075 179.258 119.075 179.258 129.3 169.032 c 2,35,-1
EndSplineSet
EndChar

StartChar: arabic_3dots_a
Encoding: 65539 -1 264
Width: 476
VWidth: 2150
GlyphClass: 2
Flags: W
LayerCount: 2
Fore
SplineSet
248.947 -9.2959 m 6,0,-1
 331.688 -92.0371 l 6,1,2
 339.468 -99.8174 339.468 -99.8174 339.521 -104.644 c 132,-1,3
 339.574 -109.387 339.574 -109.387 332.214 -116.677 c 6,4,-1
 246.113 -202.777 l 6,5,6
 237.47 -211.421 237.47 -211.421 231.771 -211.478 c 132,-1,7
 226.146 -211.534 226.146 -211.534 217.986 -203.302 c 6,8,-1
 131.834 -117.149 l 6,9,10
 124.616 -110.333 124.616 -110.333 124.966 -104.692 c 4,11,12
 125.344 -98.5811 125.344 -98.5811 135.036 -88.8867 c 6,13,-1
 215.639 -8.28613 l 6,14,15
 225.419 1.00391 225.419 1.00391 232.056 0.756836 c 132,-1,16
 238.883 0.503906 238.883 0.503906 248.947 -9.2959 c 6,0,-1
381.154 190.179 m 2,17,-1
 463.727 107.607 l 2,18,19
 471.506 99.8281 471.506 99.8281 471.56 95.001 c 128,-1,20
 471.61 90.3281 471.61 90.3281 464.251 82.9678 c 2,21,-1
 378.151 -3.13281 l 2,22,23
 369.508 -11.7754 369.508 -11.7754 363.809 -11.833 c 128,-1,24
 358.255 -11.8887 358.255 -11.8887 350.023 -3.65723 c 2,25,-1
 263.871 82.4971 l 2,26,27
 256.676 89.6924 256.676 89.6924 257.002 94.9521 c 0,28,29
 257.38 101.063 257.38 101.063 267.074 110.757 c 2,30,-1
 347.416 191.099 l 2,31,32
 356.867 200.551 356.867 200.551 363.859 200.407 c 0,33,34
 371.075 200.258 371.075 200.258 381.154 190.179 c 2,17,-1
129.301 190.032 m 2,35,-1
 211.727 107.607 l 2,36,37
 219.506 99.8281 219.506 99.8281 219.56 95.001 c 128,-1,38
 219.61 90.3281 219.61 90.3281 212.251 82.9678 c 2,39,-1
 126.151 -3.13281 l 2,40,41
 117.508 -11.7754 117.508 -11.7754 111.809 -11.833 c 128,-1,42
 106.255 -11.8887 106.255 -11.8887 98.0244 -3.65723 c 2,43,-1
 11.8711 82.4961 l 2,44,45
 4.67676 89.6895 4.67676 89.6895 5.00195 94.9521 c 0,46,47
 5.37988 101.063 5.37988 101.063 15.0742 110.757 c 2,48,-1
 95.416 191.099 l 2,49,50
 104.868 200.551 104.868 200.551 111.859 200.407 c 0,51,52
 119.075 200.258 119.075 200.258 129.301 190.032 c 2,35,-1
EndSplineSet
EndChar

StartChar: uni066E.fina
Encoding: 65540 -1 265
Width: 1777
VWidth: 2384
GlyphClass: 2
Flags: W
AnchorPoint: "Anchor-10" 728.312 1137.65 basechar 0
AnchorPoint: "Anchor-7" 728.312 -241.908 basechar 0
LayerCount: 2
Fore
SplineSet
885.076 -19 m 0,0,1
 439 -23 439 -23 285.43359375 58.4638671875 c 0,2,3
 85 164 85 164 91.8682 479.387 c 0,4,5
 95 610 95 610 147.913 715.67 c 1,6,-1
 203.457 687.307 l 1,7,8
 192 633 192 633 186.014 582.971 c 0,9,10
 181 533 181 533 182.555 476.179 c 0,11,12
 192 229 192 229 548.812 176.764 c 0,13,14
 636 164 636 164 1005.43 164.081 c 0,15,16
 1167 164 1167 164 1317.87988281 248.40234375 c 0,17,18
 1396 292 1396 292 1452.76953125 353.784179688 c 0,19,20
 1521 426 1521 426 1542.75 510.849609375 c 1,21,-1
 1609 489 l 1,22,23
 1576 417 1576 417 1567 387 c 0,24,25
 1506.97256995 172.902166139 1506.97256995 172.902166139 1754.5 165.1171875 c 2,26,-1
 1776.66992188 164.419921875 l 1,27,-1
 1787.54980469 164.7734375 l 1,28,-1
 1787.54980469 -19.1708984375 l 1,29,-1
 1778.16992188 -19.3955078125 l 1,30,31
 1657 -17 1657 -17 1620 0 c 4,32,33
 1474 64 1474 64 1486 246 c 1,34,-1
 1482.24023438 235.524414062 l 2,35,36
 1467 193 1467 193 1357.76953125 118.278320312 c 0,37,38
 1159 -16 1159 -16 885.076 -19 c 0,0,1
EndSplineSet
EndChar

StartChar: uni06A1.fina
Encoding: 65543 -1 268
Width: 1797
VWidth: 2381
GlyphClass: 2
Flags: W
AnchorPoint: "Anchor-10" 528.682 1252.21 basechar 0
AnchorPoint: "Anchor-7" 647.773 -295.979 basechar 0
LayerCount: 2
Fore
SplineSet
1201.66210938 433.8984375 m 0,0,1
 1202 367 1202 367 1253.89355469 316.541992188 c 0,2,3
 1306 266 1306 266 1380.08398438 265.758789062 c 0,4,5
 1454 266 1454 266 1506.2734375 316.541015625 c 0,6,7
 1558 366 1558 366 1558.50390625 433.891601562 c 0,8,9
 1559 492 1559 492 1506.43457031 549.12890625 c 0,10,11
 1454 606 1454 606 1380.08398438 606.067382812 c 128,-1,12
 1306 606 1306 606 1253.73242188 549.12890625 c 0,13,14
 1202 492 1202 492 1201.66210938 433.8984375 c 0,0,1
972.0703125 164.530273438 m 2,15,16
 1126 173 1126 173 1279.13867188 180.487304688 c 1,17,18
 1128 242 1128 242 1095.3984375 364.405273438 c 0,19,20
 1073 450 1073 450 1094.17089844 538.724609375 c 0,21,22
 1130 687 1130 687 1257.79003906 746.631835938 c 0,23,24
 1313 772 1313 772 1383.92675781 772.88671875 c 0,25,26
 1464 773 1464 773 1524.54003906 739.26953125 c 0,27,28
 1625 683 1625 683 1658.22265625 564.852539062 c 0,29,30
 1688 461 1688 461 1656.1171875 360.411132812 c 0,31,32
 1625 263 1625 263 1477.05566406 179.186523438 c 1,33,34
 1516 162 1516 162 1761.5703125 164.271484375 c 2,35,-1
 1807.62988281 164.6796875 l 1,36,-1
 1807.62988281 -19.265625 l 1,37,-1
 1754.59277344 -19.8046875 l 2,38,39
 1492.6759154 -22.4667774583 1492.6759154 -22.4667774583 1376.83789062 57.529296875 c 2,40,-1
 1372.64941406 60.4384765625 l 1,41,-1
 1368.38085938 57.64453125 l 2,42,43
 1280.33849734 0.0171695995227 1280.33849734 0.0171695995227 891.939453125 -19.68359375 c 24,44,45
 465 -42 465 -42 285.434 53.4639 c 0,46,47
 85 159 85 159 91.8682 479.387 c 0,48,49
 95 610 95 610 147.909 715.661 c 1,50,-1
 202.761 687.301 l 1,51,52
 193 640 193 640 186.017 583.001 c 0,53,54
 180 538 180 538 182.555 476.179 c 0,55,56
 192 229 192 229 548.812 176.764 c 0,57,58
 636 164 636 164 927.450195312 164.081054688 c 1,59,-1
 972.0703125 164.530273438 l 2,15,16
EndSplineSet
EndChar

StartChar: uni06A1.init
Encoding: 65544 -1 269
Width: 665
VWidth: 2401
GlyphClass: 2
Flags: W
AnchorPoint: "Anchor-10" 419.484 1312.5 basechar 0
AnchorPoint: "Anchor-7" 319.313 -239.581 basechar 0
LayerCount: 2
Fore
SplineSet
286.784179688 752.034179688 m 1,0,1
 172.973632812 749.712890625 172.973632812 749.712890625 147.294921875 604.420898438 c 0,2,3
 129.921875 502.864257812 129.921875 502.864257812 209.271484375 476.416015625 c 0,4,5
 320.209462083 439.436364028 320.209462083 439.436364028 466.23828125 488.18359375 c 1,6,7
 467.875181473 572.659337382 467.875181473 572.659337382 437.740234375 638.916992188 c 0,8,9
 386.635742188 753.0390625 386.635742188 753.0390625 286.784179688 752.034179688 c 1,0,1
573.760742188 295.259765625 m 0,10,11
 540.997862115 -19.0205078125 540.997862115 -19.0205078125 115.154296875 -19.0205078125 c 2,12,-1
 -11.611328125 -19.0205078125 l 1,13,-1
 -11.611328125 164.0546875 l 1,14,-1
 22.666015625 164.0546875 l 2,15,16
 457 164 457 164 457.637695312 310.352539062 c 1,17,18
 373 288 373 288 259.97984777 300.002022346 c 128,-1,19
 147 312 147 312 93 396.5 c 128,-1,20
 39 481 39 481 51.2822265625 598.576171875 c 0,21,22
 70 786 70 786 170.60546875 882.997070312 c 0,23,24
 226 936 226 936 324.435546875 928.0078125 c 0,25,26
 398 922 398 922 463 849 c 4,27,28
 549 753 549 753 568.253838911 591.567875279 c 0,29,30
 588 429 588 429 573.760742188 295.259765625 c 0,10,11
EndSplineSet
EndChar

StartChar: uni06A1.medi
Encoding: 65545 -1 270
Width: 874
VWidth: 2381
GlyphClass: 2
Flags: W
AnchorPoint: "Anchor-10" 490.592 1074.83 basechar 0
AnchorPoint: "Anchor-7" 490.592 -235.164 basechar 0
LayerCount: 2
Fore
SplineSet
279.662109375 433.8984375 m 4,0,1
 280 367 280 367 331.893554688 316.541992188 c 4,2,3
 384 266 384 266 458.083984375 265.758789062 c 4,4,5
 532 266 532 266 584.2734375 316.541015625 c 4,6,7
 636 366 636 366 636.50390625 433.891601562 c 4,8,9
 637 492 637 492 584.434570312 549.12890625 c 4,10,11
 532 606 532 606 458.083984375 606.067382812 c 132,-1,12
 384 606 384 606 331.732421875 549.12890625 c 4,13,14
 280 492 280 492 279.662109375 433.8984375 c 4,0,1
602.540039062 739.26953125 m 4,15,16
 703 683 703 683 736.22265625 564.852539062 c 4,17,18
 766 461 766 461 734.1171875 360.411132812 c 4,19,20
 703.089614151 263.280533578 703.089614151 263.280533578 555.055664062 179.186523438 c 5,21,22
 593.594663539 162.091524208 593.594663539 162.091524208 839.5703125 164.271484375 c 6,23,-1
 885.629882812 164.6796875 l 5,24,-1
 885.629882812 -19.265625 l 5,25,-1
 832.592773438 -19.8046875 l 6,26,27
 569.347640779 -22.0054538148 569.347640779 -22.0054538148 454.837890625 57.529296875 c 6,28,-1
 450.649414062 60.4384765625 l 5,29,-1
 446.380859375 57.64453125 l 6,30,31
 328.297830081 -19.8046569591 328.297830081 -19.8046569591 87.1962890625 -19.8046875 c 6,32,-1
 -11.4834 -19.8047 l 1,33,-1
 -11.4834 164.271 l 1,34,-1
 41.1279296875 164.271484375 l 6,35,36
 319.949852126 164.001018675 319.949852126 164.001018675 357.138671875 180.487304688 c 5,37,38
 206.118244096 241.556042723 206.118244096 241.556042723 173.3984375 364.405273438 c 4,39,40
 151 450 151 450 172.170898438 538.724609375 c 4,41,42
 209 688 209 688 335.790039062 746.631835938 c 4,43,44
 391 772 391 772 461.926757812 772.88671875 c 4,45,46
 542 773 542 773 602.540039062 739.26953125 c 4,15,16
EndSplineSet
EndChar

StartChar: uni066F.fina
Encoding: 65546 -1 271
Width: 1309
VWidth: 2401
GlyphClass: 2
Flags: W
AnchorPoint: "Anchor-10" 343.685 976.408 basechar 0
AnchorPoint: "Anchor-7" 436.781 -825.338 basechar 0
LayerCount: 2
Fore
SplineSet
907.490234375 407.721679688 m 0,0,1
 788.771484375 405.30078125 788.771484375 405.30078125 767.993164062 260.048828125 c 0,2,3
 754.975585938 166.62109375 754.975585938 166.62109375 833.837890625 158.859375 c 0,4,5
 974.129882812 143.67578125 974.129882812 143.67578125 1085.28027344 161.1953125 c 2,6,-1
 1086.94042969 161.456054688 l 1,7,-1
 1086.96972656 163.130859375 l 2,8,9
 1088.5703125 243.502929688 1088.5703125 243.502929688 1063.70996094 301.509765625 c 0,10,11
 1017.36035156 409.68359375 1017.36035156 409.68359375 907.490234375 407.721679688 c 0,0,1
1190.51953125 164.44140625 m 1,12,-1
 1319.78027344 164.836914062 l 1,13,-1
 1319.78027344 -19.0908203125 l 1,14,-1
 1189.29980469 -19.0908203125 l 1,15,-1
 1189.33984375 -21.1298828125 l 2,16,17
 1190 -78 1190 -78 1179.37011719 -131.759765625 c 0,18,19
 1095 -524 1095 -524 662 -533 c 4,20,21
 308 -540 308 -540 161.801757812 -338.444335938 c 4,22,23
 54 -190 54 -190 110.133789062 62.04296875 c 0,24,25
 126 134 126 134 161.268554688 236.146484375 c 0,26,27
 199 346 199 346 206.44140625 365.18359375 c 1,28,-1
 283.78125 319.452148438 l 1,29,30
 167 28 167 28 235.474609375 -143.720703125 c 4,31,32
 319.39807856 -356.006948398 319.39807856 -356.006948398 645.418945312 -358.663085938 c 4,33,34
 1042 -362 1042 -362 1077.69042969 -19.087890625 c 0,35,36
 1078 -18 1078 -18 1077.94042969 -16.734375 c 1,37,-1
 1075.58007812 -16.87890625 l 2,38,39
 1041 -19 1041 -19 896.950195312 -17.48828125 c 1,40,41
 757 -15 757 -15 710.534179688 56.671875 c 0,42,43
 659 136 659 136 671.989257812 254.252929688 c 0,44,45
 693 448 693 448 791.278320312 538.650390625 c 0,46,47
 858 600 858 600 943.059570312 593.146484375 c 0,48,49
 1012 587 1012 587 1076.19042969 522.337890625 c 0,50,51
 1170.94276738 426.058155206 1170.94276738 426.058155206 1190.37988281 166.307617188 c 2,52,-1
 1190.51953125 164.44140625 l 1,12,-1
EndSplineSet
EndChar

StartChar: arabic_ring
Encoding: 65549 -1 274
Width: 459
VWidth: 2150
GlyphClass: 2
Flags: W
LayerCount: 2
Fore
SplineSet
333.8 231 m 0,0,1
 333.8 273.828 333.8 273.828 303.827 303.802 c 0,2,3
 273.849 334.85 273.849 334.85 229.95 334.85 c 128,-1,4
 186.072 334.85 186.072 334.85 156.086 304.864 c 128,-1,5
 126.1 274.879 126.1 274.879 126.1 231 c 0,6,7
 126.1 186.072 126.1 186.072 156.098 156.073 c 0,8,9
 186.093 127.15 186.093 127.15 229.95 127.15 c 128,-1,10
 273.829 127.15 273.829 127.15 303.814 157.136 c 128,-1,11
 333.8 187.122 333.8 187.122 333.8 231 c 0,0,1
457.9 231 m 128,-1,13
 457.9 135.22 457.9 135.22 392.336 68.6144 c 0,14,15
 325.723 2 325.723 2 229.95 2 c 128,-1,16
 134.188 2 134.188 2 68.6144 68.6144 c 0,17,18
 2.00001 135.229 2.00001 135.229 2 231 c 128,-1,19
 2 326.773 2 326.773 68.6144 393.386 c 0,20,21
 134.177 458.95 134.177 458.95 229.95 458.95 c 128,-1,22
 325.73 458.95 325.73 458.95 392.336 393.386 c 1,23,12
 457.9 326.78 457.9 326.78 457.9 231 c 128,-1,13
EndSplineSet
EndChar

StartChar: arabic_gaf_bar
Encoding: 65550 -1 275
Width: 599
VWidth: 2150
GlyphClass: 2
Flags: W
LayerCount: 2
Fore
SplineSet
533 1671 m 1,0,-1
 3.50066 1391.15 l 1,1,-1
 50.986328125 1513.38964844 l 5,2,-1
 578.419921875 1804.45019531 l 5,3,-1
 533 1671 l 1,0,-1
EndSplineSet
EndChar

StartChar: uni066E.init.math
Encoding: 65560 -1 285
Width: 954
VWidth: 2386
GlyphClass: 2
Flags: W
LayerCount: 2
Fore
SplineSet
615.932 65.3022 m 0,0,1
 536.194 -29.1641 536.194 -29.1641 360.16 -29.1641 c 2,2,-1
 -22.7148 -29.1641 l 1,3,-1
 -22.7148 145.896 l 1,4,-1
 294.66 145.896 l 2,5,6
 421.69 145.896 421.69 145.896 480.541 204.749 c 0,7,8
 545.35 269.559 545.35 269.559 545.35 404.921 c 2,9,-1
 545.35 641.314 l 1,10,-1
 720.408 641.314 l 1,11,-1
 720.408 404.921 l 2,12,13
 720.408 190.851 720.408 190.851 615.932 65.3022 c 0,0,1
EndSplineSet
EndChar

StartChar: guillemotleft
Encoding: 171 171 286
Width: 1044
VWidth: 2150
Flags: W
LayerCount: 2
Fore
SplineSet
494.114 975.653 m 1,0,-1
 469.044 931.57 l 2,1,2
 406.658 821.877 406.658 821.877 375.545 715.038 c 0,3,4
 343.508 605.001 343.508 605.001 343.508 492.048 c 128,-1,5
 343.508 379.075 343.508 379.075 375.557 268.263 c 0,6,7
 406.651 160.752 406.651 160.752 469.001 51.564 c 2,8,-1
 494.198 7.43652 l 1,9,-1
 358.013 7.43652 l 1,10,-1
 349.322 21.1267 l 2,11,12
 273.146 141.113 273.146 141.113 235.074 257.116 c 0,13,14
 196.308 375.262 196.308 375.262 196.308 492.048 c 0,15,16
 196.308 608.384 196.308 608.384 235.083 726.001 c 0,17,18
 273.163 841.496 273.163 841.496 349.299 961.916 c 2,19,-1
 357.986 975.653 l 1,20,-1
 494.114 975.653 l 1,0,-1
888.914 975.653 m 1,21,-1
 863.844 931.57 l 2,22,23
 801.458 821.877 801.458 821.877 770.345 715.038 c 0,24,25
 738.308 605.001 738.308 605.001 738.308 492.048 c 128,-1,26
 738.308 379.072 738.308 379.072 770.356 268.263 c 0,27,28
 801.45 160.752 801.45 160.752 863.801 51.564 c 2,29,-1
 888.997 7.43652 l 1,30,-1
 752.813 7.43652 l 1,31,-1
 744.122 21.1267 l 2,32,33
 667.968 141.07 667.968 141.07 629.874 257.116 c 0,34,35
 591.107 375.266 591.107 375.266 591.107 492.048 c 0,36,37
 591.107 608.386 591.107 608.386 629.883 726.001 c 0,38,39
 667.946 841.45 667.946 841.45 744.1 961.916 c 2,40,-1
 752.786 975.653 l 1,41,-1
 888.914 975.653 l 1,21,-1
EndSplineSet
EndChar

StartChar: guillemotright
Encoding: 187 187 287
Width: 1044
VWidth: 2150
Flags: W
LayerCount: 2
Fore
SplineSet
550.636 975.653 m 1,0,-1
 686.764 975.653 l 1,1,-1
 695.451 961.916 l 2,2,3
 771.611 841.451 771.611 841.451 809.667 726.001 c 0,4,5
 848.442 608.39 848.442 608.39 848.442 492.048 c 0,6,7
 848.442 375.262 848.442 375.262 809.676 257.116 c 0,8,9
 771.684 141.381 771.684 141.381 695.626 21.4396 c 2,10,-1
 686.737 7.43652 l 1,11,-1
 550.552 7.43652 l 1,12,-1
 575.749 51.564 l 2,13,14
 638.094 160.752 638.094 160.752 669.193 268.263 c 0,15,16
 701.242 379.075 701.242 379.075 701.242 492.048 c 128,-1,17
 701.242 605.001 701.242 605.001 669.205 715.038 c 0,18,19
 638.1 821.877 638.1 821.877 575.706 931.57 c 2,20,-1
 550.636 975.653 l 1,0,-1
155.836 975.653 m 1,21,-1
 291.964 975.653 l 1,22,-1
 300.65 961.916 l 2,23,24
 376.792 841.487 376.792 841.487 414.867 726.001 c 0,25,26
 453.643 608.386 453.643 608.386 453.643 492.048 c 0,27,28
 453.643 375.266 453.643 375.266 414.876 257.116 c 0,29,30
 376.796 141.114 376.796 141.114 300.628 21.1266 c 2,31,-1
 291.937 7.43652 l 1,32,-1
 155.753 7.43652 l 1,33,-1
 180.949 51.564 l 2,34,35
 243.294 160.752 243.294 160.752 274.394 268.263 c 0,36,37
 306.442 379.072 306.442 379.072 306.442 492.048 c 128,-1,38
 306.442 605.001 306.442 605.001 274.405 715.038 c 0,39,40
 243.3 821.877 243.3 821.877 180.906 931.57 c 2,41,-1
 155.836 975.653 l 1,21,-1
EndSplineSet
EndChar

StartChar: NameMe.337
Encoding: 65562 -1 294
Width: 645
VWidth: 2290
Flags: W
LayerCount: 2
Fore
SplineSet
285.451 100.537 m 2,0,1
 197.216 2 197.216 2 84.7354 2 c 2,2,-1
 -19.4209 2 l 1,3,-1
 -19.4209 175.429 l 1,4,-1
 22.9424 175.429 l 2,5,6
 134.898 175.429 134.898 175.429 197.155 231.236 c 0,7,8
 267.741 294.595 267.741 294.595 261.652 420.422 c 2,9,-1
 220.768 1264.99 l 1,10,-1
 381.429 1336.68 l 1,11,-1
 381.429 420.325 l 2,12,13
 381.429 294.351 381.429 294.351 413.874 247.712 c 0,14,15
 464.159 175.429 464.159 175.429 624.341 175.429 c 2,16,-1
 665.653 175.429 l 1,17,-1
 665.653 2 l 1,18,-1
 562.548 2 l 2,19,20
 407.216 2 407.216 2 316.459 100.786 c 2,21,-1
 300.869 117.754 l 1,22,-1
 285.451 100.537 l 2,0,1
EndSplineSet
EndChar

StartChar: NameMe.338
Encoding: 65563 -1 295
Width: 558
VWidth: 2290
Flags: W
LayerCount: 2
Fore
SplineSet
410.828 458.524 m 2,0,1
 410.828 203.697 410.828 203.697 302.454 96.0296 c 1,2,3
 204.243 2 204.243 2 57.4355 2 c 2,4,-1
 -19.4209 2 l 1,5,-1
 -19.4209 175.429 l 1,6,-1
 13.4922 175.429 l 2,7,8
 160.56 175.429 160.56 175.429 228.317 260.089 c 0,9,10
 294.599 342.922 294.599 342.922 288.952 472.094 c 2,11,-1
 249.113 1383.7 l 1,12,-1
 410.828 1455.41 l 1,13,-1
 410.828 458.524 l 2,0,1
EndSplineSet
EndChar

StartChar: exclam
Encoding: 33 33 298
Width: 826
VWidth: 0
Flags: W
LayerCount: 2
Fore
SplineSet
513.416 193.914 m 2,0,-1
 513.416 22.7432 l 2,1,2
 513.416 9.91604 513.416 9.91604 510.328 5.59371 c 0,3,4
 507.101 2 507.101 2 499.854 2 c 2,5,-1
 329.881 2 l 2,6,7
 319.88 2 319.88 2 316.347 5.93727 c 128,-1,8
 312.729 9.96894 312.729 9.96894 312.729 22.7432 c 2,9,-1
 312.729 192.717 l 2,10,11
 312.729 203.993 312.729 203.993 316.151 207.545 c 128,-1,12
 319.543 211.066 319.543 211.066 329.881 211.066 c 2,13,-1
 496.264 211.066 l 2,14,15
 506.773 211.066 506.773 211.066 510.094 207.744 c 128,-1,16
 513.416 204.423 513.416 204.423 513.416 193.914 c 2,0,-1
318.991 1472.2 m 1,17,-1
 507.061 1472.2 l 1,18,-1
 487.188 448.25 l 1,19,-1
 339.91 448.25 l 1,20,-1
 318.991 1472.2 l 1,17,-1
EndSplineSet
EndChar

StartChar: period
Encoding: 46 46 299
Width: 661
VWidth: 2156
Flags: W
LayerCount: 2
Fore
SplineSet
442.866 193.914 m 2,0,-1
 442.866 22.7432 l 2,1,2
 442.866 9.49236 442.866 9.49236 439.803 5.64127 c 0,3,4
 436.907 2 436.907 2 429.305 2 c 6,5,-1
 259.331 2 l 2,6,7
 249.331 2 249.331 2 245.797 5.93745 c 128,-1,8
 242.179 9.96905 242.179 9.96905 242.179 22.7432 c 2,9,-1
 242.179 192.717 l 2,10,11
 242.179 203.993 242.179 203.993 245.601 207.545 c 128,-1,12
 248.993 211.066 248.993 211.066 259.331 211.066 c 2,13,-1
 425.714 211.066 l 2,14,15
 436.222 211.066 436.222 211.066 439.544 207.744 c 128,-1,16
 442.866 204.422 442.866 204.422 442.866 193.914 c 2,0,-1
EndSplineSet
EndChar

StartChar: colon
Encoding: 58 58 300
Width: 661
VWidth: 2156
Flags: W
LayerCount: 2
Fore
SplineSet
442.866 756.714 m 2,0,-1
 442.866 585.543 l 2,1,2
 442.866 572.293 442.866 572.293 439.803 568.442 c 0,3,4
 436.907 564.8 436.907 564.8 429.305 564.8 c 2,5,-1
 259.331 564.8 l 2,6,7
 249.331 564.8 249.331 564.8 245.797 568.738 c 128,-1,8
 242.179 572.769 242.179 572.769 242.179 585.543 c 2,9,-1
 242.179 755.517 l 2,10,11
 242.179 766.793 242.179 766.793 245.601 770.345 c 128,-1,12
 248.993 773.866 248.993 773.866 259.331 773.866 c 2,13,-1
 425.714 773.866 l 2,14,15
 436.223 773.866 436.223 773.866 439.544 770.544 c 128,-1,16
 442.866 767.222 442.866 767.222 442.866 756.714 c 2,0,-1
442.866 193.914 m 2,17,-1
 442.866 22.7432 l 2,18,19
 442.866 9.49236 442.866 9.49236 439.803 5.64127 c 0,20,21
 436.907 2 436.907 2 429.305 2 c 2,22,-1
 259.331 2 l 2,23,24
 249.331 2 249.331 2 245.797 5.93745 c 128,-1,25
 242.179 9.96905 242.179 9.96905 242.179 22.7432 c 2,26,-1
 242.179 192.717 l 2,27,28
 242.179 203.993 242.179 203.993 245.601 207.545 c 128,-1,29
 248.993 211.066 248.993 211.066 259.331 211.066 c 2,30,-1
 425.714 211.066 l 2,31,32
 436.222 211.066 436.222 211.066 439.544 207.744 c 128,-1,33
 442.866 204.422 442.866 204.422 442.866 193.914 c 2,17,-1
EndSplineSet
EndChar
